DejaVuSans-Oblique.ufo
<glyph name="exclam" format="2">
  <advance width="821"/>
  <unicode hex="0021"/>
  <outline>
    <contour>
      <point x="453" y="1493" type="line"/>
      <point x="655" y="1493" type="line"/>
      <point x="528" y="838" type="line"/>
      <point x="438" y="481" type="line"/>
      <point x="276" y="481" type="line"/>
      <point x="326" y="838" type="line"/>
    </contour>
    <contour>
      <point x="213" y="254" type="line"/>
      <point x="416" y="254" type="line"/>
      <point x="367" y="0" type="line"/>
      <point x="162" y="0" type="line"/>
    </contour>
  </outline>
</glyph>
<glyph name="quotedbl" format="2">
  <advance width="942"/>
  <unicode hex="0022"/>
  <outline>
    <contour>
      <point x="367" y="1493" type="line"/>
      <point x="367" y="938" type="line"/>
      <point x="197" y="938" type="line"/>
      <point x="197" y="1493" type="line"/>
    </contour>
    <contour>
      <point x="745" y="1493" type="line"/>
      <point x="745" y="938" type="line"/>
      <point x="575" y="938" type="line"/>
      <point x="575" y="1493" type="line"/>
    </contour>
  </outline>
</glyph>
<glyph name="dollar" format="2">
  <advance width="1303"/>
  <unicode hex="0024"/>
  <outline>
    <contour>
      <point x="600" y="145" type="line"/>
      <point x="739" y="151"/>
      <point x="901" y="280"/>
      <point x="901" y="383" type="qcurve" smooth="yes"/>
      <point x="901" y="467"/>
      <point x="799" y="559"/>
      <point x="684" y="578" type="qcurve"/>
    </contour>
    <contour>
      <point x="700" y="1180" type="line"/>
      <point x="568" y="1166"/>
      <point x="418" y="1038"/>
      <point x="418" y="938" type="qcurve" smooth="yes"/>
      <point x="418" y="868"/>
      <point x="513" y="789"/>
      <point x="621" y="770" type="qcurve"/>
    </contour>
    <contour>
      <point x="1167" y="1262" type="qcurve"/>
      <point x="1133" y="1081" type="line"/>
      <point x="1047" y="1127"/>
      <point x="880" y="1177"/>
      <point x="801" y="1179" type="qcurve"/>
      <point x="717" y="752" type="line"/>
      <point x="901" y="723"/>
      <point x="1094" y="551"/>
      <point x="1094" y="416" type="qcurve" smooth="yes"/>
      <point x="1094" y="241"/>
      <point x="808" y="12"/>
      <point x="571" y="0" type="qcurve"/>
      <point x="512" y="-301" type="line"/>
      <point x="412" y="-301" type="line"/>
      <point x="471" y="0" type="line"/>
      <point x="355" y="3"/>
      <point x="151" y="50"/>
      <point x="68" y="92" type="qcurve"/>
      <point x="102" y="276" type="line"/>
      <point x="194" y="214"/>
      <point x="394" y="146"/>
      <point x="500" y="142" type="qcurve"/>
      <point x="588" y="598" type="line"/>
      <point x="399" y="634"/>
      <point x="227" y="783"/>
      <point x="227" y="909" type="qcurve" smooth="yes"/>
      <point x="227" y="1075"/>
      <point x="502" y="1305"/>
      <point x="727" y="1323" type="qcurve"/>
      <point x="774" y="1556" type="line"/>
      <point x="874" y="1556" type="line"/>
      <point x="830" y="1323" type="line"/>
      <point x="920" y="1320"/>
      <point x="1091" y="1289"/>
    </contour>
  </outline>
</glyph>
<glyph name="ampersand" format="2">
  <advance width="1597"/>
  <unicode hex="0026"/>
  <outline>
    <contour>
      <point x="967" y="260" type="qcurve"/>
      <point x="541" y="803" type="line"/>
      <point x="420" y="715"/>
      <point x="295" y="517"/>
      <point x="295" y="414" type="qcurve" smooth="yes"/>
      <point x="295" y="287"/>
      <point x="466" y="133"/>
      <point x="608" y="133" type="qcurve" smooth="yes"/>
      <point x="702" y="133"/>
      <point x="885" y="198"/>
    </contour>
    <contour>
      <point x="1507" y="801" type="line"/>
      <point x="1462" y="642"/>
      <point x="1315" y="378"/>
      <point x="1212" y="270" type="qcurve"/>
      <point x="1421" y="0" type="line"/>
      <point x="1169" y="0" type="line"/>
      <point x="1063" y="139" type="line"/>
      <point x="957" y="56"/>
      <point x="713" y="-29"/>
      <point x="580" y="-29" type="qcurve" smooth="yes"/>
      <point x="359" y="-29"/>
      <point x="96" y="189"/>
      <point x="96" y="369" type="qcurve" smooth="yes"/>
      <point x="96" y="523"/>
      <point x="281" y="797"/>
      <point x="463" y="913" type="qcurve"/>
      <point x="432" y="959"/>
      <point x="403" y="1054"/>
      <point x="403" y="1108" type="qcurve" smooth="yes"/>
      <point x="403" y="1176"/>
      <point x="449" y="1298"/>
      <point x="492" y="1348" type="qcurve" smooth="yes"/>
      <point x="561" y="1430"/>
      <point x="769" y="1520"/>
      <point x="889" y="1520" type="qcurve" smooth="yes"/>
      <point x="967" y="1520"/>
      <point x="1125" y="1484"/>
      <point x="1206" y="1448" type="qcurve"/>
      <point x="1171" y="1266" type="line"/>
      <point x="1096" y="1313"/>
      <point x="947" y="1362"/>
      <point x="877" y="1362" type="qcurve" smooth="yes"/>
      <point x="753" y="1362"/>
      <point x="598" y="1233"/>
      <point x="598" y="1133" type="qcurve" smooth="yes"/>
      <point x="598" y="1089"/>
      <point x="636" y="1003"/>
      <point x="705" y="915" type="qcurve" smooth="yes"/>
      <point x="1112" y="395" type="line"/>
      <point x="1187" y="474"/>
      <point x="1293" y="679"/>
      <point x="1321" y="801" type="qcurve"/>
    </contour>
  </outline>
</glyph>
<glyph name="quotesingle" format="2">
  <advance width="563"/>
  <unicode hex="0027"/>
  <outline>
    <contour>
      <point x="197" y="938" type="line"/>
      <point x="367" y="938" type="line"/>
      <point x="367" y="1493" type="line"/>
      <point x="197" y="1493" type="line"/>
    </contour>
  </outline>
</glyph>
<glyph name="parenleft" format="2">
  <advance width="799"/>
  <unicode hex="0028"/>
  <outline>
    <contour>
      <point x="874" y="1554" type="line"/>
      <point x="609" y="1223"/>
      <point x="348" y="628"/>
      <point x="348" y="352" type="qcurve" smooth="yes"/>
      <point x="348" y="194"/>
      <point x="424" y="-117"/>
      <point x="500" y="-270" type="qcurve"/>
      <point x="340" y="-270" type="line"/>
      <point x="248" y="-98"/>
      <point x="158" y="227"/>
      <point x="158" y="383" type="qcurve" smooth="yes"/>
      <point x="158" y="680"/>
      <point x="433" y="1263"/>
      <point x="711" y="1554" type="qcurve"/>
    </contour>
  </outline>
</glyph>
<glyph name="parenright" format="2">
  <advance width="799"/>
  <unicode hex="0029"/>
  <outline>
    <contour>
      <point x="-127" y="-270" type="line"/>
      <point x="139" y="61"/>
      <point x="399" y="656"/>
      <point x="399" y="932" type="qcurve" smooth="yes"/>
      <point x="399" y="1090"/>
      <point x="324" y="1401"/>
      <point x="248" y="1554" type="qcurve"/>
      <point x="408" y="1554" type="line"/>
      <point x="500" y="1381"/>
      <point x="590" y="1059"/>
      <point x="590" y="903" type="qcurve" smooth="yes"/>
      <point x="590" y="605"/>
      <point x="313" y="18"/>
      <point x="37" y="-270" type="qcurve"/>
    </contour>
  </outline>
</glyph>
<glyph name="comma" format="2">
  <advance width="651"/>
  <unicode hex="002C"/>
  <outline>
    <contour>
      <point x="184" y="254" type="line"/>
      <point x="395" y="254" type="line"/>
      <point x="362" y="82" type="line"/>
      <point x="135" y="-238" type="line"/>
      <point x="6" y="-238" type="line"/>
      <point x="150" y="82" type="line"/>
    </contour>
  </outline>
</glyph>
<glyph name="hyphen" format="2">
  <advance width="739"/>
  <unicode hex="002D"/>
  <outline>
    <contour>
      <point x="125" y="643" type="line"/>
      <point x="664" y="643" type="line"/>
      <point x="633" y="479" type="line"/>
      <point x="92" y="479" type="line"/>
    </contour>
  </outline>
</glyph>
<glyph name="period" format="2">
  <advance width="651"/>
  <unicode hex="002E"/>
  <outline>
    <contour>
      <point x="168" y="254" type="line"/>
      <point x="379" y="254" type="line"/>
      <point x="330" y="0" type="line"/>
      <point x="119" y="0" type="line"/>
    </contour>
  </outline>
</glyph>
<glyph name="slash" format="2">
  <advance width="690"/>
  <unicode hex="002F"/>
  <outline>
    <contour>
      <point x="-150" y="-190" type="line"/>
      <point x="27" y="-190" type="line"/>
      <point x="874" y="1493" type="line"/>
      <point x="696" y="1493" type="line"/>
    </contour>
  </outline>
</glyph>
<glyph name="zero" format="2">
  <advance width="1303"/>
  <unicode hex="0030"/>
  <anchor x="506" y="0" name="below"/>
  <anchor x="802" y="1520" name="above"/>
  <outline>
    <contour>
      <point x="512" y="-29" type="curve" smooth="yes"/>
      <point x="715" y="-29"/>
      <point x="884" y="76"/>
      <point x="1008" y="276" type="curve" smooth="yes"/>
      <point x="1129" y="476"/>
      <point x="1200" y="741"/>
      <point x="1200" y="997" type="curve" smooth="yes"/>
      <point x="1200" y="1334"/>
      <point x="1053" y="1520"/>
      <point x="782" y="1520" type="curve" smooth="yes"/>
      <point x="587" y="1520"/>
      <point x="420" y="1414"/>
      <point x="297" y="1214" type="curve" smooth="yes"/>
      <point x="174" y="1015"/>
      <point x="102" y="747"/>
      <point x="102" y="494" type="curve" smooth="yes"/>
      <point x="102" y="159"/>
      <point x="251" y="-29"/>
    </contour>
    <contour>
      <point x="532" y="131" type="curve" smooth="yes"/>
      <point x="380" y="131"/>
      <point x="301" y="245"/>
      <point x="301" y="465" type="curve" smooth="yes"/>
      <point x="301" y="742"/>
      <point x="379" y="1024"/>
      <point x="502" y="1200" type="curve" smooth="yes"/>
      <point x="575" y="1305"/>
      <point x="669" y="1360"/>
      <point x="770" y="1360" type="curve" smooth="yes"/>
      <point x="922" y="1360"/>
      <point x="1001" y="1246"/>
      <point x="1001" y="1026" type="curve" smooth="yes"/>
      <point x="1001" y="747"/>
      <point x="924" y="466"/>
      <point x="803" y="291" type="curve" smooth="yes"/>
      <point x="730" y="186"/>
      <point x="639" y="131"/>
    </contour>
  </outline>
</glyph>
<glyph name="one" format="2">
  <advance width="1303"/>
  <unicode hex="0031"/>
  <anchor x="506" y="0" name="below"/>
  <anchor x="802" y="1520" name="above"/>
  <outline>
    <contour>
      <point x="133" y="170" type="line"/>
      <point x="463" y="170" type="line"/>
      <point x="686" y="1319" type="line"/>
      <point x="313" y="1247" type="line"/>
      <point x="348" y="1421" type="line"/>
      <point x="719" y="1493" type="line"/>
      <point x="922" y="1493" type="line"/>
      <point x="664" y="170" type="line"/>
      <point x="993" y="170" type="line"/>
      <point x="961" y="0" type="line"/>
      <point x="100" y="0" type="line"/>
    </contour>
  </outline>
</glyph>
<glyph name="two" format="2">
  <advance width="1303"/>
  <unicode hex="0032"/>
  <anchor x="506" y="0" name="below"/>
  <anchor x="802" y="1520" name="above"/>
  <outline>
    <contour>
      <point x="944" y="721" type="qcurve" smooth="yes"/>
      <point x="299" y="168" type="line"/>
      <point x="1012" y="168" type="line"/>
      <point x="977" y="0" type="line"/>
      <point x="8" y="0" type="line"/>
      <point x="41" y="170" type="line"/>
      <point x="715" y="748" type="line"/>
      <point x="850" y="865"/>
      <point x="963" y="1042"/>
      <point x="963" y="1135" type="qcurve" smooth="yes"/>
      <point x="963" y="1232"/>
      <point x="827" y="1354"/>
      <point x="717" y="1354" type="qcurve" smooth="yes"/>
      <point x="622" y="1354"/>
      <point x="390" y="1286"/>
      <point x="258" y="1221" type="qcurve"/>
      <point x="295" y="1421" type="line"/>
      <point x="419" y="1470"/>
      <point x="645" y="1520"/>
      <point x="741" y="1520" type="qcurve" smooth="yes"/>
      <point x="937" y="1520"/>
      <point x="1176" y="1312"/>
      <point x="1176" y="1143" type="qcurve" smooth="yes"/>
      <point x="1176" y="1029"/>
      <point x="1062" y="822"/>
    </contour>
  </outline>
</glyph>
<glyph name="three" format="2">
  <advance width="1303"/>
  <unicode hex="0033"/>
  <anchor x="506" y="0" name="below"/>
  <anchor x="802" y="1520" name="above"/>
  <outline>
    <contour>
      <point x="389" y="-29" type="curve" smooth="yes"/>
      <point x="588" y="-29"/>
      <point x="739" y="9"/>
      <point x="848" y="86" type="curve" smooth="yes"/>
      <point x="992" y="187"/>
      <point x="1071" y="332"/>
      <point x="1071" y="492" type="curve" smooth="yes"/>
      <point x="1071" y="659"/>
      <point x="995" y="757"/>
      <point x="827" y="805" type="curve"/>
      <point x="1042" y="856"/>
      <point x="1171" y="1003"/>
      <point x="1171" y="1196" type="curve" smooth="yes"/>
      <point x="1171" y="1393"/>
      <point x="1005" y="1520"/>
      <point x="741" y="1520" type="curve" smooth="yes"/>
      <point x="608" y="1520"/>
      <point x="471" y="1499"/>
      <point x="324" y="1456" type="curve"/>
      <point x="293" y="1276" type="line"/>
      <point x="437" y="1331"/>
      <point x="570" y="1358"/>
      <point x="698" y="1358" type="curve" smooth="yes"/>
      <point x="867" y="1358"/>
      <point x="965" y="1286"/>
      <point x="965" y="1161" type="curve" smooth="yes"/>
      <point x="965" y="988"/>
      <point x="829" y="879"/>
      <point x="608" y="879" type="curve" smooth="yes"/>
      <point x="424" y="879" type="line"/>
      <point x="393" y="715" type="line"/>
      <point x="567" y="715" type="line" smooth="yes"/>
      <point x="760" y="715"/>
      <point x="868" y="637"/>
      <point x="868" y="498" type="curve" smooth="yes"/>
      <point x="868" y="282"/>
      <point x="689" y="133"/>
      <point x="426" y="133" type="curve" smooth="yes"/>
      <point x="293" y="133"/>
      <point x="166" y="167"/>
      <point x="41" y="236" type="curve"/>
      <point x="4" y="45" type="line"/>
      <point x="136" y="-4"/>
      <point x="264" y="-29"/>
    </contour>
  </outline>
</glyph>
<glyph name="four" format="2">
  <advance width="1303"/>
  <unicode hex="0034"/>
  <anchor x="506" y="0" name="below"/>
  <anchor x="802" y="1520" name="above"/>
  <outline>
    <contour>
      <point x="643" y="0" type="line"/>
      <point x="844" y="0" type="line"/>
      <point x="911" y="352" type="line"/>
      <point x="1124" y="352" type="line"/>
      <point x="1157" y="520" type="line"/>
      <point x="944" y="520" type="line"/>
      <point x="1135" y="1493" type="line"/>
      <point x="881" y="1493" type="line"/>
      <point x="76" y="547" type="line"/>
      <point x="37" y="352" type="line"/>
      <point x="711" y="352" type="line"/>
    </contour>
    <contour>
      <point x="233" y="520" type="line"/>
      <point x="899" y="1317" type="line"/>
      <point x="743" y="520" type="line"/>
    </contour>
  </outline>
</glyph>
<glyph name="five" format="2">
  <advance width="1303"/>
  <unicode hex="0035"/>
  <anchor x="506" y="0" name="below"/>
  <anchor x="802" y="1520" name="above"/>
  <outline>
    <contour>
      <point x="1190" y="1493" type="line"/>
      <point x="1159" y="1325" type="line"/>
      <point x="541" y="1325" type="line"/>
      <point x="469" y="956" type="line"/>
      <point x="515" y="971"/>
      <point x="610" y="985"/>
      <point x="659" y="985" type="qcurve" smooth="yes"/>
      <point x="866" y="985"/>
      <point x="1106" y="763"/>
      <point x="1106" y="573" type="qcurve" smooth="yes"/>
      <point x="1106" y="440"/>
      <point x="983" y="196"/>
      <point x="870" y="104" type="qcurve" smooth="yes"/>
      <point x="790" y="40"/>
      <point x="559" y="-29"/>
      <point x="422" y="-29" type="qcurve" smooth="yes"/>
      <point x="332" y="-29"/>
      <point x="144" y="3"/>
      <point x="41" y="35" type="qcurve"/>
      <point x="78" y="223" type="line"/>
      <point x="170" y="178"/>
      <point x="355" y="133"/>
      <point x="449" y="133" type="qcurve" smooth="yes"/>
      <point x="644" y="133"/>
      <point x="899" y="367"/>
      <point x="899" y="543" type="qcurve" smooth="yes"/>
      <point x="899" y="673"/>
      <point x="732" y="817"/>
      <point x="582" y="817" type="qcurve" smooth="yes"/>
      <point x="503" y="817"/>
      <point x="332" y="780"/>
      <point x="242" y="743" type="qcurve"/>
      <point x="387" y="1493" type="line"/>
    </contour>
  </outline>
</glyph>
<glyph name="six" format="2">
  <advance width="1303"/>
  <unicode hex="0036"/>
  <anchor x="506" y="0" name="below"/>
  <anchor x="802" y="1520" name="above"/>
  <outline>
    <contour>
      <point x="573" y="-29" type="curve" smooth="yes"/>
      <point x="713" y="-29"/>
      <point x="841" y="19"/>
      <point x="934" y="106" type="curve" smooth="yes"/>
      <point x="1070" y="233"/>
      <point x="1143" y="403"/>
      <point x="1143" y="598" type="curve" smooth="yes"/>
      <point x="1143" y="835"/>
      <point x="987" y="987"/>
      <point x="743" y="987" type="curve" smooth="yes"/>
      <point x="594" y="987"/>
      <point x="462" y="928"/>
      <point x="365" y="815" type="curve"/>
      <point x="448" y="1184"/>
      <point x="609" y="1352"/>
      <point x="885" y="1352" type="curve" smooth="yes"/>
      <point x="998" y="1352"/>
      <point x="1101" y="1325"/>
      <point x="1178" y="1274" type="curve"/>
      <point x="1212" y="1458" type="line"/>
      <point x="1115" y="1499"/>
      <point x="1013" y="1520"/>
      <point x="909" y="1520" type="curve" smooth="yes"/>
      <point x="673" y="1520"/>
      <point x="473" y="1413"/>
      <point x="336" y="1210" type="curve" smooth="yes"/>
      <point x="205" y="1018"/>
      <point x="129" y="744"/>
      <point x="129" y="461" type="curve" smooth="yes"/>
      <point x="129" y="157"/>
      <point x="298" y="-29"/>
    </contour>
    <contour>
      <point x="575" y="131" type="curve" smooth="yes"/>
      <point x="423" y="131"/>
      <point x="332" y="236"/>
      <point x="332" y="412" type="curve" smooth="yes"/>
      <point x="332" y="647"/>
      <point x="491" y="827"/>
      <point x="698" y="827" type="curve" smooth="yes"/>
      <point x="847" y="827"/>
      <point x="940" y="722"/>
      <point x="940" y="553" type="curve" smooth="yes"/>
      <point x="940" y="317"/>
      <point x="783" y="131"/>
    </contour>
  </outline>
</glyph>
<glyph name="seven" format="2">
  <advance width="1303"/>
  <unicode hex="0037"/>
  <anchor x="506" y="0" name="below"/>
  <anchor x="802" y="1520" name="above"/>
  <outline>
    <contour>
      <point x="190" y="0" type="line"/>
      <point x="412" y="0" type="line"/>
      <point x="1266" y="1407" type="line"/>
      <point x="1284" y="1493" type="line"/>
      <point x="262" y="1493" type="line"/>
      <point x="229" y="1323" type="line"/>
      <point x="997" y="1323" type="line"/>
    </contour>
  </outline>
</glyph>
<glyph name="eight" format="2">
  <advance width="1303"/>
  <unicode hex="0038"/>
  <anchor x="506" y="0" name="below"/>
  <anchor x="802" y="1520" name="above"/>
  <outline>
    <contour>
      <point x="911" y="453" type="qcurve" smooth="yes"/>
      <point x="911" y="566"/>
      <point x="753" y="709"/>
      <point x="625" y="709" type="qcurve" smooth="yes"/>
      <point x="469" y="709"/>
      <point x="266" y="522"/>
      <point x="266" y="379" type="qcurve" smooth="yes"/>
      <point x="266" y="265"/>
      <point x="421" y="131"/>
      <point x="553" y="131" type="qcurve" smooth="yes"/>
      <point x="710" y="131"/>
      <point x="911" y="313"/>
    </contour>
    <contour>
      <point x="1014" y="1149" type="qcurve" smooth="yes"/>
      <point x="1014" y="1244"/>
      <point x="874" y="1360"/>
      <point x="758" y="1360" type="qcurve" smooth="yes"/>
      <point x="621" y="1360"/>
      <point x="444" y="1206"/>
      <point x="444" y="1090" type="qcurve" smooth="yes"/>
      <point x="444" y="990"/>
      <point x="583" y="868"/>
      <point x="698" y="868" type="qcurve" smooth="yes"/>
      <point x="836" y="868"/>
      <point x="1014" y="1027"/>
    </contour>
    <contour>
      <point x="877" y="786" type="qcurve"/>
      <point x="990" y="743"/>
      <point x="1110" y="569"/>
      <point x="1110" y="446" type="qcurve" smooth="yes"/>
      <point x="1110" y="239"/>
      <point x="790" y="-29"/>
      <point x="537" y="-29" type="qcurve" smooth="yes"/>
      <point x="322" y="-29"/>
      <point x="68" y="182"/>
      <point x="68" y="358" type="qcurve" smooth="yes"/>
      <point x="68" y="518"/>
      <point x="286" y="767"/>
      <point x="461" y="801" type="qcurve"/>
      <point x="356" y="837"/>
      <point x="246" y="988"/>
      <point x="246" y="1096" type="qcurve" smooth="yes"/>
      <point x="246" y="1277"/>
      <point x="547" y="1520"/>
      <point x="778" y="1520" type="qcurve" smooth="yes"/>
      <point x="971" y="1520"/>
      <point x="1214" y="1323"/>
      <point x="1214" y="1171" type="qcurve" smooth="yes"/>
      <point x="1214" y="1039"/>
      <point x="1033" y="832"/>
    </contour>
  </outline>
</glyph>
<glyph name="nine" format="2">
  <advance width="1303"/>
  <unicode hex="0039"/>
  <anchor x="506" y="0" name="below"/>
  <anchor x="802" y="1520" name="above"/>
  <outline>
    <contour>
      <point x="90" y="33" type="qcurve"/>
      <point x="127" y="217" type="line"/>
      <point x="185" y="179"/>
      <point x="333" y="139"/>
      <point x="418" y="139" type="qcurve" smooth="yes"/>
      <point x="625" y="139"/>
      <point x="878" y="401"/>
      <point x="940" y="678" type="qcurve"/>
      <point x="866" y="593"/>
      <point x="671" y="504"/>
      <point x="559" y="504" type="qcurve" smooth="yes"/>
      <point x="377" y="504"/>
      <point x="162" y="715"/>
      <point x="162" y="893" type="qcurve" smooth="yes"/>
      <point x="162" y="1039"/>
      <point x="268" y="1290"/>
      <point x="371" y="1384" type="qcurve"/>
      <point x="441" y="1450"/>
      <point x="625" y="1520"/>
      <point x="729" y="1520" type="qcurve" smooth="yes"/>
      <point x="936" y="1520"/>
      <point x="1176" y="1257"/>
      <point x="1176" y="1030" type="qcurve" smooth="yes"/>
      <point x="1176" y="819"/>
      <point x="1065" y="425"/>
      <point x="967" y="281" type="qcurve" smooth="yes"/>
      <point x="863" y="129"/>
      <point x="571" y="-29"/>
      <point x="393" y="-29" type="qcurve" smooth="yes"/>
      <point x="316" y="-29"/>
      <point x="163" y="2"/>
    </contour>
    <contour>
      <point x="362" y="940" type="qcurve" smooth="yes"/>
      <point x="362" y="813"/>
      <point x="494" y="664"/>
      <point x="606" y="664" type="qcurve" smooth="yes"/>
      <point x="761" y="664"/>
      <point x="971" y="902"/>
      <point x="971" y="1079" type="qcurve" smooth="yes"/>
      <point x="971" y="1211"/>
      <point x="841" y="1360"/>
      <point x="727" y="1360" type="qcurve" smooth="yes"/>
      <point x="572" y="1360"/>
      <point x="362" y="1117"/>
    </contour>
  </outline>
</glyph>
<glyph name="colon" format="2">
  <advance width="690"/>
  <unicode hex="003A"/>
  <outline>
    <contour>
      <point x="106" y="0" type="line"/>
      <point x="317" y="0" type="line"/>
      <point x="367" y="254" type="line"/>
      <point x="156" y="254" type="line"/>
    </contour>
    <contour>
      <point x="264" y="805" type="line"/>
      <point x="475" y="805" type="line"/>
      <point x="524" y="1059" type="line"/>
      <point x="313" y="1059" type="line"/>
    </contour>
  </outline>
</glyph>
<glyph name="semicolon" format="2">
  <advance width="690"/>
  <unicode hex="003B"/>
  <outline>
    <contour>
      <point x="180" y="254" type="line"/>
      <point x="391" y="254" type="line"/>
      <point x="356" y="82" type="line"/>
      <point x="131" y="-238" type="line"/>
      <point x="2" y="-238" type="line"/>
      <point x="145" y="82" type="line"/>
    </contour>
    <contour>
      <point x="336" y="1059" type="line"/>
      <point x="547" y="1059" type="line"/>
      <point x="498" y="805" type="line"/>
      <point x="287" y="805" type="line"/>
    </contour>
  </outline>
</glyph>
<glyph name="less" format="2">
  <advance width="1716"/>
  <unicode hex="003C"/>
  <outline>
    <contour>
      <point x="1499" y="94" type="line"/>
      <point x="1499" y="276" type="line"/>
      <point x="467" y="641" type="line"/>
      <point x="1499" y="1008" type="line"/>
      <point x="1499" y="1190" type="line"/>
      <point x="217" y="725" type="line"/>
      <point x="217" y="559" type="line"/>
    </contour>
  </outline>
</glyph>
<glyph name="equal" format="2">
  <advance width="1716"/>
  <unicode hex="003D"/>
  <outline>
    <contour>
      <point x="217" y="930" type="line"/>
      <point x="1499" y="930" type="line"/>
      <point x="1499" y="762" type="line"/>
      <point x="217" y="762" type="line"/>
    </contour>
    <contour>
      <point x="217" y="522" type="line"/>
      <point x="1499" y="522" type="line"/>
      <point x="1499" y="352" type="line"/>
      <point x="217" y="352" type="line"/>
    </contour>
  </outline>
</glyph>
<glyph name="greater" format="2">
  <advance width="1716"/>
  <unicode hex="003E"/>
  <outline>
    <contour>
      <point x="217" y="94" type="line"/>
      <point x="1499" y="559" type="line"/>
      <point x="1499" y="725" type="line"/>
      <point x="217" y="1190" type="line"/>
      <point x="217" y="1008" type="line"/>
      <point x="1247" y="641" type="line"/>
      <point x="217" y="276" type="line"/>
    </contour>
  </outline>
</glyph>
<glyph name="question" format="2">
  <advance width="1087"/>
  <unicode hex="003F"/>
  <outline>
    <contour>
      <point x="342" y="401" type="line"/>
      <point x="532" y="401" type="line"/>
      <point x="557" y="524" type="line" smooth="yes"/>
      <point x="581" y="647"/>
      <point x="603" y="688"/>
      <point x="715" y="776" type="curve" smooth="yes"/>
      <point x="819" y="860" type="line" smooth="yes"/>
      <point x="980" y="991"/>
      <point x="1047" y="1104"/>
      <point x="1047" y="1241" type="curve" smooth="yes"/>
      <point x="1047" y="1413"/>
      <point x="915" y="1520"/>
      <point x="700" y="1520" type="curve" smooth="yes"/>
      <point x="559" y="1520"/>
      <point x="425" y="1483"/>
      <point x="289" y="1407" type="curve"/>
      <point x="252" y="1219" type="line"/>
      <point x="391" y="1307"/>
      <point x="526" y="1356"/>
      <point x="633" y="1356" type="curve" smooth="yes"/>
      <point x="761" y="1356"/>
      <point x="838" y="1295"/>
      <point x="838" y="1194" type="curve" smooth="yes"/>
      <point x="838" y="1118"/>
      <point x="798" y="1054"/>
      <point x="686" y="961" type="curve" smooth="yes"/>
      <point x="580" y="872" type="line" smooth="yes"/>
      <point x="432" y="749"/>
      <point x="397" y="680"/>
      <point x="373" y="555" type="curve" smooth="yes"/>
    </contour>
    <contour>
      <point x="258" y="0" type="line"/>
      <point x="461" y="0" type="line"/>
      <point x="510" y="254" type="line"/>
      <point x="307" y="254" type="line"/>
    </contour>
  </outline>
</glyph>
<glyph name="at" format="2">
  <advance width="2048"/>
  <unicode hex="0040"/>
  <outline>
    <contour>
      <point x="1253" y="238" type="line"/>
      <point x="1184" y="164"/>
      <point x="1023" y="88"/>
      <point x="936" y="88" type="qcurve" smooth="yes"/>
      <point x="789" y="88"/>
      <point x="596" y="286"/>
      <point x="596" y="438" type="qcurve" smooth="yes"/>
      <point x="596" y="658"/>
      <point x="893" y="987"/>
      <point x="1092" y="987" type="qcurve" smooth="yes"/>
      <point x="1184" y="987"/>
      <point x="1329" y="907"/>
      <point x="1368" y="836" type="qcurve"/>
      <point x="1395" y="967" type="line"/>
      <point x="1538" y="967" type="line"/>
      <point x="1395" y="229" type="line"/>
      <point x="1572" y="257"/>
      <point x="1800" y="561"/>
      <point x="1800" y="770" type="qcurve" smooth="yes"/>
      <point x="1800" y="1003"/>
      <point x="1470" y="1298"/>
      <point x="1208" y="1298" type="qcurve" smooth="yes"/>
      <point x="1030" y="1298"/>
      <point x="698" y="1173"/>
      <point x="571" y="1059" type="qcurve"/>
      <point x="426" y="925"/>
      <point x="264" y="573"/>
      <point x="264" y="389" type="qcurve" smooth="yes"/>
      <point x="264" y="128"/>
      <point x="613" y="-213"/>
      <point x="883" y="-213" type="qcurve" smooth="yes"/>
      <point x="1012" y="-213"/>
      <point x="1262" y="-126"/>
      <point x="1399" y="-33" type="qcurve"/>
      <point x="1481" y="-147" type="line"/>
      <point x="1346" y="-249"/>
      <point x="1033" y="-354"/>
      <point x="868" y="-354" type="qcurve" smooth="yes"/>
      <point x="546" y="-354"/>
      <point x="119" y="74"/>
      <point x="119" y="401" type="qcurve" smooth="yes"/>
      <point x="119" y="626"/>
      <point x="328" y="1047"/>
      <point x="516" y="1200" type="qcurve" smooth="yes"/>
      <point x="655" y="1314"/>
      <point x="1015" y="1440"/>
      <point x="1204" y="1440" type="qcurve" smooth="yes"/>
      <point x="1525" y="1440"/>
      <point x="1946" y="1062"/>
      <point x="1946" y="778" type="qcurve" smooth="yes"/>
      <point x="1946" y="483"/>
      <point x="1539" y="90"/>
      <point x="1223" y="84" type="qcurve"/>
    </contour>
    <contour>
      <point x="1094" y="846" type="qcurve" smooth="yes"/>
      <point x="953" y="846"/>
      <point x="756" y="623"/>
      <point x="756" y="467" type="qcurve" smooth="yes"/>
      <point x="756" y="355"/>
      <point x="870" y="229"/>
      <point x="971" y="229" type="qcurve" smooth="yes"/>
      <point x="1113" y="229"/>
      <point x="1305" y="457"/>
      <point x="1305" y="623" type="qcurve" smooth="yes"/>
      <point x="1305" y="725"/>
      <point x="1190" y="846"/>
    </contour>
  </outline>
</glyph>
<glyph name="A" format="2">
  <advance width="1401"/>
  <unicode hex="0041"/>
  <anchor x="1109" y="0" name="ogonek"/>
  <anchor x="1154" y="2" name="cedilla"/>
  <anchor x="295" y="1520" name="half"/>
  <anchor x="554.896" y="0" name="below"/>
  <anchor x="861" y="1520" name="above"/>
  <outline>
    <contour>
      <point x="754" y="1493" type="line"/>
      <point x="983" y="1493" type="line"/>
      <point x="1260" y="0" type="line"/>
      <point x="1049" y="0" type="line"/>
      <point x="987" y="383" type="line"/>
      <point x="315" y="383" type="line"/>
      <point x="104" y="0" type="line"/>
      <point x="-109" y="0" type="line"/>
    </contour>
    <contour>
      <point x="827" y="1294" type="line"/>
      <point x="408" y="551" type="line"/>
      <point x="956" y="551" type="line"/>
    </contour>
  </outline>
</glyph>
<glyph name="B" format="2">
  <advance width="1405"/>
  <unicode hex="0042"/>
  <anchor x="295" y="1520" name="half"/>
  <anchor x="850" y="1520" name="above"/>
  <anchor x="555" y="0" name="below"/>
  <outline>
    <contour>
      <point x="346" y="1493" type="line"/>
      <point x="862" y="1493" type="line" smooth="yes"/>
      <point x="1072" y="1493"/>
      <point x="1280" y="1337"/>
      <point x="1280" y="1180" type="qcurve" smooth="yes"/>
      <point x="1280" y="1036"/>
      <point x="1101" y="827"/>
      <point x="956" y="805" type="qcurve"/>
      <point x="1080" y="777"/>
      <point x="1204" y="619"/>
      <point x="1204" y="487" type="qcurve" smooth="yes"/>
      <point x="1204" y="262"/>
      <point x="871" y="0"/>
      <point x="582" y="0" type="qcurve" smooth="yes"/>
      <point x="55" y="0" type="line"/>
    </contour>
    <contour>
      <point x="395" y="713" type="line"/>
      <point x="289" y="166" type="line"/>
      <point x="614" y="166" type="line" smooth="yes"/>
      <point x="797" y="166"/>
      <point x="995" y="334"/>
      <point x="995" y="487" type="qcurve" smooth="yes"/>
      <point x="995" y="605"/>
      <point x="864" y="713"/>
      <point x="719" y="713" type="qcurve" smooth="yes"/>
    </contour>
    <contour>
      <point x="514" y="1327" type="line"/>
      <point x="426" y="877" type="line"/>
      <point x="727" y="877" type="line" smooth="yes"/>
      <point x="888" y="877"/>
      <point x="1069" y="1017"/>
      <point x="1069" y="1141" type="qcurve" smooth="yes"/>
      <point x="1069" y="1238"/>
      <point x="947" y="1327"/>
      <point x="813" y="1327" type="qcurve" smooth="yes"/>
    </contour>
  </outline>
</glyph>
<glyph name="C" format="2">
  <advance width="1430"/>
  <unicode hex="0043"/>
  <anchor x="700" y="0" name="below"/>
  <anchor x="295" y="1520" name="half"/>
  <anchor x="979" y="1520" name="above"/>
  <outline>
    <contour>
      <point x="696" y="-29" type="curve" smooth="yes"/>
      <point x="859" y="-29"/>
      <point x="1021" y="6"/>
      <point x="1180" y="74" type="curve"/>
      <point x="1227" y="313" type="line"/>
      <point x="1066" y="194"/>
      <point x="896" y="135"/>
      <point x="711" y="135" type="curve" smooth="yes"/>
      <point x="443" y="135"/>
      <point x="299" y="281"/>
      <point x="299" y="553" type="curve" smooth="yes"/>
      <point x="299" y="716"/>
      <point x="342" y="880"/>
      <point x="422" y="1024" type="curve" smooth="yes"/>
      <point x="547" y="1248"/>
      <point x="718" y="1356"/>
      <point x="946" y="1356" type="curve" smooth="yes"/>
      <point x="1113" y="1356"/>
      <point x="1254" y="1294"/>
      <point x="1382" y="1165" type="curve"/>
      <point x="1423" y="1378" type="line"/>
      <point x="1291" y="1473"/>
      <point x="1138" y="1520"/>
      <point x="967" y="1520" type="curve" smooth="yes"/>
      <point x="690" y="1520"/>
      <point x="487" y="1426"/>
      <point x="324" y="1225" type="curve" smooth="yes"/>
      <point x="171" y="1036"/>
      <point x="86" y="798"/>
      <point x="86" y="561" type="curve" smooth="yes"/>
      <point x="86" y="190"/>
      <point x="313" y="-29"/>
    </contour>
  </outline>
</glyph>
<glyph name="D" format="2">
  <advance width="1577"/>
  <unicode hex="0044"/>
  <anchor x="433" y="0" name="cedilla"/>
  <anchor x="433" y="0" name="ogonek"/>
  <anchor x="295" y="1520" name="half"/>
  <anchor x="603" y="0" name="below"/>
  <anchor x="867" y="1520" name="above"/>
  <outline>
    <contour>
      <point x="55" y="0" type="line"/>
      <point x="492" y="0" type="line" smooth="yes"/>
      <point x="825" y="0"/>
      <point x="1068" y="81"/>
      <point x="1227" y="246" type="curve" smooth="yes"/>
      <point x="1384" y="407"/>
      <point x="1479" y="656"/>
      <point x="1479" y="911" type="curve" smooth="yes"/>
      <point x="1479" y="1296"/>
      <point x="1241" y="1493"/>
      <point x="780" y="1493" type="curve" smooth="yes"/>
      <point x="346" y="1493" type="line"/>
    </contour>
    <contour>
      <point x="291" y="166" type="line"/>
      <point x="516" y="1327" type="line"/>
      <point x="770" y="1327" type="line" smooth="yes"/>
      <point x="1111" y="1327"/>
      <point x="1266" y="1198"/>
      <point x="1266" y="911" type="curve" smooth="yes"/>
      <point x="1266" y="438"/>
      <point x="1007" y="166"/>
      <point x="555" y="166" type="curve" smooth="yes"/>
    </contour>
  </outline>
</glyph>
<glyph name="E" format="2">
  <advance width="1294"/>
  <unicode hex="0045"/>
  <anchor x="603" y="0" name="cedilla"/>
  <anchor x="764" y="0" name="ogonek"/>
  <anchor x="295" y="1520" name="half"/>
  <anchor x="603" y="0" name="below"/>
  <anchor x="804" y="1520" name="above"/>
  <outline>
    <contour>
      <point x="55" y="0" type="line"/>
      <point x="1018" y="0" type="line"/>
      <point x="1051" y="170" type="line"/>
      <point x="291" y="170" type="line"/>
      <point x="395" y="711" type="line"/>
      <point x="1108" y="711" type="line"/>
      <point x="1141" y="881" type="line"/>
      <point x="428" y="881" type="line"/>
      <point x="514" y="1323" type="line"/>
      <point x="1257" y="1323" type="line"/>
      <point x="1290" y="1493" type="line"/>
      <point x="346" y="1493" type="line"/>
    </contour>
  </outline>
</glyph>
<glyph name="F" format="2">
  <advance width="1178"/>
  <unicode hex="0046"/>
  <anchor x="820" y="1520" name="above"/>
  <anchor x="295" y="1520" name="half"/>
  <anchor x="525" y="0" name="below"/>
  <outline>
    <contour>
      <point x="55" y="0" type="line"/>
      <point x="256" y="0" type="line"/>
      <point x="395" y="713" type="line"/>
      <point x="987" y="713" type="line"/>
      <point x="1020" y="883" type="line"/>
      <point x="428" y="883" type="line"/>
      <point x="514" y="1323" type="line"/>
      <point x="1169" y="1323" type="line"/>
      <point x="1202" y="1493" type="line"/>
      <point x="346" y="1493" type="line"/>
    </contour>
  </outline>
</glyph>
<glyph name="G" format="2">
  <advance width="1587"/>
  <unicode hex="0047"/>
  <anchor x="716" y="0" name="below"/>
  <anchor x="295" y="1520" name="half"/>
  <anchor x="983" y="1520" name="above"/>
  <outline>
    <contour>
      <point x="690" y="-29" type="curve" smooth="yes"/>
      <point x="902" y="-29"/>
      <point x="1119" y="26"/>
      <point x="1296" y="123" type="curve"/>
      <point x="1425" y="780" type="line"/>
      <point x="895" y="780" type="line"/>
      <point x="864" y="614" type="line"/>
      <point x="1196" y="614" type="line"/>
      <point x="1118" y="223" type="line"/>
      <point x="1007" y="166"/>
      <point x="872" y="135"/>
      <point x="731" y="135" type="curve" smooth="yes"/>
      <point x="448" y="135"/>
      <point x="305" y="276"/>
      <point x="305" y="555" type="curve" smooth="yes"/>
      <point x="305" y="758"/>
      <point x="371" y="964"/>
      <point x="479" y="1108" type="curve" smooth="yes"/>
      <point x="606" y="1277"/>
      <point x="763" y="1356"/>
      <point x="975" y="1356" type="curve" smooth="yes"/>
      <point x="1158" y="1356"/>
      <point x="1324" y="1288"/>
      <point x="1444" y="1163" type="curve"/>
      <point x="1485" y="1378" type="line"/>
      <point x="1329" y="1473"/>
      <point x="1158" y="1520"/>
      <point x="971" y="1520" type="curve" smooth="yes"/>
      <point x="764" y="1520"/>
      <point x="598" y="1464"/>
      <point x="455" y="1348" type="curve" smooth="yes"/>
      <point x="228" y="1163"/>
      <point x="92" y="869"/>
      <point x="92" y="561" type="curve" smooth="yes"/>
      <point x="92" y="190"/>
      <point x="315" y="-29"/>
    </contour>
  </outline>
</glyph>
<glyph name="H" format="2">
  <advance width="1540"/>
  <unicode hex="0048"/>
  <anchor x="156" y="0" name="ogonek"/>
  <anchor x="156" y="0" name="cedilla"/>
  <anchor x="295" y="1520" name="half"/>
  <anchor x="625" y="0" name="below"/>
  <anchor x="933" y="1520" name="above"/>
  <outline>
    <contour>
      <point x="346" y="1493" type="line"/>
      <point x="549" y="1493" type="line"/>
      <point x="430" y="881" type="line"/>
      <point x="1163" y="881" type="line"/>
      <point x="1282" y="1493" type="line"/>
      <point x="1485" y="1493" type="line"/>
      <point x="1194" y="0" type="line"/>
      <point x="991" y="0" type="line"/>
      <point x="1130" y="711" type="line"/>
      <point x="397" y="711" type="line"/>
      <point x="258" y="0" type="line"/>
      <point x="55" y="0" type="line"/>
    </contour>
  </outline>
</glyph>
<glyph name="I" format="2">
  <advance width="604"/>
  <unicode hex="0049"/>
  <anchor x="199" y="0" name="ogonek"/>
  <anchor x="158" y="0" name="below"/>
  <anchor x="295" y="1520" name="half"/>
  <anchor x="447" y="1520" name="above"/>
  <outline>
    <contour>
      <point x="55" y="0" type="line"/>
      <point x="258" y="0" type="line"/>
      <point x="549" y="1493" type="line"/>
      <point x="346" y="1493" type="line"/>
    </contour>
  </outline>
</glyph>
<glyph name="J" format="2">
  <advance width="604"/>
  <unicode hex="004A"/>
  <anchor x="295" y="1520" name="half"/>
  <anchor x="113" y="-430" name="below"/>
  <anchor x="461" y="1520" name="above"/>
  <outline>
    <contour>
      <point x="342" y="1493" type="line"/>
      <point x="545" y="1493" type="line"/>
      <point x="274" y="104" type="line" smooth="yes"/>
      <point x="221" y="-167"/>
      <point x="-30" y="-410"/>
      <point x="-256" y="-410" type="qcurve" smooth="yes"/>
      <point x="-336" y="-410" type="line"/>
      <point x="-303" y="-240" type="line"/>
      <point x="-240" y="-240" type="line" smooth="yes"/>
      <point x="-105" y="-240"/>
      <point x="35" y="-86"/>
      <point x="72" y="104" type="qcurve" smooth="yes"/>
    </contour>
  </outline>
</glyph>
<glyph name="K" format="2">
  <advance width="1343"/>
  <unicode hex="004B"/>
  <anchor x="820" y="1520" name="above"/>
  <anchor x="295" y="1520" name="half"/>
  <anchor x="525" y="0" name="below"/>
  <outline>
    <contour>
      <point x="55" y="0" type="line"/>
      <point x="258" y="0" type="line"/>
      <point x="399" y="727" type="line"/>
      <point x="995" y="0" type="line"/>
      <point x="1241" y="0" type="line"/>
      <point x="592" y="780" type="line"/>
      <point x="1479" y="1493" type="line"/>
      <point x="1210" y="1493" type="line"/>
      <point x="426" y="864" type="line"/>
      <point x="549" y="1493" type="line"/>
      <point x="346" y="1493" type="line"/>
    </contour>
  </outline>
</glyph>
<glyph name="L" format="2">
  <advance width="1141"/>
  <unicode hex="004C"/>
  <anchor x="295" y="1520" name="half"/>
  <anchor x="448" y="1520" name="above"/>
  <anchor x="520" y="0" name="below"/>
  <outline>
    <contour>
      <point x="344" y="1493" type="line"/>
      <point x="547" y="1493" type="line"/>
      <point x="291" y="168" type="line"/>
      <point x="1018" y="168" type="line"/>
      <point x="985" y="0" type="line"/>
      <point x="55" y="0" type="line"/>
    </contour>
  </outline>
</glyph>
<glyph name="M" format="2">
  <advance width="1767"/>
  <unicode hex="004D"/>
  <anchor x="153" y="0" name="cedilla"/>
  <anchor x="295" y="1520" name="half"/>
  <anchor x="738" y="0" name="below"/>
  <anchor x="1033" y="1520" name="above"/>
  <outline>
    <contour>
      <point x="346" y="1493" type="line"/>
      <point x="649" y="1493" type="line"/>
      <point x="823" y="487" type="line"/>
      <point x="1401" y="1493" type="line"/>
      <point x="1712" y="1493" type="line"/>
      <point x="1421" y="0" type="line"/>
      <point x="1225" y="0" type="line"/>
      <point x="1479" y="1309" type="line"/>
      <point x="893" y="287" type="line"/>
      <point x="696" y="287" type="line"/>
      <point x="506" y="1313" type="line"/>
      <point x="252" y="0" type="line"/>
      <point x="55" y="0" type="line"/>
    </contour>
  </outline>
</glyph>
<glyph name="N" format="2">
  <advance width="1532"/>
  <unicode hex="004E"/>
  <anchor x="153" y="0" name="cedilla"/>
  <anchor x="612" y="0" name="below"/>
  <anchor x="295" y="1520" name="half"/>
  <anchor x="945" y="1520" name="above"/>
  <outline>
    <contour>
      <point x="55" y="0" type="line"/>
      <point x="252" y="0" type="line"/>
      <point x="502" y="1288" type="line"/>
      <point x="913" y="0" type="line"/>
      <point x="1186" y="0" type="line"/>
      <point x="1477" y="1493" type="line"/>
      <point x="1280" y="1493" type="line"/>
      <point x="1030" y="213" type="line"/>
      <point x="618" y="1493" type="line"/>
      <point x="346" y="1493" type="line"/>
    </contour>
  </outline>
</glyph>
<glyph name="O" format="2">
  <advance width="1612"/>
  <unicode hex="004F"/>
  <anchor x="662" y="0" name="cedilla"/>
  <anchor x="662" y="0" name="ogonek"/>
  <anchor x="295" y="1520" name="half"/>
  <anchor x="662" y="0" name="below"/>
  <anchor x="984" y="1520" name="above"/>
  <outline>
    <contour>
      <point x="672" y="-29" type="curve" smooth="yes"/>
      <point x="924" y="-29"/>
      <point x="1127" y="71"/>
      <point x="1298" y="279" type="curve" smooth="yes"/>
      <point x="1447" y="459"/>
      <point x="1530" y="689"/>
      <point x="1530" y="918" type="curve" smooth="yes"/>
      <point x="1530" y="1290"/>
      <point x="1305" y="1520"/>
      <point x="940" y="1520" type="curve" smooth="yes"/>
      <point x="689" y="1520"/>
      <point x="482" y="1419"/>
      <point x="313" y="1212" type="curve" smooth="yes"/>
      <point x="169" y="1036"/>
      <point x="82" y="796"/>
      <point x="82" y="580" type="curve" smooth="yes"/>
      <point x="82" y="203"/>
      <point x="305" y="-29"/>
    </contour>
    <contour>
      <point x="678" y="135" type="curve" smooth="yes"/>
      <point x="435" y="135"/>
      <point x="297" y="292"/>
      <point x="297" y="569" type="curve" smooth="yes"/>
      <point x="297" y="729"/>
      <point x="340" y="890"/>
      <point x="420" y="1030" type="curve" smooth="yes"/>
      <point x="545" y="1250"/>
      <point x="713" y="1356"/>
      <point x="934" y="1356" type="curve" smooth="yes"/>
      <point x="1175" y="1356"/>
      <point x="1315" y="1198"/>
      <point x="1315" y="922" type="curve" smooth="yes"/>
      <point x="1315" y="765"/>
      <point x="1271" y="603"/>
      <point x="1190" y="459" type="curve" smooth="yes"/>
      <point x="1069" y="244"/>
      <point x="897" y="135"/>
    </contour>
  </outline>
</glyph>
<glyph name="P" format="2">
  <advance width="1235"/>
  <unicode hex="0050"/>
  <anchor x="820" y="1520" name="above"/>
  <anchor x="295" y="1520" name="half"/>
  <anchor x="525" y="0" name="below"/>
  <outline>
    <contour>
      <point x="55" y="0" type="line"/>
      <point x="258" y="0" type="line"/>
      <point x="375" y="600" type="line"/>
      <point x="629" y="600" type="line" smooth="yes"/>
      <point x="1010" y="600"/>
      <point x="1231" y="792"/>
      <point x="1231" y="1120" type="curve" smooth="yes"/>
      <point x="1231" y="1364"/>
      <point x="1085" y="1493"/>
      <point x="813" y="1493" type="curve" smooth="yes"/>
      <point x="346" y="1493" type="line"/>
    </contour>
    <contour>
      <point x="408" y="766" type="line"/>
      <point x="516" y="1327" type="line"/>
      <point x="780" y="1327" type="line" smooth="yes"/>
      <point x="931" y="1327"/>
      <point x="1018" y="1246"/>
      <point x="1018" y="1106" type="curve" smooth="yes"/>
      <point x="1018" y="887"/>
      <point x="891" y="766"/>
      <point x="662" y="766" type="curve" smooth="yes"/>
    </contour>
  </outline>
</glyph>
<glyph name="Q" format="2">
  <advance width="1612"/>
  <unicode hex="0051"/>
  <anchor x="980" y="1520" name="above"/>
  <anchor x="295" y="1520" name="half"/>
  <anchor x="685" y="0" name="below"/>
  <outline>
    <contour>
      <point x="911" y="-264" type="line"/>
      <point x="1137" y="-264" type="line"/>
      <point x="934" y="14" type="line"/>
      <point x="1289" y="151"/>
      <point x="1530" y="517"/>
      <point x="1530" y="918" type="curve" smooth="yes"/>
      <point x="1530" y="1290"/>
      <point x="1305" y="1520"/>
      <point x="940" y="1520" type="curve" smooth="yes"/>
      <point x="688" y="1520"/>
      <point x="480" y="1417"/>
      <point x="313" y="1212" type="curve" smooth="yes"/>
      <point x="169" y="1033"/>
      <point x="84" y="798"/>
      <point x="84" y="575" type="curve" smooth="yes"/>
      <point x="84" y="198"/>
      <point x="307" y="-29"/>
      <point x="680" y="-29" type="curve" smooth="yes"/>
      <point x="712" y="-29"/>
      <point x="724" y="-28"/>
      <point x="739" y="-27" type="curve"/>
    </contour>
    <contour>
      <point x="678" y="135" type="curve" smooth="yes"/>
      <point x="435" y="135"/>
      <point x="297" y="292"/>
      <point x="297" y="569" type="curve" smooth="yes"/>
      <point x="297" y="729"/>
      <point x="340" y="890"/>
      <point x="420" y="1030" type="curve" smooth="yes"/>
      <point x="545" y="1250"/>
      <point x="713" y="1356"/>
      <point x="934" y="1356" type="curve" smooth="yes"/>
      <point x="1175" y="1356"/>
      <point x="1315" y="1198"/>
      <point x="1315" y="922" type="curve" smooth="yes"/>
      <point x="1315" y="765"/>
      <point x="1271" y="603"/>
      <point x="1190" y="459" type="curve" smooth="yes"/>
      <point x="1069" y="244"/>
      <point x="897" y="135"/>
    </contour>
  </outline>
</glyph>
<glyph name="R" format="2">
  <advance width="1423"/>
  <unicode hex="0052"/>
  <anchor x="295" y="1520" name="half"/>
  <anchor x="785" y="1520" name="above"/>
  <anchor x="492" y="0" name="below"/>
  <outline>
    <contour>
      <point x="516" y="1327" type="line"/>
      <point x="414" y="797" type="line"/>
      <point x="674" y="797" type="line" smooth="yes"/>
      <point x="827" y="797"/>
      <point x="1016" y="966"/>
      <point x="1016" y="1102" type="qcurve" smooth="yes"/>
      <point x="1016" y="1211"/>
      <point x="889" y="1327"/>
      <point x="770" y="1327" type="qcurve" smooth="yes"/>
    </contour>
    <contour>
      <point x="887" y="717" type="qcurve"/>
      <point x="951" y="702"/>
      <point x="1036" y="584"/>
      <point x="1092" y="408" type="qcurve"/>
      <point x="1219" y="0" type="line"/>
      <point x="1006" y="0" type="line"/>
      <point x="889" y="383" type="line" smooth="yes"/>
      <point x="844" y="531"/>
      <point x="726" y="631"/>
      <point x="604" y="631" type="qcurve" smooth="yes"/>
      <point x="381" y="631" type="line"/>
      <point x="258" y="0" type="line"/>
      <point x="55" y="0" type="line"/>
      <point x="346" y="1493" type="line"/>
      <point x="801" y="1493" type="line" smooth="yes"/>
      <point x="1008" y="1493"/>
      <point x="1229" y="1306"/>
      <point x="1229" y="1130" type="qcurve" smooth="yes"/>
      <point x="1229" y="974"/>
      <point x="1041" y="746"/>
    </contour>
  </outline>
</glyph>
<glyph name="S" format="2">
  <advance width="1300"/>
  <unicode hex="0053"/>
  <anchor x="514" y="0" name="below"/>
  <anchor x="295" y="1520" name="half"/>
  <anchor x="796" y="1520" name="above"/>
  <outline>
    <contour>
      <point x="492" y="-29" type="curve" smooth="yes"/>
      <point x="879" y="-29"/>
      <point x="1137" y="180"/>
      <point x="1137" y="481" type="curve" smooth="yes"/>
      <point x="1137" y="677"/>
      <point x="1045" y="773"/>
      <point x="772" y="844" type="curve" smooth="yes"/>
      <point x="651" y="874" type="line" smooth="yes"/>
      <point x="542" y="903"/>
      <point x="474" y="931"/>
      <point x="448" y="957" type="curve" smooth="yes"/>
      <point x="421" y="982"/>
      <point x="408" y="1019"/>
      <point x="408" y="1067" type="curve" smooth="yes"/>
      <point x="408" y="1242"/>
      <point x="562" y="1356"/>
      <point x="803" y="1356" type="curve" smooth="yes"/>
      <point x="927" y="1356"/>
      <point x="1061" y="1319"/>
      <point x="1196" y="1247" type="curve"/>
      <point x="1235" y="1444" type="line"/>
      <point x="1095" y="1495"/>
      <point x="956" y="1520"/>
      <point x="813" y="1520" type="curve" smooth="yes"/>
      <point x="446" y="1520"/>
      <point x="195" y="1309"/>
      <point x="195" y="1012" type="curve" smooth="yes"/>
      <point x="195" y="843"/>
      <point x="277" y="762"/>
      <point x="553" y="690" type="curve" smooth="yes"/>
      <point x="674" y="659" type="line" smooth="yes"/>
      <point x="874" y="608"/>
      <point x="915" y="558"/>
      <point x="915" y="438" type="curve" smooth="yes"/>
      <point x="915" y="258"/>
      <point x="750" y="135"/>
      <point x="498" y="135" type="curve" smooth="yes"/>
      <point x="350" y="135"/>
      <point x="201" y="182"/>
      <point x="53" y="274" type="curve"/>
      <point x="12" y="66" type="line"/>
      <point x="173" y="2"/>
      <point x="333" y="-29"/>
    </contour>
  </outline>
</glyph>
<glyph name="T" format="2">
  <advance width="1251"/>
  <unicode hex="0054"/>
  <anchor x="482" y="0" name="below"/>
  <anchor x="295" y="1520" name="half"/>
  <anchor x="771" y="1520" name="above"/>
  <outline>
    <contour>
      <point x="360" y="0" type="line"/>
      <point x="563" y="0" type="line"/>
      <point x="819" y="1323" type="line"/>
      <point x="1352" y="1323" type="line"/>
      <point x="1384" y="1493" type="line"/>
      <point x="121" y="1493" type="line"/>
      <point x="88" y="1323" type="line"/>
      <point x="616" y="1323" type="line"/>
    </contour>
  </outline>
</glyph>
<glyph name="U" format="2">
  <advance width="1499"/>
  <unicode hex="0055"/>
  <anchor x="558" y="0" name="ogonek"/>
  <anchor x="295" y="1520" name="half"/>
  <anchor x="608" y="0" name="below"/>
  <anchor x="894" y="1520" name="above"/>
  <outline>
    <contour>
      <point x="317" y="1493" type="line"/>
      <point x="520" y="1493" type="line"/>
      <point x="344" y="586" type="line"/>
      <point x="333" y="525"/>
      <point x="324" y="446"/>
      <point x="324" y="416" type="qcurve" smooth="yes"/>
      <point x="324" y="278"/>
      <point x="478" y="135"/>
      <point x="627" y="135" type="qcurve" smooth="yes"/>
      <point x="820" y="135"/>
      <point x="1035" y="347"/>
      <point x="1081" y="586" type="qcurve"/>
      <point x="1257" y="1493" type="line"/>
      <point x="1460" y="1493" type="line"/>
      <point x="1280" y="561" type="line"/>
      <point x="1221" y="259"/>
      <point x="891" y="-29"/>
      <point x="604" y="-29" type="qcurve" smooth="yes"/>
      <point x="380" y="-29"/>
      <point x="119" y="196"/>
      <point x="119" y="389" type="qcurve" smooth="yes"/>
      <point x="119" y="424"/>
      <point x="129" y="511"/>
      <point x="139" y="561" type="qcurve"/>
    </contour>
  </outline>
</glyph>
<glyph name="V" format="2">
  <advance width="1401"/>
  <unicode hex="0056"/>
  <anchor x="295" y="1520" name="half"/>
  <anchor x="850" y="1520" name="above"/>
  <anchor x="555" y="0" name="below"/>
  <outline>
    <contour>
      <point x="422" y="0" type="line"/>
      <point x="160" y="1493" type="line"/>
      <point x="358" y="1493" type="line"/>
      <point x="575" y="209" type="line"/>
      <point x="1300" y="1493" type="line"/>
      <point x="1520" y="1493" type="line"/>
      <point x="657" y="0" type="line"/>
    </contour>
  </outline>
</glyph>
<glyph name="W" format="2">
  <advance width="2025"/>
  <unicode hex="0057"/>
  <anchor x="295" y="1520" name="half"/>
  <anchor x="868" y="0" name="below"/>
  <anchor x="1161" y="1520" name="above"/>
  <outline>
    <contour>
      <point x="197" y="1493" type="line"/>
      <point x="393" y="1493" type="line"/>
      <point x="465" y="223" type="line"/>
      <point x="1028" y="1493" type="line"/>
      <point x="1253" y="1493" type="line"/>
      <point x="1327" y="223" type="line"/>
      <point x="1884" y="1493" type="line"/>
      <point x="2089" y="1493" type="line"/>
      <point x="1425" y="0" type="line"/>
      <point x="1171" y="0" type="line"/>
      <point x="1102" y="1245" type="line"/>
      <point x="543" y="0" type="line"/>
      <point x="289" y="0" type="line"/>
    </contour>
  </outline>
</glyph>
<glyph name="X" format="2">
  <advance width="1403"/>
  <unicode hex="0058"/>
  <anchor x="867" y="1520" name="above"/>
  <anchor x="295" y="1520" name="half"/>
  <anchor x="572" y="0" name="below"/>
  <outline>
    <contour>
      <point x="-88" y="0" type="line"/>
      <point x="147" y="0" type="line"/>
      <point x="692" y="629" type="line"/>
      <point x="993" y="0" type="line"/>
      <point x="1196" y="0" type="line"/>
      <point x="825" y="780" type="line"/>
      <point x="1440" y="1493" type="line"/>
      <point x="1204" y="1493" type="line"/>
      <point x="741" y="954" type="line"/>
      <point x="485" y="1493" type="line"/>
      <point x="281" y="1493" type="line"/>
      <point x="610" y="803" type="line"/>
    </contour>
  </outline>
</glyph>
<glyph name="Y" format="2">
  <advance width="1251"/>
  <unicode hex="0059"/>
  <anchor x="510" y="0" name="ogonek"/>
  <anchor x="481" y="0" name="below"/>
  <anchor x="295" y="1520" name="half"/>
  <anchor x="767" y="1520" name="above"/>
  <outline>
    <contour>
      <point x="367" y="0" type="line"/>
      <point x="569" y="0" type="line"/>
      <point x="707" y="711" type="line"/>
      <point x="1384" y="1493" type="line"/>
      <point x="1157" y="1493" type="line"/>
      <point x="625" y="879" type="line"/>
      <point x="346" y="1493" type="line"/>
      <point x="129" y="1493" type="line"/>
      <point x="504" y="711" type="line"/>
    </contour>
  </outline>
</glyph>
<glyph name="Z" format="2">
  <advance width="1403"/>
  <unicode hex="005A"/>
  <anchor x="556" y="0" name="cedilla"/>
  <anchor x="556" y="0" name="ogonek"/>
  <anchor x="295" y="1520" name="half"/>
  <anchor x="556" y="0" name="below"/>
  <anchor x="847" y="1520" name="above"/>
  <outline>
    <contour>
      <point x="268" y="1493" type="line"/>
      <point x="1440" y="1493" type="line"/>
      <point x="1411" y="1339" type="line"/>
      <point x="254" y="170" type="line"/>
      <point x="1206" y="170" type="line"/>
      <point x="1174" y="0" type="line"/>
      <point x="-45" y="0" type="line"/>
      <point x="-16" y="154" type="line"/>
      <point x="1141" y="1323" type="line"/>
      <point x="236" y="1323" type="line"/>
    </contour>
  </outline>
</glyph>
<glyph name="bracketleft" format="2">
  <advance width="799"/>
  <unicode hex="005B"/>
  <outline>
    <contour>
      <point x="82" y="-270" type="line"/>
      <point x="506" y="-270" type="line"/>
      <point x="532" y="-127" type="line"/>
      <point x="293" y="-127" type="line"/>
      <point x="592" y="1413" type="line"/>
      <point x="831" y="1413" type="line"/>
      <point x="860" y="1556" type="line"/>
      <point x="436" y="1556" type="line"/>
    </contour>
  </outline>
</glyph>
<glyph name="backslash" format="2">
  <advance width="690"/>
  <unicode hex="005C"/>
  <outline>
    <contour>
      <point x="344" y="1493" type="line"/>
      <point x="537" y="-190" type="line"/>
      <point x="369" y="-190" type="line"/>
      <point x="174" y="1493" type="line"/>
    </contour>
  </outline>
</glyph>
<glyph name="bracketright" format="2">
  <advance width="799"/>
  <unicode hex="005D"/>
  <outline>
    <contour>
      <point x="700" y="1556" type="line"/>
      <point x="346" y="-270" type="line"/>
      <point x="-78" y="-270" type="line"/>
      <point x="-51" y="-127" type="line"/>
      <point x="188" y="-127" type="line"/>
      <point x="487" y="1413" type="line"/>
      <point x="250" y="1413" type="line"/>
      <point x="276" y="1556" type="line"/>
    </contour>
  </outline>
</glyph>
<glyph name="asciicircum" format="2">
  <advance width="1716"/>
  <unicode hex="005E"/>
  <outline>
    <contour>
      <point x="956" y="1493" type="line"/>
      <point x="1499" y="936" type="line"/>
      <point x="1298" y="936" type="line"/>
      <point x="858" y="1331" type="line"/>
      <point x="418" y="936" type="line"/>
      <point x="217" y="936" type="line"/>
      <point x="760" y="1493" type="line"/>
    </contour>
  </outline>
</glyph>
<glyph name="underscore" format="2">
  <advance width="1024"/>
  <unicode hex="005F"/>
  <outline>
    <contour>
      <point x="1044" y="-340" type="line"/>
      <point x="1044" y="-483" type="line"/>
      <point x="-20" y="-483" type="line"/>
      <point x="-20" y="-340" type="line"/>
    </contour>
  </outline>
</glyph>
<glyph name="a" format="2">
  <advance width="1255"/>
  <unicode hex="0061"/>
  <anchor x="852" y="0" name="ogonek"/>
  <anchor x="883" y="0" name="cedilla"/>
  <anchor x="295" y="1520" name="half"/>
  <anchor x="500" y="0" name="below"/>
  <anchor x="718" y="1147" name="above"/>
  <outline>
    <contour>
      <point x="410" y="-29" type="curve" smooth="yes"/>
      <point x="579" y="-29"/>
      <point x="717" y="37"/>
      <point x="825" y="170" type="curve"/>
      <point x="791" y="0" type="line"/>
      <point x="975" y="0" type="line"/>
      <point x="1100" y="639" type="line" smooth="yes"/>
      <point x="1113" y="706"/>
      <point x="1120" y="767"/>
      <point x="1120" y="811" type="curve" smooth="yes"/>
      <point x="1120" y="1030"/>
      <point x="979" y="1147"/>
      <point x="715" y="1147" type="curve" smooth="yes"/>
      <point x="591" y="1147"/>
      <point x="458" y="1121"/>
      <point x="319" y="1069" type="curve"/>
      <point x="287" y="899" type="line"/>
      <point x="420" y="960"/>
      <point x="546" y="991"/>
      <point x="666" y="991" type="curve" smooth="yes"/>
      <point x="841" y="991"/>
      <point x="942" y="922"/>
      <point x="942" y="803" type="curve" smooth="yes"/>
      <point x="942" y="776"/>
      <point x="941" y="767"/>
      <point x="938" y="756" type="curve"/>
      <point x="928" y="707" type="line"/>
      <point x="672" y="707" type="line" smooth="yes"/>
      <point x="305" y="707"/>
      <point x="84" y="544"/>
      <point x="84" y="283" type="curve" smooth="yes"/>
      <point x="84" y="100"/>
      <point x="219" y="-29"/>
    </contour>
    <contour>
      <point x="483" y="127" type="curve" smooth="yes"/>
      <point x="352" y="127"/>
      <point x="274" y="198"/>
      <point x="274" y="315" type="curve" smooth="yes"/>
      <point x="274" y="484"/>
      <point x="416" y="563"/>
      <point x="717" y="563" type="curve" smooth="yes"/>
      <point x="901" y="563" type="line"/>
      <point x="893" y="522" type="line" smooth="yes"/>
      <point x="845" y="282"/>
      <point x="683" y="127"/>
    </contour>
  </outline>
</glyph>
<glyph name="b" format="2">
  <advance width="1300"/>
  <unicode hex="0062"/>
  <anchor x="295" y="1520" name="half"/>
  <anchor x="465" y="1520" name="above"/>
  <anchor x="587" y="0" name="below"/>
  <outline>
    <contour>
      <point x="1014" y="684" type="qcurve" smooth="yes"/>
      <point x="1014" y="829"/>
      <point x="881" y="993"/>
      <point x="764" y="993" type="qcurve" smooth="yes"/>
      <point x="679" y="993"/>
      <point x="530" y="910"/>
      <point x="475" y="831" type="qcurve" smooth="yes"/>
      <point x="417" y="748"/>
      <point x="350" y="529"/>
      <point x="350" y="420" type="qcurve" smooth="yes"/>
      <point x="350" y="282"/>
      <point x="481" y="125"/>
      <point x="596" y="125" type="qcurve" smooth="yes"/>
      <point x="683" y="125"/>
      <point x="831" y="206"/>
      <point x="887" y="285" type="qcurve" smooth="yes"/>
      <point x="944" y="367"/>
      <point x="1014" y="585"/>
    </contour>
    <contour>
      <point x="442" y="950" type="line"/>
      <point x="510" y="1042"/>
      <point x="715" y="1147"/>
      <point x="827" y="1147" type="qcurve" smooth="yes"/>
      <point x="999" y="1147"/>
      <point x="1202" y="915"/>
      <point x="1202" y="717" type="qcurve" smooth="yes"/>
      <point x="1202" y="555"/>
      <point x="1083" y="251"/>
      <point x="973" y="133" type="qcurve" smooth="yes"/>
      <point x="901" y="55"/>
      <point x="713" y="-29"/>
      <point x="610" y="-29" type="qcurve" smooth="yes"/>
      <point x="501" y="-29"/>
      <point x="341" y="71"/>
      <point x="291" y="170" type="qcurve"/>
      <point x="258" y="0" type="line"/>
      <point x="74" y="0" type="line"/>
      <point x="377" y="1556" type="line"/>
      <point x="561" y="1556" type="line"/>
    </contour>
  </outline>
</glyph>
<glyph name="c" format="2">
  <advance width="1126"/>
  <unicode hex="0063"/>
  <anchor x="562" y="0" name="below"/>
  <anchor x="295" y="1520" name="half"/>
  <anchor x="770" y="1147" name="above"/>
  <outline>
    <contour>
      <point x="557" y="-29" type="curve" smooth="yes"/>
      <point x="676" y="-29"/>
      <point x="788" y="-7"/>
      <point x="895" y="37" type="curve"/>
      <point x="930" y="219" type="line"/>
      <point x="806" y="158"/>
      <point x="691" y="127"/>
      <point x="590" y="127" type="curve" smooth="yes"/>
      <point x="385" y="127"/>
      <point x="285" y="225"/>
      <point x="285" y="426" type="curve" smooth="yes"/>
      <point x="285" y="593"/>
      <point x="350" y="756"/>
      <point x="465" y="872" type="curve" smooth="yes"/>
      <point x="537" y="948"/>
      <point x="649" y="991"/>
      <point x="766" y="991" type="curve" smooth="yes"/>
      <point x="873" y="991"/>
      <point x="973" y="959"/>
      <point x="1061" y="895" type="curve"/>
      <point x="1098" y="1077" type="line"/>
      <point x="991" y="1124"/>
      <point x="890" y="1147"/>
      <point x="786" y="1147" type="curve" smooth="yes"/>
      <point x="607" y="1147"/>
      <point x="454" y="1092"/>
      <point x="342" y="985" type="curve" smooth="yes"/>
      <point x="178" y="829"/>
      <point x="94" y="633"/>
      <point x="94" y="401" type="curve" smooth="yes"/>
      <point x="94" y="125"/>
      <point x="260" y="-29"/>
    </contour>
  </outline>
</glyph>
<glyph name="d" format="2">
  <advance width="1300"/>
  <unicode hex="0064"/>
  <anchor x="494" y="0" name="cedilla"/>
  <anchor x="947" y="0" name="ogonek"/>
  <anchor x="295" y="1520" name="half"/>
  <anchor x="1209" y="1520" name="above"/>
  <anchor x="494" y="0" name="below"/>
  <outline>
    <contour>
      <point x="457" y="-29" type="curve" smooth="yes"/>
      <point x="621" y="-29"/>
      <point x="757" y="39"/>
      <point x="856" y="168" type="curve"/>
      <point x="821" y="0" type="line"/>
      <point x="1006" y="0" type="line"/>
      <point x="1309" y="1556" type="line"/>
      <point x="1124" y="1556" type="line"/>
      <point x="1004" y="946" type="line"/>
      <point x="944" y="1075"/>
      <point x="830" y="1147"/>
      <point x="686" y="1147" type="curve" smooth="yes"/>
      <point x="550" y="1147"/>
      <point x="423" y="1090"/>
      <point x="324" y="985" type="curve" smooth="yes"/>
      <point x="175" y="826"/>
      <point x="94" y="620"/>
      <point x="94" y="399" type="curve" smooth="yes"/>
      <point x="94" y="134"/>
      <point x="233" y="-29"/>
    </contour>
    <contour>
      <point x="532" y="125" type="curve" smooth="yes"/>
      <point x="377" y="125"/>
      <point x="285" y="239"/>
      <point x="285" y="432" type="curve" smooth="yes"/>
      <point x="285" y="567"/>
      <point x="335" y="725"/>
      <point x="412" y="836" type="curve" smooth="yes"/>
      <point x="483" y="939"/>
      <point x="586" y="995"/>
      <point x="702" y="995" type="curve" smooth="yes"/>
      <point x="855" y="995"/>
      <point x="948" y="885"/>
      <point x="948" y="700" type="curve" smooth="yes"/>
      <point x="948" y="557"/>
      <point x="900" y="401"/>
      <point x="821" y="289" type="curve" smooth="yes"/>
      <point x="746" y="181"/>
      <point x="647" y="125"/>
    </contour>
  </outline>
</glyph>
<glyph name="e" format="2">
  <advance width="1260"/>
  <unicode hex="0065"/>
  <anchor x="536" y="0" name="cedilla"/>
  <anchor x="771" y="0" name="ogonek"/>
  <anchor x="295" y="1520" name="half"/>
  <anchor x="536" y="0" name="below"/>
  <anchor x="729" y="1147" name="above"/>
  <outline>
    <contour>
      <point x="578" y="-29" type="curve" smooth="yes"/>
      <point x="723" y="-29"/>
      <point x="865" y="-2"/>
      <point x="997" y="51" type="curve"/>
      <point x="1032" y="233" type="line"/>
      <point x="909" y="164"/>
      <point x="766" y="127"/>
      <point x="606" y="127" type="curve" smooth="yes"/>
      <point x="398" y="127"/>
      <point x="279" y="233"/>
      <point x="279" y="418" type="curve" smooth="yes"/>
      <point x="279" y="439"/>
      <point x="281" y="465"/>
      <point x="289" y="516" type="curve"/>
      <point x="1145" y="516" type="line"/>
      <point x="1161" y="596"/>
      <point x="1169" y="666"/>
      <point x="1169" y="727" type="curve" smooth="yes"/>
      <point x="1169" y="983"/>
      <point x="1007" y="1147"/>
      <point x="754" y="1147" type="curve" smooth="yes"/>
      <point x="593" y="1147"/>
      <point x="444" y="1092"/>
      <point x="340" y="993" type="curve" smooth="yes"/>
      <point x="179" y="836"/>
      <point x="94" y="632"/>
      <point x="94" y="399" type="curve" smooth="yes"/>
      <point x="94" y="126"/>
      <point x="267" y="-29"/>
    </contour>
    <contour>
      <point x="324" y="659" type="line"/>
      <point x="396" y="871"/>
      <point x="542" y="991"/>
      <point x="725" y="991" type="curve" smooth="yes"/>
      <point x="889" y="991"/>
      <point x="991" y="890"/>
      <point x="991" y="727" type="curve" smooth="yes"/>
      <point x="991" y="704"/>
      <point x="989" y="681"/>
      <point x="985" y="660" type="curve"/>
    </contour>
  </outline>
</glyph>
<glyph name="f" format="2">
  <advance width="721"/>
  <unicode hex="0066"/>
  <anchor x="295" y="1520" name="half"/>
  <anchor x="627" y="1520" name="above"/>
  <anchor x="232" y="0" name="below"/>
  <outline>
    <contour>
      <point x="979" y="1556" type="line"/>
      <point x="950" y="1403" type="line"/>
      <point x="774" y="1403" type="line" smooth="yes"/>
      <point x="674" y="1403"/>
      <point x="583" y="1324"/>
      <point x="561" y="1219" type="qcurve"/>
      <point x="541" y="1120" type="line"/>
      <point x="844" y="1120" type="line"/>
      <point x="817" y="977" type="line"/>
      <point x="514" y="977" type="line"/>
      <point x="324" y="0" type="line"/>
      <point x="139" y="0" type="line"/>
      <point x="330" y="977" type="line"/>
      <point x="154" y="977" type="line"/>
      <point x="180" y="1120" type="line"/>
      <point x="356" y="1120" type="line"/>
      <point x="371" y="1198" type="line" smooth="yes"/>
      <point x="409" y="1396"/>
      <point x="600" y="1556"/>
      <point x="805" y="1556" type="qcurve" smooth="yes"/>
    </contour>
  </outline>
</glyph>
<glyph name="g" format="2">
  <advance width="1300"/>
  <unicode hex="0067"/>
  <anchor x="498" y="-430" name="below"/>
  <anchor x="295" y="1520" name="half"/>
  <anchor x="757" y="1147" name="above"/>
  <outline>
    <contour>
      <point x="401" y="-426" type="curve" smooth="yes"/>
      <point x="752" y="-426"/>
      <point x="957" y="-241"/>
      <point x="1030" y="139" type="curve" smooth="yes"/>
      <point x="1221" y="1120" type="line"/>
      <point x="1036" y="1120" type="line"/>
      <point x="1004" y="946" type="line"/>
      <point x="949" y="1074"/>
      <point x="833" y="1147"/>
      <point x="682" y="1147" type="curve" smooth="yes"/>
      <point x="545" y="1147"/>
      <point x="414" y="1090"/>
      <point x="319" y="989" type="curve" smooth="yes"/>
      <point x="176" y="836"/>
      <point x="94" y="629"/>
      <point x="94" y="422" type="curve" smooth="yes"/>
      <point x="94" y="159"/>
      <point x="232" y="0"/>
      <point x="459" y="0" type="curve" smooth="yes"/>
      <point x="616" y="0"/>
      <point x="755" y="63"/>
      <point x="858" y="180" type="curve"/>
      <point x="842" y="96" type="line" smooth="yes"/>
      <point x="794" y="-143"/>
      <point x="639" y="-274"/>
      <point x="406" y="-274" type="curve" smooth="yes"/>
      <point x="291" y="-274"/>
      <point x="191" y="-247"/>
      <point x="100" y="-188" type="curve"/>
      <point x="66" y="-367" type="line"/>
      <point x="162" y="-407"/>
      <point x="272" y="-426"/>
    </contour>
    <contour>
      <point x="535" y="154" type="curve" smooth="yes"/>
      <point x="374" y="154"/>
      <point x="285" y="256"/>
      <point x="285" y="440" type="curve" smooth="yes"/>
      <point x="285" y="605"/>
      <point x="345" y="768"/>
      <point x="446" y="883" type="curve" smooth="yes"/>
      <point x="509" y="952"/>
      <point x="601" y="993"/>
      <point x="698" y="993" type="curve" smooth="yes"/>
      <point x="855" y="993"/>
      <point x="944" y="890"/>
      <point x="944" y="709" type="curve" smooth="yes"/>
      <point x="944" y="392"/>
      <point x="768" y="154"/>
    </contour>
  </outline>
</glyph>
<glyph name="j" format="2">
  <advance width="569"/>
  <unicode hex="006A"/>
  <anchor x="295" y="1520" name="half"/>
  <anchor x="94" y="-430" name="below"/>
  <anchor x="464" y="1583" name="above"/>
  <outline>
    <contour>
      <point x="297" y="1120" type="line"/>
      <point x="481" y="1120" type="line"/>
      <point x="260" y="-20" type="line"/>
      <point x="259" y="-25" type="line" smooth="yes"/>
      <point x="222" y="-216"/>
      <point x="174" y="-287" type="qcurve" smooth="yes"/>
      <point x="129" y="-354"/>
      <point x="-44" y="-426"/>
      <point x="-162" y="-426" type="qcurve" smooth="yes"/>
      <point x="-231" y="-426" type="line"/>
      <point x="-201" y="-270" type="line"/>
      <point x="-154" y="-270" type="line" smooth="yes"/>
      <point x="-46" y="-270"/>
      <point x="45" y="-180"/>
      <point x="76" y="-20" type="qcurve" smooth="yes"/>
    </contour>
    <contour>
      <point x="383" y="1556" type="line"/>
      <point x="567" y="1556" type="line"/>
      <point x="522" y="1323" type="line"/>
      <point x="338" y="1323" type="line"/>
    </contour>
  </outline>
</glyph>
<glyph name="k" format="2">
  <advance width="1186"/>
  <unicode hex="006B"/>
  <anchor x="295" y="1520" name="half"/>
  <anchor x="452" y="1520" name="above"/>
  <anchor x="557" y="0" name="below"/>
  <outline>
    <contour>
      <point x="375" y="1556" type="line"/>
      <point x="559" y="1556" type="line"/>
      <point x="383" y="649" type="line"/>
      <point x="1014" y="1120" type="line"/>
      <point x="1253" y="1120" type="line"/>
      <point x="549" y="584" type="line"/>
      <point x="1063" y="0" type="line"/>
      <point x="840" y="0" type="line"/>
      <point x="362" y="547" type="line"/>
      <point x="256" y="0" type="line"/>
      <point x="72" y="0" type="line"/>
    </contour>
  </outline>
</glyph>
<glyph name="l" format="2">
  <advance width="569"/>
  <unicode hex="006C"/>
  <anchor x="452" y="1520" name="above"/>
  <anchor x="295" y="1520" name="half"/>
  <anchor x="157" y="0" name="below"/>
  <outline>
    <contour>
      <point x="72" y="0" type="line"/>
      <point x="256" y="0" type="line"/>
      <point x="559" y="1556" type="line"/>
      <point x="375" y="1556" type="line"/>
    </contour>
  </outline>
</glyph>
<glyph name="m" format="2">
  <advance width="1995"/>
  <unicode hex="006D"/>
  <anchor x="164" y="0" name="cedilla"/>
  <anchor x="295" y="1520" name="half"/>
  <anchor x="1112" y="1147" name="above"/>
  <anchor x="890" y="0" name="below"/>
  <outline>
    <contour>
      <point x="1839" y="676" type="qcurve" smooth="yes"/>
      <point x="1708" y="0" type="line"/>
      <point x="1524" y="0" type="line"/>
      <point x="1653" y="670" type="line"/>
      <point x="1661" y="713"/>
      <point x="1669" y="775"/>
      <point x="1669" y="797" type="qcurve" smooth="yes"/>
      <point x="1669" y="887"/>
      <point x="1569" y="987"/>
      <point x="1479" y="987" type="qcurve" smooth="yes"/>
      <point x="1345" y="987"/>
      <point x="1135" y="786"/>
      <point x="1104" y="625" type="qcurve"/>
      <point x="981" y="0" type="line"/>
      <point x="797" y="0" type="line"/>
      <point x="928" y="670" type="line"/>
      <point x="936" y="707"/>
      <point x="944" y="770"/>
      <point x="944" y="795" type="qcurve" smooth="yes"/>
      <point x="944" y="886"/>
      <point x="844" y="987"/>
      <point x="756" y="987" type="qcurve" smooth="yes"/>
      <point x="620" y="987"/>
      <point x="410" y="786"/>
      <point x="379" y="625" type="qcurve"/>
      <point x="256" y="0" type="line"/>
      <point x="72" y="0" type="line"/>
      <point x="291" y="1120" type="line"/>
      <point x="475" y="1120" type="line"/>
      <point x="440" y="946" type="line"/>
      <point x="515" y="1044"/>
      <point x="716" y="1147"/>
      <point x="831" y="1147" type="qcurve" smooth="yes"/>
      <point x="953" y="1147"/>
      <point x="1110" y="1019"/>
      <point x="1126" y="905" type="qcurve"/>
      <point x="1210" y="1023"/>
      <point x="1431" y="1147"/>
      <point x="1554" y="1147" type="qcurve" smooth="yes"/>
      <point x="1698" y="1147"/>
      <point x="1855" y="981"/>
      <point x="1855" y="829" type="qcurve" smooth="yes"/>
      <point x="1855" y="796"/>
      <point x="1847" y="717"/>
    </contour>
  </outline>
</glyph>
<glyph name="n" format="2">
  <advance width="1298"/>
  <unicode hex="006E"/>
  <anchor x="164" y="0" name="cedilla"/>
  <anchor x="567" y="0" name="below"/>
  <anchor x="295" y="1520" name="half"/>
  <anchor x="749" y="1147" name="above"/>
  <outline>
    <contour>
      <point x="72" y="0" type="line"/>
      <point x="256" y="0" type="line"/>
      <point x="379" y="621" type="line" smooth="yes"/>
      <point x="423" y="846"/>
      <point x="577" y="987"/>
      <point x="774" y="987" type="curve" smooth="yes"/>
      <point x="901" y="987"/>
      <point x="975" y="921"/>
      <point x="975" y="809" type="curve" smooth="yes"/>
      <point x="975" y="781"/>
      <point x="968" y="732"/>
      <point x="956" y="669" type="curve" smooth="yes"/>
      <point x="825" y="0" type="line"/>
      <point x="1010" y="0" type="line"/>
      <point x="1141" y="676" type="line" smooth="yes"/>
      <point x="1153" y="740"/>
      <point x="1159" y="794"/>
      <point x="1159" y="842" type="curve" smooth="yes"/>
      <point x="1159" y="1035"/>
      <point x="1045" y="1147"/>
      <point x="848" y="1147" type="curve" smooth="yes"/>
      <point x="689" y="1147"/>
      <point x="539" y="1073"/>
      <point x="436" y="944" type="curve"/>
      <point x="473" y="1120" type="line"/>
      <point x="289" y="1120" type="line"/>
    </contour>
  </outline>
</glyph>
<glyph name="o" format="2">
  <advance width="1253"/>
  <unicode hex="006F"/>
  <anchor x="528" y="0" name="cedilla"/>
  <anchor x="528" y="0" name="ogonek"/>
  <anchor x="295" y="1520" name="half"/>
  <anchor x="528" y="0" name="below"/>
  <anchor x="733" y="1147" name="above"/>
  <outline>
    <contour>
      <point x="520" y="-29" type="curve" smooth="yes"/>
      <point x="728" y="-29"/>
      <point x="887" y="54"/>
      <point x="1018" y="233" type="curve" smooth="yes"/>
      <point x="1102" y="349"/>
      <point x="1159" y="540"/>
      <point x="1159" y="717" type="curve" smooth="yes"/>
      <point x="1159" y="973"/>
      <point x="988" y="1147"/>
      <point x="733" y="1147" type="curve" smooth="yes"/>
      <point x="528" y="1147"/>
      <point x="368" y="1064"/>
      <point x="236" y="885" type="curve" smooth="yes"/>
      <point x="152" y="770"/>
      <point x="94" y="587"/>
      <point x="94" y="424" type="curve" smooth="yes"/>
      <point x="94" y="144"/>
      <point x="257" y="-29"/>
    </contour>
    <contour>
      <point x="541" y="127" type="curve" smooth="yes"/>
      <point x="369" y="127"/>
      <point x="285" y="227"/>
      <point x="285" y="430" type="curve" smooth="yes"/>
      <point x="285" y="565"/>
      <point x="320" y="696"/>
      <point x="383" y="795" type="curve" smooth="yes"/>
      <point x="468" y="927"/>
      <point x="574" y="991"/>
      <point x="713" y="991" type="curve" smooth="yes"/>
      <point x="881" y="991"/>
      <point x="969" y="891"/>
      <point x="969" y="698" type="curve" smooth="yes"/>
      <point x="969" y="367"/>
      <point x="788" y="127"/>
    </contour>
  </outline>
</glyph>
<glyph name="p" format="2">
  <advance width="1300"/>
  <unicode hex="0070"/>
  <anchor x="830" y="1147" name="above"/>
  <anchor x="295" y="1520" name="half"/>
  <anchor x="524" y="-430" name="below"/>
  <outline>
    <contour>
      <point x="-6" y="-426" type="line"/>
      <point x="178" y="-426" type="line"/>
      <point x="293" y="168" type="line"/>
      <point x="346" y="37"/>
      <point x="455" y="-29"/>
      <point x="614" y="-29" type="curve" smooth="yes"/>
      <point x="751" y="-29"/>
      <point x="878" y="28"/>
      <point x="977" y="133" type="curve" smooth="yes"/>
      <point x="1125" y="292"/>
      <point x="1206" y="498"/>
      <point x="1206" y="719" type="curve" smooth="yes"/>
      <point x="1206" y="990"/>
      <point x="1073" y="1147"/>
      <point x="844" y="1147" type="curve" smooth="yes"/>
      <point x="680" y="1147"/>
      <point x="545" y="1079"/>
      <point x="446" y="950" type="curve"/>
      <point x="479" y="1120" type="line"/>
      <point x="295" y="1120" type="line"/>
    </contour>
    <contour>
      <point x="600" y="125" type="curve" smooth="yes"/>
      <point x="443" y="125"/>
      <point x="354" y="229"/>
      <point x="354" y="416" type="curve" smooth="yes"/>
      <point x="354" y="563"/>
      <point x="403" y="724"/>
      <point x="479" y="829" type="curve" smooth="yes"/>
      <point x="556" y="936"/>
      <point x="659" y="993"/>
      <point x="768" y="993" type="curve" smooth="yes"/>
      <point x="928" y="993"/>
      <point x="1016" y="886"/>
      <point x="1016" y="690" type="curve" smooth="yes"/>
      <point x="1016" y="555"/>
      <point x="965" y="394"/>
      <point x="889" y="285" type="curve" smooth="yes"/>
      <point x="818" y="181"/>
      <point x="716" y="125"/>
    </contour>
  </outline>
</glyph>
<glyph name="q" format="2">
  <advance width="1300"/>
  <unicode hex="0071"/>
  <anchor x="775" y="1147" name="above"/>
  <anchor x="295" y="1520" name="half"/>
  <anchor x="494" y="-430" name="below"/>
  <outline>
    <contour>
      <point x="739" y="-422" type="line"/>
      <point x="924" y="-422" type="line"/>
      <point x="1223" y="1118" type="line"/>
      <point x="1038" y="1118" type="line"/>
      <point x="1006" y="950" type="line"/>
      <point x="958" y="1082"/>
      <point x="851" y="1147"/>
      <point x="686" y="1147" type="curve" smooth="yes"/>
      <point x="549" y="1147"/>
      <point x="420" y="1089"/>
      <point x="324" y="985" type="curve" smooth="yes"/>
      <point x="176" y="825"/>
      <point x="94" y="617"/>
      <point x="94" y="401" type="curve" smooth="yes"/>
      <point x="94" y="133"/>
      <point x="230" y="-29"/>
      <point x="457" y="-29" type="curve" smooth="yes"/>
      <point x="620" y="-29"/>
      <point x="755" y="39"/>
      <point x="854" y="168" type="curve"/>
    </contour>
    <contour>
      <point x="526" y="125" type="curve" smooth="yes"/>
      <point x="370" y="125"/>
      <point x="285" y="231"/>
      <point x="285" y="428" type="curve" smooth="yes"/>
      <point x="285" y="567"/>
      <point x="333" y="725"/>
      <point x="410" y="834" type="curve" smooth="yes"/>
      <point x="483" y="938"/>
      <point x="584" y="993"/>
      <point x="700" y="993" type="curve" smooth="yes"/>
      <point x="859" y="993"/>
      <point x="946" y="888"/>
      <point x="946" y="696" type="curve" smooth="yes"/>
      <point x="946" y="379"/>
      <point x="758" y="125"/>
    </contour>
  </outline>
</glyph>
<glyph name="t" format="2">
  <advance width="803"/>
  <unicode hex="0074"/>
  <anchor x="295" y="1520" name="half"/>
  <anchor x="483" y="1520" name="above"/>
  <anchor x="405" y="0" name="below"/>
  <outline>
    <contour>
      <point x="866" y="1120" type="line"/>
      <point x="838" y="977" type="line"/>
      <point x="471" y="977" type="line"/>
      <point x="352" y="369" type="line"/>
      <point x="346" y="335"/>
      <point x="340" y="289"/>
      <point x="340" y="276" type="qcurve" smooth="yes"/>
      <point x="340" y="212"/>
      <point x="417" y="154"/>
      <point x="502" y="154" type="qcurve" smooth="yes"/>
      <point x="688" y="154" type="line"/>
      <point x="657" y="0" type="line"/>
      <point x="481" y="0" type="line" smooth="yes"/>
      <point x="317" y="0"/>
      <point x="156" y="128"/>
      <point x="156" y="258" type="qcurve" smooth="yes"/>
      <point x="156" y="281"/>
      <point x="162" y="336"/>
      <point x="168" y="369" type="qcurve"/>
      <point x="287" y="977" type="line"/>
      <point x="131" y="977" type="line"/>
      <point x="160" y="1120" type="line"/>
      <point x="313" y="1120" type="line"/>
      <point x="375" y="1438" type="line"/>
      <point x="559" y="1438" type="line"/>
      <point x="498" y="1120" type="line"/>
    </contour>
  </outline>
</glyph>
<glyph name="u" format="2">
  <advance width="1298"/>
  <unicode hex="0075"/>
  <anchor x="928" y="0" name="ogonek"/>
  <anchor x="572" y="0" name="below"/>
  <anchor x="295" y="1520" name="half"/>
  <anchor x="724" y="1147" name="above"/>
  <outline>
    <contour>
      <point x="428" y="-29" type="curve" smooth="yes"/>
      <point x="589" y="-29"/>
      <point x="738" y="45"/>
      <point x="842" y="176" type="curve"/>
      <point x="805" y="0" type="line"/>
      <point x="989" y="0" type="line"/>
      <point x="1206" y="1120" type="line"/>
      <point x="1022" y="1120" type="line"/>
      <point x="899" y="500" type="line" smooth="yes"/>
      <point x="855" y="275"/>
      <point x="699" y="131"/>
      <point x="502" y="131" type="curve" smooth="yes"/>
      <point x="375" y="131"/>
      <point x="303" y="196"/>
      <point x="303" y="309" type="curve" smooth="yes"/>
      <point x="303" y="340"/>
      <point x="309" y="386"/>
      <point x="322" y="451" type="curve" smooth="yes"/>
      <point x="453" y="1120" type="line"/>
      <point x="268" y="1120" type="line"/>
      <point x="137" y="444" type="line" smooth="yes"/>
      <point x="124" y="380"/>
      <point x="117" y="316"/>
      <point x="117" y="276" type="curve" smooth="yes"/>
      <point x="117" y="84"/>
      <point x="232" y="-29"/>
    </contour>
  </outline>
</glyph>
<glyph name="v" format="2">
  <advance width="1212"/>
  <unicode hex="0076"/>
  <anchor x="295" y="1520" name="half"/>
  <anchor x="720" y="1147" name="above"/>
  <anchor x="497" y="0" name="below"/>
  <outline>
    <contour>
      <point x="147" y="1120" type="line"/>
      <point x="342" y="1120" type="line"/>
      <point x="506" y="168" type="line"/>
      <point x="1042" y="1120" type="line"/>
      <point x="1237" y="1120" type="line"/>
      <point x="600" y="0" type="line"/>
      <point x="352" y="0" type="line"/>
    </contour>
  </outline>
</glyph>
<glyph name="w" format="2">
  <advance width="1675"/>
  <unicode hex="0077"/>
  <anchor x="730" y="0" name="below"/>
  <anchor x="295" y="1520" name="half"/>
  <anchor x="915" y="1147" name="above"/>
  <outline>
    <contour>
      <point x="250" y="0" type="line"/>
      <point x="467" y="0" type="line"/>
      <point x="895" y="928" type="line"/>
      <point x="950" y="0" type="line"/>
      <point x="1165" y="0" type="line"/>
      <point x="1677" y="1120" type="line"/>
      <point x="1493" y="1120" type="line"/>
      <point x="1096" y="219" type="line"/>
      <point x="1034" y="1120" type="line"/>
      <point x="821" y="1120" type="line"/>
      <point x="403" y="219" type="line"/>
      <point x="356" y="1120" type="line"/>
      <point x="174" y="1120" type="line"/>
    </contour>
  </outline>
</glyph>
<glyph name="x" format="2">
  <advance width="1212"/>
  <unicode hex="0078"/>
  <anchor x="724" y="1147" name="above"/>
  <anchor x="295" y="1520" name="half"/>
  <anchor x="501" y="0" name="below"/>
  <outline>
    <contour>
      <point x="-53" y="0" type="line"/>
      <point x="170" y="0" type="line"/>
      <point x="582" y="444" type="line"/>
      <point x="819" y="0" type="line"/>
      <point x="1030" y="0" type="line"/>
      <point x="715" y="571" type="line"/>
      <point x="1229" y="1120" type="line"/>
      <point x="1006" y="1120" type="line"/>
      <point x="631" y="715" type="line"/>
      <point x="416" y="1120" type="line"/>
      <point x="205" y="1120" type="line"/>
      <point x="498" y="590" type="line"/>
    </contour>
  </outline>
</glyph>
<glyph name="y" format="2">
  <advance width="1212"/>
  <unicode hex="0079"/>
  <anchor x="31" y="-426" name="ogonek"/>
  <anchor x="295" y="1520" name="half"/>
  <anchor x="457" y="-430" name="below"/>
  <anchor x="680" y="1147" name="above"/>
  <outline>
    <contour>
      <point x="508" y="-104" type="line" smooth="yes"/>
      <point x="380" y="-319"/>
      <point x="219" y="-426"/>
      <point x="94" y="-426" type="qcurve" smooth="yes"/>
      <point x="-51" y="-426" type="line"/>
      <point x="-20" y="-272" type="line"/>
      <point x="86" y="-272" type="line" smooth="yes"/>
      <point x="163" y="-272"/>
      <point x="271" y="-188"/>
      <point x="338" y="-66" type="qcurve"/>
      <point x="395" y="41" type="line"/>
      <point x="147" y="1120" type="line"/>
      <point x="342" y="1120" type="line"/>
      <point x="528" y="262" type="line"/>
      <point x="1042" y="1120" type="line"/>
      <point x="1235" y="1120" type="line"/>
    </contour>
  </outline>
</glyph>
<glyph name="z" format="2">
  <advance width="1075"/>
  <unicode hex="007A"/>
  <anchor x="426" y="0" name="cedilla"/>
  <anchor x="426" y="0" name="ogonek"/>
  <anchor x="295" y="1520" name="half"/>
  <anchor x="649" y="1147" name="above"/>
  <anchor x="426" y="0" name="below"/>
  <outline>
    <contour>
      <point x="238" y="1120" type="line"/>
      <point x="1112" y="1120" type="line"/>
      <point x="1079" y="952" type="line"/>
      <point x="236" y="147" type="line"/>
      <point x="932" y="147" type="line"/>
      <point x="903" y="0" type="line"/>
      <point x="-6" y="0" type="line"/>
      <point x="27" y="168" type="line"/>
      <point x="870" y="973" type="line"/>
      <point x="209" y="973" type="line"/>
    </contour>
  </outline>
</glyph>
<glyph name="braceleft" format="2">
  <advance width="1303"/>
  <unicode hex="007B"/>
  <outline>
    <contour>
      <point x="1239" y="1556" type="line"/>
      <point x="1210" y="1413" type="line"/>
      <point x="1133" y="1413" type="line" smooth="yes"/>
      <point x="997" y="1413"/>
      <point x="903" y="1334"/>
      <point x="872" y="1184" type="qcurve"/>
      <point x="821" y="932" type="line"/>
      <point x="789" y="772"/>
      <point x="668" y="627"/>
      <point x="557" y="606" type="qcurve"/>
      <point x="630" y="588"/>
      <point x="711" y="485"/>
      <point x="711" y="410" type="qcurve" smooth="yes"/>
      <point x="711" y="386"/>
      <point x="703" y="320"/>
      <point x="696" y="282" type="qcurve"/>
      <point x="649" y="38" type="line"/>
      <point x="644" y="7"/>
      <point x="639" y="-46"/>
      <point x="639" y="-70" type="qcurve" smooth="yes"/>
      <point x="639" y="-133"/>
      <point x="724" y="-190"/>
      <point x="821" y="-190" type="qcurve" smooth="yes"/>
      <point x="899" y="-190" type="line"/>
      <point x="870" y="-334" type="line"/>
      <point x="799" y="-334" type="line" smooth="yes"/>
      <point x="611" y="-334"/>
      <point x="449" y="-225"/>
      <point x="449" y="-102" type="qcurve" smooth="yes"/>
      <point x="449" y="-70"/>
      <point x="456" y="-2"/>
      <point x="463" y="35" type="qcurve" smooth="yes"/>
      <point x="508" y="270" type="line"/>
      <point x="508" y="273"/>
      <point x="510" y="282" type="qcurve" smooth="yes"/>
      <point x="520" y="332"/>
      <point x="520" y="377" type="qcurve" smooth="yes"/>
      <point x="520" y="462"/>
      <point x="422" y="537"/>
      <point x="309" y="537" type="qcurve" smooth="yes"/>
      <point x="248" y="537" type="line"/>
      <point x="276" y="684" type="line"/>
      <point x="338" y="684" type="line" smooth="yes"/>
      <point x="482" y="684"/>
      <point x="609" y="793"/>
      <point x="641" y="944" type="qcurve"/>
      <point x="688" y="1188" type="line"/>
      <point x="714" y="1311"/>
      <point x="785" y="1454"/>
      <point x="840" y="1493" type="qcurve" smooth="yes"/>
      <point x="886" y="1527"/>
      <point x="1024" y="1556"/>
      <point x="1157" y="1556" type="qcurve" smooth="yes"/>
    </contour>
  </outline>
</glyph>
<glyph name="braceright" format="2">
  <advance width="1303"/>
  <unicode hex="007D"/>
  <outline>
    <contour>
      <point x="14" y="-334" type="line"/>
      <point x="96" y="-334" type="line" smooth="yes"/>
      <point x="273" y="-334"/>
      <point x="351" y="-315"/>
      <point x="414" y="-270" type="curve" smooth="yes"/>
      <point x="485" y="-219"/>
      <point x="528" y="-133"/>
      <point x="563" y="35" type="curve" smooth="yes"/>
      <point x="616" y="279" type="line" smooth="yes"/>
      <point x="655" y="479"/>
      <point x="723" y="539"/>
      <point x="915" y="539" type="curve" smooth="yes"/>
      <point x="977" y="539" type="line"/>
      <point x="1006" y="686" type="line"/>
      <point x="944" y="686" type="line" smooth="yes"/>
      <point x="793" y="686"/>
      <point x="733" y="731"/>
      <point x="733" y="846" type="curve" smooth="yes"/>
      <point x="733" y="876"/>
      <point x="736" y="907"/>
      <point x="743" y="940" type="curve" smooth="yes"/>
      <point x="744" y="946"/>
      <point x="745" y="950"/>
      <point x="745" y="952" type="curve"/>
      <point x="790" y="1187" type="line" smooth="yes"/>
      <point x="801" y="1239"/>
      <point x="805" y="1284"/>
      <point x="805" y="1325" type="curve" smooth="yes"/>
      <point x="805" y="1489"/>
      <point x="704" y="1556"/>
      <point x="455" y="1556" type="curve" smooth="yes"/>
      <point x="381" y="1556" type="line"/>
      <point x="354" y="1413" type="line"/>
      <point x="432" y="1413" type="line" smooth="yes"/>
      <point x="561" y="1413"/>
      <point x="614" y="1377"/>
      <point x="614" y="1292" type="curve" smooth="yes"/>
      <point x="614" y="1259"/>
      <point x="612" y="1228"/>
      <point x="604" y="1183" type="curve" smooth="yes"/>
      <point x="557" y="940" type="line" smooth="yes"/>
      <point x="548" y="889"/>
      <point x="543" y="846"/>
      <point x="543" y="813" type="curve" smooth="yes"/>
      <point x="543" y="712"/>
      <point x="599" y="641"/>
      <point x="696" y="616" type="curve"/>
      <point x="548" y="589"/>
      <point x="476" y="504"/>
      <point x="432" y="291" type="curve" smooth="yes"/>
      <point x="381" y="39" type="line" smooth="yes"/>
      <point x="341" y="-161"/>
      <point x="302" y="-190"/>
      <point x="121" y="-190" type="curve" smooth="yes"/>
      <point x="43" y="-190" type="line"/>
    </contour>
  </outline>
</glyph>
<glyph name="asciitilde" format="2">
  <advance width="1716"/>
  <unicode hex="007E"/>
  <outline>
    <contour>
      <point x="1499" y="817" type="qcurve"/>
      <point x="1499" y="639" type="line"/>
      <point x="1394" y="560"/>
      <point x="1215" y="492"/>
      <point x="1118" y="492" type="qcurve" smooth="yes"/>
      <point x="1008" y="492"/>
      <point x="862" y="551" type="qcurve" smooth="yes"/>
      <point x="851" y="555"/>
      <point x="846" y="557" type="qcurve" smooth="yes"/>
      <point x="839" y="560"/>
      <point x="824" y="565" type="qcurve" smooth="yes"/>
      <point x="669" y="627"/>
      <point x="575" y="627" type="qcurve" smooth="yes"/>
      <point x="487" y="627"/>
      <point x="315" y="550"/>
      <point x="217" y="467" type="qcurve"/>
      <point x="217" y="645" type="line"/>
      <point x="322" y="724"/>
      <point x="501" y="793"/>
      <point x="598" y="793" type="qcurve" smooth="yes"/>
      <point x="708" y="793"/>
      <point x="855" y="733" type="qcurve" smooth="yes"/>
      <point x="865" y="729"/>
      <point x="870" y="727" type="qcurve" smooth="yes"/>
      <point x="878" y="724"/>
      <point x="892" y="719" type="qcurve" smooth="yes"/>
      <point x="1047" y="657"/>
      <point x="1141" y="657" type="qcurve" smooth="yes"/>
      <point x="1227" y="657"/>
      <point x="1396" y="733"/>
    </contour>
  </outline>
</glyph>
<glyph name="exclamdown" format="2">
  <advance width="821"/>
  <unicode hex="00A1"/>
  <outline>
    <contour>
      <point x="377" y="-373" type="line"/>
      <point x="174" y="-373" type="line"/>
      <point x="301" y="282" type="line"/>
      <point x="391" y="639" type="line"/>
      <point x="553" y="639" type="line"/>
      <point x="504" y="282" type="line"/>
    </contour>
    <contour>
      <point x="616" y="866" type="line"/>
      <point x="414" y="866" type="line"/>
      <point x="463" y="1120" type="line"/>
      <point x="668" y="1120" type="line"/>
    </contour>
  </outline>
</glyph>
<glyph name="cent" format="2">
  <advance width="1303"/>
  <unicode hex="00A2"/>
  <outline>
    <contour>
      <point x="504" y="-313" type="line"/>
      <point x="604" y="-313" type="line"/>
      <point x="664" y="-29" type="line"/>
      <point x="767" y="-22"/>
      <point x="865" y="0"/>
      <point x="952" y="37" type="curve"/>
      <point x="987" y="219" type="line"/>
      <point x="876" y="163"/>
      <point x="778" y="134"/>
      <point x="690" y="127" type="curve"/>
      <point x="858" y="989" type="line"/>
      <point x="977" y="973"/>
      <point x="1055" y="944"/>
      <point x="1118" y="895" type="curve"/>
      <point x="1153" y="1077" type="line"/>
      <point x="1070" y="1114"/>
      <point x="986" y="1136"/>
      <point x="889" y="1145" type="curve"/>
      <point x="944" y="1430" type="line"/>
      <point x="844" y="1430" type="line"/>
      <point x="788" y="1145" type="line"/>
      <point x="412" y="1114"/>
      <point x="152" y="809"/>
      <point x="152" y="401" type="curve" smooth="yes"/>
      <point x="152" y="142"/>
      <point x="300" y="-12"/>
      <point x="563" y="-29" type="curve"/>
    </contour>
    <contour>
      <point x="590" y="125" type="line"/>
      <point x="419" y="152"/>
      <point x="340" y="247"/>
      <point x="340" y="426" type="curve" smooth="yes"/>
      <point x="340" y="713"/>
      <point x="521" y="954"/>
      <point x="758" y="985" type="curve"/>
    </contour>
  </outline>
</glyph>
<glyph name="sterling" format="2">
  <advance width="1303"/>
  <unicode hex="00A3"/>
  <outline>
    <contour>
      <point x="49" y="0" type="line"/>
      <point x="1022" y="0" type="line"/>
      <point x="1055" y="170" type="line"/>
      <point x="518" y="170" type="line"/>
      <point x="608" y="635" type="line"/>
      <point x="999" y="635" type="line"/>
      <point x="1028" y="778" type="line"/>
      <point x="637" y="778" type="line"/>
      <point x="678" y="993" type="line" smooth="yes"/>
      <point x="733" y="1270"/>
      <point x="818" y="1360"/>
      <point x="1014" y="1360" type="curve" smooth="yes"/>
      <point x="1099" y="1360"/>
      <point x="1189" y="1331"/>
      <point x="1270" y="1278" type="curve"/>
      <point x="1305" y="1460" type="line"/>
      <point x="1213" y="1500"/>
      <point x="1119" y="1520"/>
      <point x="1026" y="1520" type="curve" smooth="yes"/>
      <point x="717" y="1520"/>
      <point x="550" y="1365"/>
      <point x="481" y="1016" type="curve" smooth="yes"/>
      <point x="436" y="778" type="line"/>
      <point x="238" y="778" type="line"/>
      <point x="209" y="635" type="line"/>
      <point x="408" y="635" type="line"/>
      <point x="317" y="170" type="line"/>
      <point x="82" y="170" type="line"/>
    </contour>
  </outline>
</glyph>
<glyph name="currency" format="2">
  <advance width="1303"/>
  <unicode hex="00A4"/>
  <outline>
    <contour>
      <point x="891" y="993" type="qcurve"/>
      <point x="1098" y="1202" type="line"/>
      <point x="1212" y="1087" type="line"/>
      <point x="1006" y="881" type="line"/>
      <point x="1043" y="822"/>
      <point x="1079" y="703"/>
      <point x="1079" y="641" type="qcurve" smooth="yes"/>
      <point x="1079" y="578"/>
      <point x="1041" y="463"/>
      <point x="1001" y="406" type="qcurve"/>
      <point x="1210" y="199" type="line"/>
      <point x="1096" y="86" type="line"/>
      <point x="889" y="293" type="line"/>
      <point x="830" y="253"/>
      <point x="714" y="215"/>
      <point x="653" y="215" type="qcurve" smooth="yes"/>
      <point x="595" y="215"/>
      <point x="475" y="252"/>
      <point x="414" y="289" type="qcurve"/>
      <point x="207" y="82" type="line"/>
      <point x="94" y="197" type="line"/>
      <point x="301" y="403" type="line"/>
      <point x="264" y="465"/>
      <point x="227" y="583"/>
      <point x="227" y="641" type="qcurve" smooth="yes"/>
      <point x="227" y="705"/>
      <point x="265" y="821"/>
      <point x="303" y="877" type="qcurve"/>
      <point x="96" y="1083" type="line"/>
      <point x="211" y="1198" type="line"/>
      <point x="418" y="991" type="line"/>
      <point x="473" y="1030"/>
      <point x="589" y="1067"/>
      <point x="653" y="1067" type="qcurve" smooth="yes"/>
      <point x="713" y="1067"/>
      <point x="830" y="1031"/>
    </contour>
    <contour>
      <point x="922" y="643" type="qcurve" smooth="yes"/>
      <point x="922" y="755"/>
      <point x="767" y="909"/>
      <point x="653" y="909" type="qcurve" smooth="yes"/>
      <point x="541" y="909"/>
      <point x="383" y="755"/>
      <point x="383" y="643" type="qcurve" smooth="yes"/>
      <point x="383" y="529"/>
      <point x="540" y="373"/>
      <point x="653" y="373" type="qcurve" smooth="yes"/>
      <point x="766" y="373"/>
      <point x="922" y="530"/>
    </contour>
  </outline>
</glyph>
<glyph name="yen" format="2">
  <advance width="1303"/>
  <unicode hex="00A5"/>
  <outline>
    <contour>
      <point x="420" y="0" type="line"/>
      <point x="623" y="0" type="line"/>
      <point x="711" y="455" type="line"/>
      <point x="1122" y="455" type="line"/>
      <point x="1145" y="578" type="line"/>
      <point x="735" y="578" type="line"/>
      <point x="745" y="629" type="line"/>
      <point x="858" y="784" type="line"/>
      <point x="1186" y="784" type="line"/>
      <point x="1210" y="907" type="line"/>
      <point x="948" y="907" type="line"/>
      <point x="1378" y="1493" type="line"/>
      <point x="1184" y="1493" type="line"/>
      <point x="672" y="793" type="line"/>
      <point x="432" y="1493" type="line"/>
      <point x="242" y="1493" type="line"/>
      <point x="446" y="907" type="line"/>
      <point x="180" y="907" type="line"/>
      <point x="156" y="784" type="line"/>
      <point x="489" y="784" type="line"/>
      <point x="543" y="629" type="line"/>
      <point x="532" y="578" type="line"/>
      <point x="115" y="578" type="line"/>
      <point x="92" y="455" type="line"/>
      <point x="508" y="455" type="line"/>
    </contour>
  </outline>
</glyph>
<glyph name="brokenbar" format="2">
  <advance width="690"/>
  <unicode hex="00A6"/>
  <outline>
    <contour>
      <point x="430" y="408" type="line"/>
      <point x="430" y="-350" type="line"/>
      <point x="260" y="-350" type="line"/>
      <point x="260" y="408" type="line"/>
    </contour>
    <contour>
      <point x="430" y="1432" type="line"/>
      <point x="430" y="674" type="line"/>
      <point x="260" y="674" type="line"/>
      <point x="260" y="1432" type="line"/>
    </contour>
  </outline>
</glyph>
<glyph name="section" format="2">
  <advance width="1024"/>
  <unicode hex="00A7"/>
  <outline>
    <contour>
      <point x="602" y="410" type="line"/>
      <point x="684" y="459"/>
      <point x="770" y="570"/>
      <point x="770" y="627" type="qcurve" smooth="yes"/>
      <point x="770" y="681"/>
      <point x="663" y="794"/>
      <point x="520" y="885" type="qcurve" smooth="yes"/>
      <point x="440" y="936" type="line"/>
      <point x="359" y="885"/>
      <point x="274" y="773"/>
      <point x="274" y="717" type="qcurve" smooth="yes"/>
      <point x="274" y="667"/>
      <point x="359" y="570"/>
      <point x="485" y="487" type="qcurve" smooth="yes"/>
    </contour>
    <contour>
      <point x="993" y="1462" type="qcurve"/>
      <point x="961" y="1298" type="line"/>
      <point x="889" y="1337"/>
      <point x="752" y="1376"/>
      <point x="694" y="1376" type="qcurve" smooth="yes"/>
      <point x="591" y="1376"/>
      <point x="459" y="1279"/>
      <point x="459" y="1206" type="qcurve" smooth="yes"/>
      <point x="459" y="1127"/>
      <point x="594" y="1037" type="qcurve" smooth="yes"/>
      <point x="624" y="1017"/>
      <point x="641" y="1006" type="qcurve" smooth="yes"/>
      <point x="729" y="946" type="line" smooth="yes"/>
      <point x="851" y="861"/>
      <point x="936" y="744"/>
      <point x="936" y="674" type="qcurve" smooth="yes"/>
      <point x="936" y="573"/>
      <point x="804" y="393"/>
      <point x="690" y="340" type="qcurve"/>
      <point x="731" y="305"/>
      <point x="772" y="215"/>
      <point x="772" y="160" type="qcurve" smooth="yes"/>
      <point x="772" y="3"/>
      <point x="529" y="-195"/>
      <point x="330" y="-195" type="qcurve" smooth="yes"/>
      <point x="261" y="-195"/>
      <point x="107" y="-166"/>
      <point x="25" y="-137" type="qcurve"/>
      <point x="57" y="27" type="line"/>
      <point x="133" y="-11"/>
      <point x="277" y="-51"/>
      <point x="336" y="-51" type="qcurve" smooth="yes"/>
      <point x="448" y="-51"/>
      <point x="582" y="44"/>
      <point x="582" y="123" type="qcurve" smooth="yes"/>
      <point x="582" y="221"/>
      <point x="402" y="342" type="qcurve" smooth="yes"/>
      <point x="387" y="352" type="line"/>
      <point x="311" y="403" type="line" smooth="yes"/>
      <point x="188" y="487"/>
      <point x="106" y="600"/>
      <point x="106" y="674" type="qcurve" smooth="yes"/>
      <point x="106" y="770"/>
      <point x="234" y="943"/>
      <point x="352" y="1006" type="qcurve"/>
      <point x="309" y="1044"/>
      <point x="270" y="1125"/>
      <point x="270" y="1176" type="qcurve" smooth="yes"/>
      <point x="270" y="1323"/>
      <point x="513" y="1520"/>
      <point x="700" y="1520" type="qcurve" smooth="yes"/>
      <point x="771" y="1520"/>
      <point x="916" y="1491"/>
    </contour>
  </outline>
</glyph>
<glyph name="dieresis" format="2">
  <advance width="1024"/>
  <unicode hex="00A8"/>
  <outline>
    <contour>
      <point x="377" y="1350" type="line"/>
      <point x="580" y="1350" type="line"/>
      <point x="621" y="1552" type="line"/>
      <point x="416" y="1552" type="line"/>
    </contour>
    <contour>
      <point x="768" y="1350" type="line"/>
      <point x="971" y="1350" type="line"/>
      <point x="1010" y="1552" type="line"/>
      <point x="807" y="1552" type="line"/>
    </contour>
  </outline>
</glyph>
<glyph name="copyright" format="2">
  <advance width="2048"/>
  <unicode hex="00A9"/>
  <outline>
    <contour>
      <point x="1024" y="0" type="curve" smooth="yes"/>
      <point x="1227" y="0"/>
      <point x="1403" y="74"/>
      <point x="1548" y="219" type="curve" smooth="yes"/>
      <point x="1693" y="364"/>
      <point x="1765" y="538"/>
      <point x="1765" y="741" type="curve" smooth="yes"/>
      <point x="1765" y="946"/>
      <point x="1693" y="1121"/>
      <point x="1548" y="1266" type="curve" smooth="yes"/>
      <point x="1403" y="1411"/>
      <point x="1227" y="1485"/>
      <point x="1024" y="1485" type="curve" smooth="yes"/>
      <point x="821" y="1485"/>
      <point x="645" y="1411"/>
      <point x="500" y="1266" type="curve" smooth="yes"/>
      <point x="355" y="1121"/>
      <point x="283" y="946"/>
      <point x="283" y="741" type="curve" smooth="yes"/>
      <point x="283" y="538"/>
      <point x="355" y="364"/>
      <point x="500" y="219" type="curve" smooth="yes"/>
      <point x="645" y="74"/>
      <point x="821" y="0"/>
    </contour>
    <contour>
      <point x="1049" y="289" type="curve" smooth="yes"/>
      <point x="1142" y="289"/>
      <point x="1234" y="307"/>
      <point x="1323" y="346" type="curve"/>
      <point x="1323" y="473" type="line"/>
      <point x="1235" y="428"/>
      <point x="1156" y="408"/>
      <point x="1071" y="408" type="curve" smooth="yes"/>
      <point x="864" y="408"/>
      <point x="745" y="529"/>
      <point x="745" y="741" type="curve" smooth="yes"/>
      <point x="745" y="950"/>
      <point x="862" y="1073"/>
      <point x="1061" y="1073" type="curve" smooth="yes"/>
      <point x="1149" y="1073"/>
      <point x="1235" y="1052"/>
      <point x="1323" y="1008" type="curve"/>
      <point x="1323" y="1137" type="line"/>
      <point x="1236" y="1173"/>
      <point x="1146" y="1192"/>
      <point x="1049" y="1192" type="curve" smooth="yes"/>
      <point x="761" y="1192"/>
      <point x="582" y="1020"/>
      <point x="582" y="741" type="curve" smooth="yes"/>
      <point x="582" y="464"/>
      <point x="761" y="289"/>
    </contour>
    <contour>
      <point x="1024" y="102" type="curve" smooth="yes"/>
      <point x="849" y="102"/>
      <point x="698" y="166"/>
      <point x="573" y="291" type="curve" smooth="yes"/>
      <point x="448" y="416"/>
      <point x="383" y="569"/>
      <point x="383" y="741" type="curve" smooth="yes"/>
      <point x="383" y="914"/>
      <point x="448" y="1069"/>
      <point x="573" y="1194" type="curve" smooth="yes"/>
      <point x="698" y="1319"/>
      <point x="849" y="1382"/>
      <point x="1024" y="1382" type="curve" smooth="yes"/>
      <point x="1200" y="1382"/>
      <point x="1352" y="1319"/>
      <point x="1477" y="1194" type="curve" smooth="yes"/>
      <point x="1600" y="1070"/>
      <point x="1663" y="918"/>
      <point x="1663" y="741" type="curve" smooth="yes"/>
      <point x="1663" y="566"/>
      <point x="1601" y="415"/>
      <point x="1477" y="291" type="curve" smooth="yes"/>
      <point x="1352" y="166"/>
      <point x="1200" y="102"/>
    </contour>
  </outline>
</glyph>
<glyph name="ordfeminine" format="2">
  <advance width="965"/>
  <unicode hex="00AA"/>
  <outline>
    <contour>
      <point x="594" y="1104" type="line" smooth="yes"/>
      <point x="437" y="1104"/>
      <point x="295" y="1029"/>
      <point x="295" y="946" type="qcurve" smooth="yes"/>
      <point x="295" y="887"/>
      <point x="371" y="817"/>
      <point x="436" y="817" type="qcurve" smooth="yes"/>
      <point x="551" y="817"/>
      <point x="708" y="952"/>
      <point x="735" y="1075" type="qcurve"/>
      <point x="741" y="1104" type="line"/>
    </contour>
    <contour>
      <point x="903" y="1165" type="qcurve"/>
      <point x="815" y="717" type="line"/>
      <point x="666" y="717" type="line"/>
      <point x="688" y="829" type="line"/>
      <point x="630" y="764"/>
      <point x="477" y="698"/>
      <point x="381" y="698" type="qcurve" smooth="yes"/>
      <point x="274" y="698"/>
      <point x="143" y="820"/>
      <point x="143" y="920" type="qcurve" smooth="yes"/>
      <point x="143" y="1060"/>
      <point x="374" y="1219"/>
      <point x="582" y="1219" type="qcurve" smooth="yes"/>
      <point x="764" y="1219" type="line"/>
      <point x="764" y="1223" type="line"/>
      <point x="766" y="1242"/>
      <point x="768" y="1263"/>
      <point x="768" y="1270" type="qcurve" smooth="yes"/>
      <point x="768" y="1340"/>
      <point x="675" y="1405"/>
      <point x="575" y="1405" type="qcurve" smooth="yes"/>
      <point x="505" y="1405"/>
      <point x="360" y="1371"/>
      <point x="287" y="1337" type="qcurve"/>
      <point x="311" y="1464" type="line"/>
      <point x="390" y="1492"/>
      <point x="542" y="1520"/>
      <point x="610" y="1520" type="qcurve" smooth="yes"/>
      <point x="760" y="1520"/>
      <point x="913" y="1396"/>
      <point x="913" y="1276" type="qcurve" smooth="yes"/>
      <point x="913" y="1249"/>
      <point x="908" y="1194"/>
    </contour>
    <contour>
      <point x="104" y="592" type="line"/>
      <point x="793" y="592" type="line"/>
      <point x="770" y="469" type="line"/>
      <point x="82" y="469" type="line"/>
    </contour>
  </outline>
</glyph>
<glyph name="guillemotleft" format="2">
  <advance width="1264"/>
  <unicode hex="00AB"/>
  <outline>
    <contour>
      <point x="958" y="141" type="line"/>
      <point x="995" y="322" type="line"/>
      <point x="743" y="588" type="line"/>
      <point x="1098" y="858" type="line"/>
      <point x="1137" y="1059" type="line"/>
      <point x="588" y="641" type="line"/>
      <point x="571" y="559" type="line"/>
    </contour>
    <contour>
      <point x="514" y="141" type="line"/>
      <point x="551" y="322" type="line"/>
      <point x="299" y="588" type="line"/>
      <point x="653" y="858" type="line"/>
      <point x="692" y="1059" type="line"/>
      <point x="143" y="641" type="line"/>
      <point x="127" y="559" type="line"/>
    </contour>
  </outline>
</glyph>
<glyph name="registered" format="2">
  <advance width="2048"/>
  <unicode hex="00AE"/>
  <outline>
    <contour>
      <point x="1024" y="0" type="curve" smooth="yes"/>
      <point x="1227" y="0"/>
      <point x="1403" y="74"/>
      <point x="1548" y="219" type="curve" smooth="yes"/>
      <point x="1693" y="364"/>
      <point x="1765" y="538"/>
      <point x="1765" y="741" type="curve" smooth="yes"/>
      <point x="1765" y="946"/>
      <point x="1693" y="1121"/>
      <point x="1548" y="1266" type="curve" smooth="yes"/>
      <point x="1403" y="1411"/>
      <point x="1227" y="1485"/>
      <point x="1024" y="1485" type="curve" smooth="yes"/>
      <point x="821" y="1485"/>
      <point x="645" y="1411"/>
      <point x="500" y="1266" type="curve" smooth="yes"/>
      <point x="355" y="1121"/>
      <point x="283" y="946"/>
      <point x="283" y="741" type="curve" smooth="yes"/>
      <point x="283" y="538"/>
      <point x="355" y="364"/>
      <point x="500" y="219" type="curve" smooth="yes"/>
      <point x="645" y="74"/>
      <point x="821" y="0"/>
    </contour>
    <contour>
      <point x="1024" y="102" type="curve" smooth="yes"/>
      <point x="849" y="102"/>
      <point x="698" y="166"/>
      <point x="573" y="291" type="curve" smooth="yes"/>
      <point x="448" y="416"/>
      <point x="383" y="569"/>
      <point x="383" y="741" type="curve" smooth="yes"/>
      <point x="383" y="914"/>
      <point x="448" y="1069"/>
      <point x="573" y="1194" type="curve" smooth="yes"/>
      <point x="698" y="1319"/>
      <point x="849" y="1382"/>
      <point x="1024" y="1382" type="curve" smooth="yes"/>
      <point x="1200" y="1382"/>
      <point x="1352" y="1319"/>
      <point x="1477" y="1194" type="curve" smooth="yes"/>
      <point x="1600" y="1070"/>
      <point x="1663" y="918"/>
      <point x="1663" y="741" type="curve" smooth="yes"/>
      <point x="1663" y="566"/>
      <point x="1601" y="415"/>
      <point x="1477" y="291" type="curve" smooth="yes"/>
      <point x="1352" y="166"/>
      <point x="1200" y="102"/>
    </contour>
    <contour>
      <point x="719" y="338" type="line"/>
      <point x="874" y="338" type="line"/>
      <point x="874" y="694" type="line"/>
      <point x="940" y="694" type="line" smooth="yes"/>
      <point x="1012" y="694"/>
      <point x="1047" y="675"/>
      <point x="1126" y="547" type="curve" smooth="yes"/>
      <point x="1255" y="338" type="line"/>
      <point x="1427" y="338" type="line"/>
      <point x="1290" y="561" type="line" smooth="yes"/>
      <point x="1259" y="610"/>
      <point x="1233" y="647"/>
      <point x="1211" y="673" type="curve" smooth="yes"/>
      <point x="1188" y="698"/>
      <point x="1169" y="714"/>
      <point x="1153" y="719" type="curve"/>
      <point x="1281" y="742"/>
      <point x="1354" y="819"/>
      <point x="1354" y="934" type="curve" smooth="yes"/>
      <point x="1354" y="1095"/>
      <point x="1239" y="1174"/>
      <point x="1004" y="1174" type="curve" smooth="yes"/>
      <point x="719" y="1174" type="line"/>
    </contour>
    <contour>
      <point x="874" y="795" type="line"/>
      <point x="874" y="1071" type="line"/>
      <point x="997" y="1071" type="line" smooth="yes"/>
      <point x="1142" y="1071"/>
      <point x="1194" y="1033"/>
      <point x="1194" y="932" type="curve" smooth="yes"/>
      <point x="1194" y="832"/>
      <point x="1144" y="795"/>
      <point x="997" y="795" type="curve" smooth="yes"/>
    </contour>
  </outline>
</glyph>
<glyph name="macron" format="2">
  <advance width="1024"/>
  <unicode hex="00AF"/>
  <outline>
    <contour>
      <point x="410" y="1526" type="line"/>
      <point x="1008" y="1526" type="line"/>
      <point x="979" y="1378" type="line"/>
      <point x="381" y="1378" type="line"/>
    </contour>
  </outline>
</glyph>
<glyph name="degree" format="2">
  <advance width="1024"/>
  <unicode hex="00B0"/>
  <outline>
    <contour>
      <point x="512" y="1391" type="qcurve" smooth="yes"/>
      <point x="432" y="1391"/>
      <point x="322" y="1280"/>
      <point x="322" y="1200" type="qcurve" smooth="yes"/>
      <point x="322" y="1121"/>
      <point x="432" y="1012"/>
      <point x="512" y="1012" type="qcurve" smooth="yes"/>
      <point x="592" y="1012"/>
      <point x="702" y="1121"/>
      <point x="702" y="1200" type="qcurve" smooth="yes"/>
      <point x="702" y="1279"/>
      <point x="591" y="1391"/>
    </contour>
    <contour>
      <point x="512" y="1520" type="qcurve" smooth="yes"/>
      <point x="576" y="1520"/>
      <point x="694" y="1471"/>
      <point x="737" y="1425" type="qcurve"/>
      <point x="783" y="1380"/>
      <point x="829" y="1266"/>
      <point x="829" y="1200" type="qcurve" smooth="yes"/>
      <point x="829" y="1068"/>
      <point x="644" y="885"/>
      <point x="510" y="885" type="qcurve" smooth="yes"/>
      <point x="375" y="885"/>
      <point x="195" y="1065"/>
      <point x="195" y="1200" type="qcurve" smooth="yes"/>
      <point x="195" y="1334"/>
      <point x="379" y="1520"/>
    </contour>
  </outline>
</glyph>
<glyph name="twosuperior" format="2">
  <advance width="821"/>
  <unicode hex="00B2"/>
  <outline>
    <contour>
      <point x="659" y="1090" type="qcurve" smooth="yes"/>
      <point x="274" y="782" type="line"/>
      <point x="715" y="782" type="line"/>
      <point x="692" y="668" type="line"/>
      <point x="74" y="668" type="line"/>
      <point x="96" y="778" type="line"/>
      <point x="518" y="1118" type="line"/>
      <point x="577" y="1164"/>
      <point x="635" y="1250"/>
      <point x="635" y="1290" type="qcurve" smooth="yes"/>
      <point x="635" y="1344"/>
      <point x="551" y="1411"/>
      <point x="481" y="1411" type="qcurve" smooth="yes"/>
      <point x="426" y="1411"/>
      <point x="294" y="1377"/>
      <point x="211" y="1341" type="qcurve"/>
      <point x="236" y="1464" type="line"/>
      <point x="312" y="1492"/>
      <point x="448" y="1520"/>
      <point x="512" y="1520" type="qcurve" smooth="yes"/>
      <point x="635" y="1520"/>
      <point x="788" y="1406"/>
      <point x="788" y="1317" type="qcurve" smooth="yes"/>
      <point x="788" y="1255"/>
      <point x="724" y="1142"/>
    </contour>
  </outline>
</glyph>
<glyph name="threesuperior" format="2">
  <advance width="821"/>
  <unicode hex="00B3"/>
  <outline>
    <contour>
      <point x="291" y="653" type="curve" smooth="yes"/>
      <point x="536" y="653"/>
      <point x="698" y="769"/>
      <point x="698" y="938" type="curve" smooth="yes"/>
      <point x="698" y="1034"/>
      <point x="643" y="1099"/>
      <point x="543" y="1120" type="curve"/>
      <point x="672" y="1144"/>
      <point x="754" y="1226"/>
      <point x="754" y="1329" type="curve" smooth="yes"/>
      <point x="754" y="1444"/>
      <point x="646" y="1520"/>
      <point x="479" y="1520" type="curve" smooth="yes"/>
      <point x="406" y="1520"/>
      <point x="326" y="1509"/>
      <point x="215" y="1485" type="curve"/>
      <point x="193" y="1370" type="line"/>
      <point x="274" y="1397"/>
      <point x="359" y="1411"/>
      <point x="434" y="1411" type="curve" smooth="yes"/>
      <point x="543" y="1411"/>
      <point x="598" y="1376"/>
      <point x="598" y="1305" type="curve" smooth="yes"/>
      <point x="598" y="1220"/>
      <point x="517" y="1169"/>
      <point x="381" y="1169" type="curve" smooth="yes"/>
      <point x="289" y="1169" type="line"/>
      <point x="266" y="1061" type="line"/>
      <point x="352" y="1061" type="line" smooth="yes"/>
      <point x="483" y="1061"/>
      <point x="547" y="1019"/>
      <point x="547" y="936" type="curve" smooth="yes"/>
      <point x="547" y="827"/>
      <point x="449" y="762"/>
      <point x="285" y="762" type="curve" smooth="yes"/>
      <point x="201" y="762"/>
      <point x="128" y="779"/>
      <point x="57" y="815" type="curve"/>
      <point x="33" y="694" type="line"/>
      <point x="118" y="667"/>
      <point x="206" y="653"/>
    </contour>
  </outline>
</glyph>
<glyph name="acute" format="2">
  <advance width="1024"/>
  <unicode hex="00B4"/>
  <outline>
    <contour>
      <point x="516" y="1262" type="line"/>
      <point x="670" y="1262" type="line"/>
      <point x="1069" y="1638" type="line"/>
      <point x="870" y="1638" type="line"/>
    </contour>
  </outline>
</glyph>
<glyph name="mu" format="2">
  <advance width="1303"/>
  <unicode hex="00B5"/>
  <outline>
    <contour>
      <point x="-27" y="-426" type="line"/>
      <point x="158" y="-426" type="line"/>
      <point x="266" y="127" type="line"/>
      <point x="295" y="34"/>
      <point x="396" y="-29"/>
      <point x="520" y="-29" type="curve" smooth="yes"/>
      <point x="660" y="-29"/>
      <point x="761" y="22"/>
      <point x="836" y="129" type="curve"/>
      <point x="836" y="30"/>
      <point x="889" y="-29"/>
      <point x="977" y="-29" type="curve" smooth="yes"/>
      <point x="1028" y="-29"/>
      <point x="1080" y="-13"/>
      <point x="1139" y="16" type="curve"/>
      <point x="1167" y="164" type="line"/>
      <point x="1146" y="155"/>
      <point x="1129" y="149"/>
      <point x="1118" y="146" type="curve" smooth="yes"/>
      <point x="1106" y="143"/>
      <point x="1097" y="141"/>
      <point x="1090" y="141" type="curve" smooth="yes"/>
      <point x="1054" y="141"/>
      <point x="1038" y="160"/>
      <point x="1038" y="201" type="curve" smooth="yes"/>
      <point x="1038" y="216"/>
      <point x="1040" y="234"/>
      <point x="1045" y="259" type="curve" smooth="yes"/>
      <point x="1212" y="1120" type="line"/>
      <point x="1028" y="1120" type="line"/>
      <point x="901" y="467" type="line" smooth="yes"/>
      <point x="858" y="243"/>
      <point x="736" y="131"/>
      <point x="539" y="131" type="curve" smooth="yes"/>
      <point x="394" y="131"/>
      <point x="313" y="200"/>
      <point x="313" y="324" type="curve" smooth="yes"/>
      <point x="313" y="359"/>
      <point x="318" y="395"/>
      <point x="323" y="423" type="curve" smooth="yes"/>
      <point x="459" y="1120" type="line"/>
      <point x="274" y="1120" type="line"/>
    </contour>
  </outline>
</glyph>
<glyph name="paragraph" format="2">
  <advance width="1303"/>
  <unicode hex="00B6"/>
  <outline>
    <contour>
      <point x="768" y="1493" type="qcurve" smooth="yes"/>
      <point x="1174" y="1493" type="line"/>
      <point x="846" y="-197" type="line"/>
      <point x="707" y="-197" type="line"/>
      <point x="1012" y="1370" type="line"/>
      <point x="821" y="1370" type="line"/>
      <point x="516" y="-197" type="line"/>
      <point x="375" y="-197" type="line"/>
      <point x="539" y="649" type="line"/>
      <point x="361" y="655"/>
      <point x="160" y="843"/>
      <point x="160" y="1001" type="qcurve" smooth="yes"/>
      <point x="160" y="1212"/>
      <point x="504" y="1493"/>
    </contour>
  </outline>
</glyph>
<glyph name="periodcentered" format="2">
  <advance width="651"/>
  <unicode hex="00B7"/>
  <outline>
    <contour>
      <point x="233" y="584" type="line"/>
      <point x="444" y="584" type="line"/>
      <point x="494" y="838" type="line"/>
      <point x="283" y="838" type="line"/>
    </contour>
  </outline>
</glyph>
<glyph name="cedilla" format="2">
  <advance width="1024"/>
  <unicode hex="00B8"/>
  <outline>
    <contour>
      <point x="477" y="0" type="line"/>
      <point x="513" y="-51"/>
      <point x="547" y="-138"/>
      <point x="547" y="-180" type="qcurve" smooth="yes"/>
      <point x="547" y="-280"/>
      <point x="400" y="-395"/>
      <point x="272" y="-395" type="qcurve" smooth="yes"/>
      <point x="229" y="-395"/>
      <point x="143" y="-383"/>
      <point x="100" y="-371" type="qcurve"/>
      <point x="123" y="-240" type="line"/>
      <point x="162" y="-256"/>
      <point x="241" y="-272"/>
      <point x="283" y="-272" type="qcurve" smooth="yes"/>
      <point x="343" y="-272"/>
      <point x="414" y="-211"/>
      <point x="414" y="-158" type="qcurve" smooth="yes"/>
      <point x="414" y="-129"/>
      <point x="389" y="-57"/>
      <point x="358" y="0" type="qcurve"/>
    </contour>
  </outline>
</glyph>
<glyph name="onesuperior" format="2">
  <advance width="821"/>
  <unicode hex="00B9"/>
  <outline>
    <contour>
      <point x="156" y="778" type="line"/>
      <point x="360" y="778" type="line"/>
      <point x="479" y="1389" type="line"/>
      <point x="250" y="1348" type="line"/>
      <point x="272" y="1464" type="line"/>
      <point x="502" y="1503" type="line"/>
      <point x="647" y="1503" type="line"/>
      <point x="506" y="778" type="line"/>
      <point x="711" y="778" type="line"/>
      <point x="688" y="668" type="line"/>
      <point x="135" y="668" type="line"/>
    </contour>
  </outline>
</glyph>
<glyph name="ordmasculine" format="2">
  <advance width="965"/>
  <unicode hex="00BA"/>
  <outline>
    <contour>
      <point x="788" y="1180" type="qcurve" smooth="yes"/>
      <point x="788" y="1290"/>
      <point x="689" y="1405"/>
      <point x="592" y="1405" type="qcurve" smooth="yes"/>
      <point x="476" y="1405"/>
      <point x="307" y="1191"/>
      <point x="307" y="1040" type="qcurve" smooth="yes"/>
      <point x="307" y="931"/>
      <point x="406" y="813"/>
      <point x="498" y="813" type="qcurve" smooth="yes"/>
      <point x="620" y="813"/>
      <point x="788" y="1024"/>
    </contour>
    <contour>
      <point x="621" y="1520" type="qcurve" smooth="yes"/>
      <point x="769" y="1520"/>
      <point x="946" y="1348"/>
      <point x="946" y="1204" type="qcurve" smooth="yes"/>
      <point x="946" y="984"/>
      <point x="680" y="698"/>
      <point x="477" y="698" type="qcurve" smooth="yes"/>
      <point x="327" y="698"/>
      <point x="152" y="878"/>
      <point x="152" y="1032" type="qcurve" smooth="yes"/>
      <point x="152" y="1100"/>
      <point x="190" y="1233"/>
      <point x="227" y="1296" type="qcurve" smooth="yes"/>
      <point x="289" y="1402"/>
      <point x="497" y="1520"/>
    </contour>
    <contour>
      <point x="104" y="592" type="line"/>
      <point x="793" y="592" type="line"/>
      <point x="770" y="469" type="line"/>
      <point x="82" y="469" type="line"/>
    </contour>
  </outline>
</glyph>
<glyph name="guillemotright" format="2">
  <advance width="1264"/>
  <unicode hex="00BB"/>
  <outline>
    <contour>
      <point x="569" y="141" type="line"/>
      <point x="1120" y="559" type="line"/>
      <point x="1135" y="641" type="line"/>
      <point x="750" y="1059" type="line"/>
      <point x="711" y="879" type="line"/>
      <point x="963" y="612" type="line"/>
      <point x="608" y="342" type="line"/>
    </contour>
    <contour>
      <point x="127" y="141" type="line"/>
      <point x="676" y="559" type="line"/>
      <point x="690" y="641" type="line"/>
      <point x="305" y="1059" type="line"/>
      <point x="268" y="879" type="line"/>
      <point x="518" y="612" type="line"/>
      <point x="166" y="342" type="line"/>
    </contour>
  </outline>
</glyph>
<glyph name="questiondown" format="2">
  <advance width="1087"/>
  <unicode hex="00BF"/>
  <outline>
    <contour>
      <point x="422" y="-400" type="curve" smooth="yes"/>
      <point x="565" y="-400"/>
      <point x="697" y="-363"/>
      <point x="834" y="-287" type="curve"/>
      <point x="870" y="-99" type="line"/>
      <point x="731" y="-187"/>
      <point x="597" y="-236"/>
      <point x="489" y="-236" type="curve" smooth="yes"/>
      <point x="362" y="-236"/>
      <point x="285" y="-175"/>
      <point x="285" y="-74" type="curve" smooth="yes"/>
      <point x="285" y="2"/>
      <point x="324" y="66"/>
      <point x="436" y="159" type="curve" smooth="yes"/>
      <point x="543" y="248" type="line" smooth="yes"/>
      <point x="690" y="371"/>
      <point x="725" y="440"/>
      <point x="750" y="565" type="curve" smooth="yes"/>
      <point x="780" y="719" type="line"/>
      <point x="590" y="719" type="line"/>
      <point x="565" y="596" type="line" smooth="yes"/>
      <point x="542" y="476"/>
      <point x="519" y="435"/>
      <point x="406" y="344" type="curve" smooth="yes"/>
      <point x="303" y="260" type="line" smooth="yes"/>
      <point x="143" y="129"/>
      <point x="76" y="16"/>
      <point x="76" y="-121" type="curve" smooth="yes"/>
      <point x="76" y="-293"/>
      <point x="207" y="-400"/>
    </contour>
    <contour>
      <point x="612" y="866" type="line"/>
      <point x="815" y="866" type="line"/>
      <point x="864" y="1120" type="line"/>
      <point x="662" y="1120" type="line"/>
    </contour>
  </outline>
</glyph>
<glyph name="Aring" format="2">
  <advance width="1401"/>
  <unicode hex="00C5"/>
  <outline>
    <contour>
      <point x="1020" y="1626" type="qcurve" smooth="yes"/>
      <point x="1020" y="1689"/>
      <point x="931" y="1778"/>
      <point x="868" y="1778" type="qcurve" smooth="yes"/>
      <point x="804" y="1778"/>
      <point x="717" y="1691"/>
      <point x="717" y="1626" type="qcurve" smooth="yes"/>
      <point x="717" y="1563"/>
      <point x="804" y="1475"/>
      <point x="868" y="1475" type="qcurve" smooth="yes"/>
      <point x="931" y="1475"/>
      <point x="1020" y="1563"/>
    </contour>
    <contour>
      <point x="705" y="1407" type="line"/>
      <point x="651" y="1444"/>
      <point x="594" y="1557"/>
      <point x="594" y="1626" type="qcurve" smooth="yes"/>
      <point x="594" y="1740"/>
      <point x="754" y="1901"/>
      <point x="868" y="1901" type="qcurve" smooth="yes"/>
      <point x="982" y="1901"/>
      <point x="1143" y="1740"/>
      <point x="1143" y="1626" type="qcurve" smooth="yes"/>
      <point x="1143" y="1547"/>
      <point x="1070" y="1425"/>
      <point x="1001" y="1389" type="qcurve"/>
      <point x="1260" y="0" type="line"/>
      <point x="1049" y="0" type="line"/>
      <point x="987" y="383" type="line"/>
      <point x="315" y="383" type="line"/>
      <point x="104" y="0" type="line"/>
      <point x="-109" y="0" type="line"/>
    </contour>
    <contour>
      <point x="827" y="1294" type="line"/>
      <point x="408" y="551" type="line"/>
      <point x="956" y="551" type="line"/>
    </contour>
  </outline>
</glyph>
<glyph name="AE" format="2">
  <advance width="1995"/>
  <unicode hex="00C6"/>
  <outline>
    <contour>
      <point x="-92" y="0" type="line"/>
      <point x="113" y="0" type="line"/>
      <point x="348" y="383" type="line"/>
      <point x="874" y="383" type="line"/>
      <point x="801" y="0" type="line"/>
      <point x="1763" y="0" type="line"/>
      <point x="1796" y="170" type="line"/>
      <point x="1036" y="170" type="line"/>
      <point x="1141" y="711" type="line"/>
      <point x="1853" y="711" type="line"/>
      <point x="1886" y="881" type="line"/>
      <point x="1174" y="881" type="line"/>
      <point x="1262" y="1323" type="line"/>
      <point x="2003" y="1323" type="line"/>
      <point x="2036" y="1493" type="line"/>
      <point x="823" y="1493" type="line"/>
    </contour>
    <contour>
      <point x="449" y="551" type="line"/>
      <point x="932" y="1335" type="line"/>
      <point x="1061" y="1335" type="line"/>
      <point x="907" y="551" type="line"/>
    </contour>
  </outline>
</glyph>
<glyph name="Eth" format="2">
  <advance width="1587"/>
  <unicode hex="00D0"/>
  <outline>
    <contour>
      <point x="356" y="1493" type="line"/>
      <point x="791" y="1493" type="line" smooth="yes"/>
      <point x="1136" y="1493"/>
      <point x="1489" y="1200"/>
      <point x="1489" y="911" type="qcurve" smooth="yes"/>
      <point x="1489" y="721"/>
      <point x="1354" y="368"/>
      <point x="1235" y="246" type="qcurve" smooth="yes"/>
      <point x="1116" y="122"/>
      <point x="752" y="0"/>
      <point x="502" y="0" type="qcurve" smooth="yes"/>
      <point x="66" y="0" type="line"/>
      <point x="201" y="700" type="line"/>
      <point x="0" y="700" type="line"/>
      <point x="29" y="844" type="line"/>
      <point x="229" y="844" type="line"/>
    </contour>
    <contour>
      <point x="526" y="1327" type="line"/>
      <point x="432" y="844" type="line"/>
      <point x="768" y="844" type="line"/>
      <point x="739" y="700" type="line"/>
      <point x="403" y="700" type="line"/>
      <point x="301" y="166" type="line"/>
      <point x="565" y="166" type="line" smooth="yes"/>
      <point x="905" y="166"/>
      <point x="1276" y="556"/>
      <point x="1276" y="911" type="qcurve" smooth="yes"/>
      <point x="1276" y="1126"/>
      <point x="1036" y="1327"/>
      <point x="780" y="1327" type="qcurve" smooth="yes"/>
    </contour>
  </outline>
</glyph>
<glyph name="Oslash" format="2">
  <advance width="1612"/>
  <unicode hex="00D8"/>
  <anchor x="662" y="0" name="cedilla"/>
  <anchor x="662" y="0" name="below"/>
  <anchor x="295" y="1520" name="half"/>
  <anchor x="984" y="1520" name="above"/>
  <anchor x="662" y="0" name="ogonek"/>
  <outline>
    <contour>
      <point x="20" y="-66" type="line"/>
      <point x="240" y="137" type="line"/>
      <point x="341" y="28"/>
      <point x="487" y="-29"/>
      <point x="672" y="-29" type="curve" smooth="yes"/>
      <point x="924" y="-29"/>
      <point x="1127" y="71"/>
      <point x="1298" y="279" type="curve" smooth="yes"/>
      <point x="1447" y="459"/>
      <point x="1528" y="686"/>
      <point x="1528" y="922" type="curve" smooth="yes"/>
      <point x="1528" y="1053"/>
      <point x="1501" y="1165"/>
      <point x="1448" y="1262" type="curve"/>
      <point x="1657" y="1460" type="line"/>
      <point x="1567" y="1559" type="line"/>
      <point x="1364" y="1366" type="line"/>
      <point x="1252" y="1469"/>
      <point x="1113" y="1520"/>
      <point x="940" y="1520" type="curve" smooth="yes"/>
      <point x="688" y="1520"/>
      <point x="480" y="1417"/>
      <point x="313" y="1212" type="curve" smooth="yes"/>
      <point x="168" y="1032"/>
      <point x="82" y="796"/>
      <point x="82" y="575" type="curve" smooth="yes"/>
      <point x="82" y="462"/>
      <point x="108" y="353"/>
      <point x="160" y="246" type="curve"/>
      <point x="-70" y="33" type="line"/>
    </contour>
    <contour>
      <point x="678" y="135" type="curve" smooth="yes"/>
      <point x="546" y="135"/>
      <point x="449" y="179"/>
      <point x="381" y="270" type="curve"/>
      <point x="1288" y="1116" type="line"/>
      <point x="1307" y="1064"/>
      <point x="1315" y="1003"/>
      <point x="1315" y="928" type="curve" smooth="yes"/>
      <point x="1315" y="765"/>
      <point x="1273" y="608"/>
      <point x="1190" y="459" type="curve" smooth="yes"/>
      <point x="1069" y="244"/>
      <point x="897" y="135"/>
    </contour>
    <contour>
      <point x="319" y="395" type="line"/>
      <point x="303" y="454"/>
      <point x="295" y="511"/>
      <point x="295" y="571" type="curve" smooth="yes"/>
      <point x="295" y="723"/>
      <point x="339" y="887"/>
      <point x="422" y="1032" type="curve" smooth="yes"/>
      <point x="545" y="1248"/>
      <point x="714" y="1356"/>
      <point x="934" y="1356" type="curve" smooth="yes"/>
      <point x="1065" y="1356"/>
      <point x="1163" y="1315"/>
      <point x="1223" y="1235" type="curve"/>
    </contour>
  </outline>
</glyph>
<glyph name="Thorn" format="2">
  <advance width="1245"/>
  <unicode hex="00DE"/>
  <outline>
    <contour>
      <point x="55" y="0" type="line"/>
      <point x="258" y="0" type="line"/>
      <point x="324" y="338" type="line"/>
      <point x="580" y="338" type="line" smooth="yes"/>
      <point x="961" y="338"/>
      <point x="1182" y="528"/>
      <point x="1182" y="856" type="curve" smooth="yes"/>
      <point x="1182" y="1100"/>
      <point x="1036" y="1229"/>
      <point x="764" y="1229" type="curve" smooth="yes"/>
      <point x="498" y="1229" type="line"/>
      <point x="549" y="1493" type="line"/>
      <point x="346" y="1493" type="line"/>
    </contour>
    <contour>
      <point x="358" y="504" type="line"/>
      <point x="467" y="1063" type="line"/>
      <point x="731" y="1063" type="line" smooth="yes"/>
      <point x="883" y="1063"/>
      <point x="969" y="983"/>
      <point x="969" y="844" type="curve" smooth="yes"/>
      <point x="969" y="624"/>
      <point x="841" y="504"/>
      <point x="612" y="504" type="curve" smooth="yes"/>
    </contour>
  </outline>
</glyph>
<glyph name="germandbls" format="2">
  <advance width="1290"/>
  <unicode hex="00DF"/>
  <outline>
    <contour>
      <point x="317" y="1137" type="line"/>
      <point x="355" y="1334"/>
      <point x="620" y="1556"/>
      <point x="817" y="1556" type="qcurve" smooth="yes"/>
      <point x="991" y="1556"/>
      <point x="1208" y="1370"/>
      <point x="1208" y="1223" type="qcurve" smooth="yes"/>
      <point x="1208" y="1198"/>
      <point x="1202" y="1137"/>
      <point x="1196" y="1100" type="qcurve"/>
      <point x="1034" y="1092"/>
      <point x="834" y="957"/>
      <point x="834" y="860" type="qcurve" smooth="yes"/>
      <point x="834" y="820"/>
      <point x="876" y="748"/>
      <point x="924" y="711" type="qcurve" smooth="yes"/>
      <point x="973" y="672" type="line" smooth="yes"/>
      <point x="1092" y="578"/>
      <point x="1174" y="447"/>
      <point x="1174" y="367" type="qcurve" smooth="yes"/>
      <point x="1174" y="195"/>
      <point x="896" y="-29"/>
      <point x="678" y="-29" type="qcurve" smooth="yes"/>
      <point x="602" y="-29"/>
      <point x="462" y="-4"/>
      <point x="399" y="20" type="qcurve"/>
      <point x="430" y="184" type="line"/>
      <point x="495" y="155"/>
      <point x="634" y="125"/>
      <point x="705" y="125" type="qcurve" smooth="yes"/>
      <point x="829" y="125"/>
      <point x="983" y="239"/>
      <point x="983" y="330" type="qcurve" smooth="yes"/>
      <point x="983" y="375"/>
      <point x="936" y="453"/>
      <point x="858" y="520" type="qcurve" smooth="yes"/>
      <point x="807" y="563" type="line" smooth="yes"/>
      <point x="710" y="645"/>
      <point x="643" y="756"/>
      <point x="643" y="823" type="qcurve" smooth="yes"/>
      <point x="643" y="949"/>
      <point x="855" y="1151"/>
      <point x="1028" y="1188" type="qcurve"/>
      <point x="1030" y="1196"/>
      <point x="1032" y="1216"/>
      <point x="1032" y="1235" type="qcurve" smooth="yes"/>
      <point x="1032" y="1313"/>
      <point x="919" y="1403"/>
      <point x="819" y="1403" type="qcurve" smooth="yes"/>
      <point x="686" y="1403"/>
      <point x="526" y="1267"/>
      <point x="500" y="1133" type="qcurve" smooth="yes"/>
      <point x="281" y="0" type="line"/>
      <point x="96" y="0" type="line"/>
    </contour>
  </outline>
</glyph>
<glyph name="ae" format="2">
  <advance width="2038"/>
  <unicode hex="00E6"/>
  <anchor x="1109" y="1147" name="above"/>
  <anchor x="886" y="0" name="below"/>
  <outline>
    <contour>
      <point x="1763" y="660" type="line"/>
      <point x="1766" y="676"/>
      <point x="1769" y="710"/>
      <point x="1769" y="727" type="qcurve" smooth="yes"/>
      <point x="1769" y="849"/>
      <point x="1627" y="991"/>
      <point x="1503" y="991" type="qcurve" smooth="yes"/>
      <point x="1366" y="991"/>
      <point x="1156" y="818"/>
      <point x="1102" y="659" type="qcurve"/>
    </contour>
    <contour>
      <point x="319" y="1069" type="line"/>
      <point x="423" y="1108"/>
      <point x="622" y="1147"/>
      <point x="715" y="1147" type="qcurve" smooth="yes"/>
      <point x="859" y="1147"/>
      <point x="1045" y="1057"/>
      <point x="1090" y="965" type="qcurve"/>
      <point x="1176" y="1055"/>
      <point x="1400" y="1147"/>
      <point x="1532" y="1147" type="qcurve" smooth="yes"/>
      <point x="1722" y="1147"/>
      <point x="1948" y="919"/>
      <point x="1948" y="727" type="qcurve" smooth="yes"/>
      <point x="1948" y="681"/>
      <point x="1935" y="576"/>
      <point x="1923" y="516" type="qcurve"/>
      <point x="1067" y="516" type="line"/>
      <point x="1061" y="478"/>
      <point x="1057" y="434"/>
      <point x="1057" y="418" type="qcurve" smooth="yes"/>
      <point x="1057" y="279"/>
      <point x="1228" y="127"/>
      <point x="1384" y="127" type="qcurve" smooth="yes"/>
      <point x="1504" y="127"/>
      <point x="1719" y="181"/>
      <point x="1810" y="233" type="qcurve"/>
      <point x="1776" y="51" type="line"/>
      <point x="1676" y="11"/>
      <point x="1465" y="-29"/>
      <point x="1356" y="-29" type="qcurve" smooth="yes"/>
      <point x="1188" y="-29"/>
      <point x="961" y="86"/>
      <point x="905" y="199" type="qcurve"/>
      <point x="803" y="81"/>
      <point x="583" y="-29"/>
      <point x="451" y="-29" type="qcurve" smooth="yes"/>
      <point x="277" y="-29"/>
      <point x="84" y="135"/>
      <point x="84" y="283" type="qcurve" smooth="yes"/>
      <point x="84" y="479"/>
      <point x="397" y="707"/>
      <point x="672" y="707" type="qcurve" smooth="yes"/>
      <point x="928" y="707" type="line"/>
      <point x="938" y="756" type="line"/>
      <point x="940" y="764"/>
      <point x="942" y="783"/>
      <point x="942" y="803" type="qcurve" smooth="yes"/>
      <point x="942" y="892"/>
      <point x="797" y="991"/>
      <point x="666" y="991" type="qcurve" smooth="yes"/>
      <point x="576" y="991"/>
      <point x="387" y="945"/>
      <point x="287" y="899" type="qcurve"/>
    </contour>
    <contour>
      <point x="901" y="563" type="line"/>
      <point x="717" y="563" type="line" smooth="yes"/>
      <point x="491" y="563"/>
      <point x="274" y="442"/>
      <point x="274" y="315" type="qcurve" smooth="yes"/>
      <point x="274" y="227"/>
      <point x="385" y="127"/>
      <point x="483" y="127" type="qcurve" smooth="yes"/>
      <point x="633" y="127"/>
      <point x="857" y="342"/>
      <point x="893" y="522" type="qcurve" smooth="yes"/>
    </contour>
  </outline>
</glyph>
<glyph name="eth" format="2">
  <advance width="1253"/>
  <unicode hex="00F0"/>
  <anchor x="489" y="0" name="below"/>
  <anchor x="784" y="1520" name="above"/>
  <outline>
    <contour>
      <point x="526" y="-29" type="curve" smooth="yes"/>
      <point x="718" y="-29"/>
      <point x="887" y="56"/>
      <point x="999" y="211" type="curve" smooth="yes"/>
      <point x="1099" y="344"/>
      <point x="1153" y="519"/>
      <point x="1153" y="700" type="curve" smooth="yes"/>
      <point x="1153" y="857"/>
      <point x="1107" y="1005"/>
      <point x="1016" y="1141" type="curve" smooth="yes"/>
      <point x="889" y="1327" type="line"/>
      <point x="1202" y="1425" type="line"/>
      <point x="1167" y="1520" type="line"/>
      <point x="831" y="1411" type="line"/>
      <point x="735" y="1556" type="line"/>
      <point x="518" y="1556" type="line"/>
      <point x="657" y="1352" type="line"/>
      <point x="330" y="1255" type="line"/>
      <point x="362" y="1161" type="line"/>
      <point x="713" y="1268" type="line"/>
      <point x="837" y="1088" type="line"/>
      <point x="784" y="1095"/>
      <point x="746" y="1098"/>
      <point x="719" y="1098" type="curve" smooth="yes"/>
      <point x="534" y="1098"/>
      <point x="367" y="1013"/>
      <point x="250" y="858" type="curve" smooth="yes"/>
      <point x="149" y="723"/>
      <point x="92" y="561"/>
      <point x="92" y="401" type="curve" smooth="yes"/>
      <point x="92" y="141"/>
      <point x="262" y="-29"/>
    </contour>
    <contour>
      <point x="541" y="127" type="curve" smooth="yes"/>
      <point x="372" y="127"/>
      <point x="283" y="224"/>
      <point x="283" y="408" type="curve" smooth="yes"/>
      <point x="283" y="727"/>
      <point x="470" y="948"/>
      <point x="739" y="948" type="curve" smooth="yes"/>
      <point x="798" y="948"/>
      <point x="856" y="938"/>
      <point x="913" y="915" type="curve"/>
      <point x="950" y="855"/>
      <point x="967" y="785"/>
      <point x="967" y="694" type="curve" smooth="yes"/>
      <point x="967" y="369"/>
      <point x="784" y="127"/>
    </contour>
  </outline>
</glyph>
<glyph name="divide" format="2">
  <advance width="1716"/>
  <unicode hex="00F7"/>
  <outline>
    <contour>
      <point x="217" y="557" type="line"/>
      <point x="1499" y="557" type="line"/>
      <point x="1499" y="727" type="line"/>
      <point x="217" y="727" type="line"/>
    </contour>
    <contour>
      <point x="735" y="150" type="line"/>
      <point x="981" y="150" type="line"/>
      <point x="981" y="395" type="line"/>
      <point x="735" y="395" type="line"/>
    </contour>
    <contour>
      <point x="735" y="889" type="line"/>
      <point x="981" y="889" type="line"/>
      <point x="981" y="1135" type="line"/>
      <point x="735" y="1135" type="line"/>
    </contour>
  </outline>
</glyph>
<glyph name="oslash" format="2">
  <advance width="1253"/>
  <unicode hex="00F8"/>
  <anchor x="528" y="0" name="cedilla"/>
  <anchor x="733" y="1147" name="above"/>
  <anchor x="528" y="0" name="below"/>
  <anchor x="295" y="1520" name="half"/>
  <anchor x="528" y="0" name="ogonek"/>
  <outline>
    <contour>
      <point x="901" y="922" type="line"/>
      <point x="864" y="957"/>
      <point x="771" y="991"/>
      <point x="713" y="991" type="qcurve" smooth="yes"/>
      <point x="527" y="991"/>
      <point x="287" y="670"/>
      <point x="287" y="420" type="qcurve" smooth="yes"/>
      <point x="287" y="373"/>
      <point x="290" y="332"/>
      <point x="295" y="315" type="qcurve"/>
    </contour>
    <contour>
      <point x="154" y="172" type="line"/>
      <point x="124" y="221"/>
      <point x="94" y="347"/>
      <point x="94" y="422" type="qcurve" smooth="yes"/>
      <point x="94" y="544"/>
      <point x="173" y="799"/>
      <point x="236" y="885" type="qcurve" smooth="yes"/>
      <point x="334" y="1019"/>
      <point x="577" y="1147"/>
      <point x="733" y="1147" type="qcurve" smooth="yes"/>
      <point x="820" y="1147"/>
      <point x="968" y="1095"/>
      <point x="1026" y="1044" type="qcurve"/>
      <point x="1188" y="1208" type="line"/>
      <point x="1274" y="1122" type="line"/>
      <point x="1102" y="950" type="line"/>
      <point x="1130" y="895"/>
      <point x="1159" y="770"/>
      <point x="1159" y="702" type="qcurve" smooth="yes"/>
      <point x="1159" y="578"/>
      <point x="1080" y="319"/>
      <point x="1018" y="233" type="qcurve" smooth="yes"/>
      <point x="921" y="99"/>
      <point x="678" y="-29"/>
      <point x="520" y="-29" type="qcurve" smooth="yes"/>
      <point x="433" y="-29"/>
      <point x="286" y="24"/>
      <point x="229" y="76" type="qcurve"/>
      <point x="57" y="-94" type="line"/>
      <point x="-29" y="-10" type="line"/>
    </contour>
    <contour>
      <point x="961" y="809" type="qcurve"/>
      <point x="352" y="199" type="line"/>
      <point x="391" y="162"/>
      <point x="482" y="127"/>
      <point x="541" y="127" type="qcurve" smooth="yes"/>
      <point x="730" y="127"/>
      <point x="969" y="454"/>
      <point x="969" y="717" type="qcurve" smooth="yes"/>
      <point x="969" y="756"/>
      <point x="965" y="794"/>
    </contour>
  </outline>
</glyph>
<glyph name="thorn" format="2">
  <advance width="1300"/>
  <unicode hex="00FE"/>
  <outline>
    <contour>
      <point x="1016" y="690" type="qcurve" smooth="yes"/>
      <point x="1016" y="837"/>
      <point x="888" y="993"/>
      <point x="768" y="993" type="qcurve" smooth="yes"/>
      <point x="686" y="993"/>
      <point x="537" y="909"/>
      <point x="479" y="829" type="qcurve" smooth="yes"/>
      <point x="422" y="750"/>
      <point x="354" y="526"/>
      <point x="354" y="416" type="qcurve" smooth="yes"/>
      <point x="354" y="276"/>
      <point x="482" y="125"/>
      <point x="600" y="125" type="qcurve" smooth="yes"/>
      <point x="687" y="125"/>
      <point x="836" y="207"/>
      <point x="889" y="285" type="qcurve" smooth="yes"/>
      <point x="946" y="367"/>
      <point x="1016" y="589"/>
    </contour>
    <contour>
      <point x="446" y="950" type="line"/>
      <point x="520" y="1047"/>
      <point x="721" y="1147"/>
      <point x="844" y="1147" type="qcurve" smooth="yes"/>
      <point x="1016" y="1147"/>
      <point x="1206" y="922"/>
      <point x="1206" y="719" type="qcurve" smooth="yes"/>
      <point x="1206" y="553"/>
      <point x="1088" y="252"/>
      <point x="977" y="133" type="qcurve" smooth="yes"/>
      <point x="903" y="54"/>
      <point x="717" y="-29"/>
      <point x="614" y="-29" type="qcurve" smooth="yes"/>
      <point x="495" y="-29"/>
      <point x="333" y="70"/>
      <point x="293" y="168" type="qcurve"/>
      <point x="178" y="-426" type="line"/>
      <point x="-6" y="-426" type="line"/>
      <point x="375" y="1556" type="line"/>
      <point x="559" y="1556" type="line"/>
    </contour>
  </outline>
</glyph>
<glyph name="dcroat" format="2">
  <advance width="1300"/>
  <unicode hex="0111"/>
  <outline>
    <contour>
      <point x="457" y="-29" type="curve" smooth="yes"/>
      <point x="621" y="-29"/>
      <point x="757" y="39"/>
      <point x="856" y="168" type="curve"/>
      <point x="821" y="0" type="line"/>
      <point x="1006" y="0" type="line"/>
      <point x="1255" y="1284" type="line"/>
      <point x="1409" y="1284" type="line"/>
      <point x="1436" y="1407" type="line"/>
      <point x="1282" y="1407" type="line"/>
      <point x="1309" y="1556" type="line"/>
      <point x="1124" y="1556" type="line"/>
      <point x="1098" y="1407" type="line"/>
      <point x="772" y="1407" type="line"/>
      <point x="745" y="1284" type="line"/>
      <point x="1071" y="1284" type="line"/>
      <point x="1004" y="946" type="line"/>
      <point x="944" y="1075"/>
      <point x="830" y="1147"/>
      <point x="686" y="1147" type="curve" smooth="yes"/>
      <point x="550" y="1147"/>
      <point x="423" y="1090"/>
      <point x="324" y="985" type="curve" smooth="yes"/>
      <point x="175" y="826"/>
      <point x="94" y="620"/>
      <point x="94" y="399" type="curve" smooth="yes"/>
      <point x="94" y="134"/>
      <point x="233" y="-29"/>
    </contour>
    <contour>
      <point x="532" y="125" type="curve" smooth="yes"/>
      <point x="377" y="125"/>
      <point x="285" y="239"/>
      <point x="285" y="432" type="curve" smooth="yes"/>
      <point x="285" y="567"/>
      <point x="335" y="725"/>
      <point x="412" y="836" type="curve" smooth="yes"/>
      <point x="483" y="939"/>
      <point x="586" y="995"/>
      <point x="702" y="995" type="curve" smooth="yes"/>
      <point x="855" y="995"/>
      <point x="948" y="885"/>
      <point x="948" y="700" type="curve" smooth="yes"/>
      <point x="948" y="557"/>
      <point x="900" y="401"/>
      <point x="821" y="289" type="curve" smooth="yes"/>
      <point x="746" y="181"/>
      <point x="647" y="125"/>
    </contour>
  </outline>
</glyph>
<glyph name="Hbar" format="2">
  <advance width="1876"/>
  <unicode hex="0126"/>
  <anchor x="1101" y="1520" name="above"/>
  <anchor x="793" y="0" name="below"/>
  <outline>
    <contour>
      <point x="514" y="1493" type="line"/>
      <point x="716" y="1493" type="line"/>
      <point x="673" y="1269" type="line"/>
      <point x="1407" y="1269" type="line"/>
      <point x="1450" y="1493" type="line"/>
      <point x="1652" y="1493" type="line"/>
      <point x="1609" y="1269" type="line"/>
      <point x="1777" y="1269" type="line"/>
      <point x="1745" y="1105" type="line"/>
      <point x="1577" y="1105" type="line"/>
      <point x="1362" y="0" type="line"/>
      <point x="1160" y="0" type="line"/>
      <point x="1298" y="711" type="line"/>
      <point x="564" y="711" type="line"/>
      <point x="426" y="0" type="line"/>
      <point x="224" y="0" type="line"/>
      <point x="439" y="1105" type="line"/>
      <point x="271" y="1105" type="line"/>
      <point x="303" y="1269" type="line"/>
      <point x="471" y="1269" type="line"/>
    </contour>
    <contour>
      <point x="641" y="1105" type="line"/>
      <point x="597" y="881" type="line"/>
      <point x="1331" y="881" type="line"/>
      <point x="1375" y="1105" type="line"/>
    </contour>
  </outline>
</glyph>
<glyph name="hbar" format="2">
  <advance width="1423"/>
  <unicode hex="0127"/>
  <anchor x="569" y="0" name="below"/>
  <anchor x="476" y="1520" name="above"/>
  <outline>
    <contour>
      <point x="94" y="0" type="line"/>
      <point x="279" y="0" type="line"/>
      <point x="402" y="633" type="line" smooth="yes"/>
      <point x="423" y="742"/>
      <point x="469" y="829"/>
      <point x="538" y="892" type="curve" smooth="yes"/>
      <point x="608" y="955"/>
      <point x="693" y="987"/>
      <point x="792" y="987" type="curve" smooth="yes"/>
      <point x="874" y="987"/>
      <point x="931" y="961"/>
      <point x="963" y="908" type="curve" smooth="yes"/>
      <point x="981" y="876"/>
      <point x="990" y="835"/>
      <point x="990" y="784" type="curve" smooth="yes"/>
      <point x="990" y="750"/>
      <point x="986" y="712"/>
      <point x="978" y="670" type="curve" smooth="yes"/>
      <point x="848" y="0" type="line"/>
      <point x="1032" y="0" type="line"/>
      <point x="1163" y="676" type="line" smooth="yes"/>
      <point x="1174" y="734"/>
      <point x="1180" y="786"/>
      <point x="1180" y="834" type="curve" smooth="yes"/>
      <point x="1180" y="913"/>
      <point x="1164" y="978"/>
      <point x="1133" y="1028" type="curve" smooth="yes"/>
      <point x="1082" y="1107"/>
      <point x="992" y="1147"/>
      <point x="864" y="1147" type="curve" smooth="yes"/>
      <point x="786" y="1147"/>
      <point x="714" y="1130"/>
      <point x="648" y="1097" type="curve" smooth="yes"/>
      <point x="581" y="1064"/>
      <point x="520" y="1013"/>
      <point x="463" y="946" type="curve"/>
      <point x="526" y="1270" type="line"/>
      <point x="878" y="1270" type="line"/>
      <point x="910" y="1434" type="line"/>
      <point x="558" y="1434" type="line"/>
      <point x="581" y="1556" type="line"/>
      <point x="396" y="1556" type="line"/>
      <point x="373" y="1434" type="line"/>
      <point x="248" y="1434" type="line"/>
      <point x="216" y="1270" type="line"/>
      <point x="341" y="1270" type="line"/>
    </contour>
  </outline>
</glyph>
<glyph name="dotlessi" format="2">
  <advance width="569"/>
  <unicode hex="0131"/>
  <anchor x="156" y="0" name="below"/>
  <anchor x="156" y="0" name="cedilla"/>
  <anchor x="295" y="1520" name="half"/>
  <anchor x="197" y="0" name="ogonek"/>
  <anchor x="360" y="1147" name="above"/>
  <outline>
    <contour>
      <point x="291" y="1120" type="line"/>
      <point x="475" y="1120" type="line"/>
      <point x="256" y="0" type="line"/>
      <point x="72" y="0" type="line"/>
    </contour>
  </outline>
</glyph>
<glyph name="kgreenlandic" format="2">
  <advance width="1186"/>
  <unicode hex="0138"/>
  <anchor x="792" y="1147" name="above"/>
  <anchor x="569" y="0" name="below"/>
  <outline>
    <contour>
      <point x="77" y="0" type="line"/>
      <point x="262" y="0" type="line"/>
      <point x="368" y="545" type="line"/>
      <point x="831" y="0" type="line"/>
      <point x="1071" y="0" type="line"/>
      <point x="568" y="594" type="line"/>
      <point x="1264" y="1120" type="line"/>
      <point x="1029" y="1120" type="line"/>
      <point x="386" y="635" type="line"/>
      <point x="480" y="1120" type="line"/>
      <point x="295" y="1120" type="line"/>
    </contour>
  </outline>
</glyph>
<glyph name="Lslash" format="2">
  <advance width="1151"/>
  <unicode hex="0141"/>
  <outline>
    <contour>
      <point x="354" y="1493" type="line"/>
      <point x="557" y="1493" type="line"/>
      <point x="432" y="860" type="line"/>
      <point x="784" y="1016" type="line"/>
      <point x="840" y="891" type="line"/>
      <point x="401" y="698" type="line"/>
      <point x="301" y="168" type="line"/>
      <point x="1028" y="168" type="line"/>
      <point x="995" y="0" type="line"/>
      <point x="66" y="0" type="line"/>
      <point x="180" y="600" type="line"/>
      <point x="16" y="524" type="line"/>
      <point x="-41" y="647" type="line"/>
      <point x="211" y="760" type="line"/>
    </contour>
  </outline>
</glyph>
<glyph name="lslash" format="2">
  <advance width="588"/>
  <unicode hex="0142"/>
  <outline>
    <contour>
      <point x="86" y="0" type="line"/>
      <point x="270" y="0" type="line"/>
      <point x="428" y="793" type="line"/>
      <point x="651" y="895" type="line"/>
      <point x="598" y="1014" type="line"/>
      <point x="457" y="950" type="line"/>
      <point x="573" y="1556" type="line"/>
      <point x="389" y="1556" type="line"/>
      <point x="254" y="856" type="line"/>
      <point x="35" y="758" type="line"/>
      <point x="88" y="639" type="line"/>
      <point x="223" y="700" type="line"/>
    </contour>
  </outline>
</glyph>
<glyph name="Eng" format="2">
  <advance width="1532"/>
  <unicode hex="014A"/>
  <outline>
    <contour>
      <point x="685" y="-426" type="line"/>
      <point x="772" y="-426" type="line" smooth="yes"/>
      <point x="1013" y="-426"/>
      <point x="1140" y="-304"/>
      <point x="1195" y="-20" type="curve" smooth="yes"/>
      <point x="1372" y="893" type="line" smooth="yes"/>
      <point x="1389" y="978"/>
      <point x="1397" y="1054"/>
      <point x="1397" y="1122" type="curve" smooth="yes"/>
      <point x="1397" y="1387"/>
      <point x="1276" y="1520"/>
      <point x="1034" y="1520" type="curve" smooth="yes"/>
      <point x="830" y="1520"/>
      <point x="679" y="1431"/>
      <point x="540" y="1252" type="curve"/>
      <point x="587" y="1493" type="line"/>
      <point x="385" y="1493" type="line"/>
      <point x="95" y="0" type="line"/>
      <point x="297" y="0" type="line"/>
      <point x="461" y="846" type="line" smooth="yes"/>
      <point x="519" y="1142"/>
      <point x="709" y="1323"/>
      <point x="948" y="1323" type="curve" smooth="yes"/>
      <point x="1109" y="1323"/>
      <point x="1189" y="1235"/>
      <point x="1189" y="1058" type="curve" smooth="yes"/>
      <point x="1189" y="1010"/>
      <point x="1183" y="956"/>
      <point x="1172" y="895" type="curve" smooth="yes"/>
      <point x="994" y="-20" type="line" smooth="yes"/>
      <point x="952" y="-233"/>
      <point x="901" y="-270"/>
      <point x="764" y="-270" type="curve" smooth="yes"/>
      <point x="715" y="-270" type="line"/>
    </contour>
  </outline>
</glyph>
<glyph name="eng" format="2">
  <advance width="1298"/>
  <unicode hex="014B"/>
  <anchor x="749" y="1147" name="above"/>
  <anchor x="483" y="-430" name="below"/>
  <outline>
    <contour>
      <point x="1141" y="676" type="qcurve"/>
      <point x="1005.63" y="-25" type="line" smooth="yes"/>
      <point x="968.776" y="-215.859"/>
      <point x="920.632" y="-287" type="qcurve" smooth="yes"/>
      <point x="875.632" y="-354"/>
      <point x="702.632" y="-426"/>
      <point x="584.632" y="-426" type="qcurve" smooth="yes"/>
      <point x="326" y="-426" type="line"/>
      <point x="356" y="-270" type="line"/>
      <point x="592.632" y="-270" type="line" smooth="yes"/>
      <point x="700.632" y="-270"/>
      <point x="791.668" y="-179.964"/>
      <point x="822.632" y="-20" type="qcurve" smooth="yes"/>
      <point x="956" y="669" type="line" smooth="yes"/>
      <point x="965" y="716"/>
      <point x="975" y="788"/>
      <point x="975" y="809" type="qcurve" smooth="yes"/>
      <point x="975" y="893"/>
      <point x="869" y="987"/>
      <point x="774" y="987" type="qcurve" smooth="yes"/>
      <point x="626" y="987"/>
      <point x="412" y="790"/>
      <point x="379" y="621" type="qcurve"/>
      <point x="256" y="0" type="line"/>
      <point x="72" y="0" type="line"/>
      <point x="289" y="1120" type="line"/>
      <point x="473" y="1120" type="line"/>
      <point x="436" y="944" type="line"/>
      <point x="513" y="1041"/>
      <point x="729" y="1147"/>
      <point x="848" y="1147" type="qcurve" smooth="yes"/>
      <point x="996" y="1147"/>
      <point x="1159" y="987"/>
      <point x="1159" y="842" type="qcurve" smooth="yes"/>
      <point x="1159" y="806"/>
      <point x="1150" y="724"/>
    </contour>
  </outline>
</glyph>
<glyph name="OE" format="2">
  <advance width="2191"/>
  <unicode hex="0152"/>
  <outline>
    <contour>
      <point x="825" y="0" type="curve" smooth="yes"/>
      <point x="1915" y="0" type="line"/>
      <point x="1948" y="170" type="line"/>
      <point x="1188" y="170" type="line"/>
      <point x="1292" y="711" type="line"/>
      <point x="2003" y="711" type="line"/>
      <point x="2036" y="881" type="line"/>
      <point x="1325" y="881" type="line"/>
      <point x="1413" y="1323" type="line"/>
      <point x="2152" y="1323" type="line"/>
      <point x="2185" y="1493" type="line"/>
      <point x="1149" y="1493" type="line" smooth="yes"/>
      <point x="849" y="1493"/>
      <point x="615" y="1429"/>
      <point x="451" y="1298" type="curve" smooth="yes"/>
      <point x="222" y="1118"/>
      <point x="94" y="861"/>
      <point x="94" y="582" type="curve" smooth="yes"/>
      <point x="94" y="331"/>
      <point x="199" y="159"/>
      <point x="408" y="66" type="curve" smooth="yes"/>
      <point x="512" y="19"/>
      <point x="609" y="0"/>
    </contour>
    <contour>
      <point x="807" y="170" type="line" smooth="yes"/>
      <point x="478" y="170"/>
      <point x="307" y="311"/>
      <point x="307" y="582" type="curve" smooth="yes"/>
      <point x="307" y="823"/>
      <point x="401" y="1027"/>
      <point x="578" y="1174" type="curve" smooth="yes"/>
      <point x="694" y="1271"/>
      <point x="869" y="1323"/>
      <point x="1090" y="1323" type="curve" smooth="yes"/>
      <point x="1210" y="1323" type="line"/>
      <point x="985" y="170" type="line"/>
      <point x="856" y="170" type="line"/>
    </contour>
  </outline>
</glyph>
<glyph name="oe" format="2">
  <advance width="2105"/>
  <unicode hex="0153"/>
  <anchor x="1158" y="1147" name="above"/>
  <anchor x="935" y="0" name="below"/>
  <outline>
    <contour>
      <point x="520" y="-29" type="curve" smooth="yes"/>
      <point x="700" y="-29"/>
      <point x="852" y="40"/>
      <point x="987" y="180" type="curve"/>
      <point x="1050" y="48"/>
      <point x="1210" y="-29"/>
      <point x="1425" y="-29" type="curve" smooth="yes"/>
      <point x="1570" y="-29"/>
      <point x="1711" y="-1"/>
      <point x="1843" y="51" type="curve"/>
      <point x="1880" y="233" type="line"/>
      <point x="1759" y="164"/>
      <point x="1612" y="127"/>
      <point x="1452" y="127" type="curve" smooth="yes"/>
      <point x="1244" y="127"/>
      <point x="1126" y="233"/>
      <point x="1126" y="418" type="curve" smooth="yes"/>
      <point x="1126" y="446"/>
      <point x="1130" y="480"/>
      <point x="1135" y="516" type="curve"/>
      <point x="1991" y="516" type="line"/>
      <point x="2007" y="596"/>
      <point x="2015" y="666"/>
      <point x="2015" y="727" type="curve" smooth="yes"/>
      <point x="2015" y="983"/>
      <point x="1854" y="1147"/>
      <point x="1599" y="1147" type="curve" smooth="yes"/>
      <point x="1410" y="1147"/>
      <point x="1248" y="1071"/>
      <point x="1116" y="922" type="curve"/>
      <point x="1044" y="1066"/>
      <point x="906" y="1147"/>
      <point x="733" y="1147" type="curve" smooth="yes"/>
      <point x="528" y="1147"/>
      <point x="368" y="1064"/>
      <point x="236" y="885" type="curve" smooth="yes"/>
      <point x="148" y="768"/>
      <point x="94" y="584"/>
      <point x="94" y="401" type="curve" smooth="yes"/>
      <point x="94" y="145"/>
      <point x="265" y="-29"/>
    </contour>
    <contour>
      <point x="541" y="127" type="curve" smooth="yes"/>
      <point x="369" y="127"/>
      <point x="285" y="227"/>
      <point x="285" y="430" type="curve" smooth="yes"/>
      <point x="285" y="565"/>
      <point x="320" y="696"/>
      <point x="383" y="795" type="curve" smooth="yes"/>
      <point x="468" y="927"/>
      <point x="574" y="991"/>
      <point x="713" y="991" type="curve" smooth="yes"/>
      <point x="882" y="991"/>
      <point x="969" y="892"/>
      <point x="969" y="696" type="curve" smooth="yes"/>
      <point x="969" y="364"/>
      <point x="788" y="127"/>
    </contour>
    <contour>
      <point x="1169" y="659" type="line"/>
      <point x="1242" y="871"/>
      <point x="1387" y="991"/>
      <point x="1571" y="991" type="curve" smooth="yes"/>
      <point x="1735" y="991"/>
      <point x="1837" y="890"/>
      <point x="1837" y="727" type="curve" smooth="yes"/>
      <point x="1837" y="704"/>
      <point x="1835" y="681"/>
      <point x="1831" y="660" type="curve"/>
    </contour>
  </outline>
</glyph>
<glyph name="Tbar" format="2">
  <advance width="1251"/>
  <unicode hex="0166"/>
  <anchor x="777" y="1520" name="above"/>
  <anchor x="482" y="0" name="below"/>
  <anchor x="150" y="1520" name="half"/>
  <outline>
    <contour>
      <point x="379" y="0" type="line"/>
      <point x="582" y="0" type="line"/>
      <point x="694" y="577" type="line"/>
      <point x="959" y="577" type="line"/>
      <point x="992" y="747" type="line"/>
      <point x="727" y="747" type="line"/>
      <point x="839" y="1323" type="line"/>
      <point x="1369" y="1323" type="line"/>
      <point x="1402" y="1493" type="line"/>
      <point x="139" y="1493" type="line"/>
      <point x="106" y="1323" type="line"/>
      <point x="636" y="1323" type="line"/>
      <point x="524" y="747" type="line"/>
      <point x="259" y="747" type="line"/>
      <point x="226" y="577" type="line"/>
      <point x="491" y="577" type="line"/>
    </contour>
  </outline>
</glyph>
<glyph name="tbar" format="2">
  <advance width="803"/>
  <unicode hex="0167"/>
  <anchor x="438" y="1520" name="above"/>
  <anchor x="360" y="0" name="below"/>
  <anchor x="156" y="1520" name="half"/>
  <outline>
    <contour>
      <point x="515" y="1438" type="line"/>
      <point x="453" y="1120" type="line"/>
      <point x="832" y="1120" type="line"/>
      <point x="804" y="977" type="line"/>
      <point x="425" y="977" type="line"/>
      <point x="380" y="744" type="line"/>
      <point x="759" y="744" type="line"/>
      <point x="731" y="602" type="line"/>
      <point x="352" y="602" type="line"/>
      <point x="307" y="369" type="line" smooth="yes"/>
      <point x="280" y="232"/>
      <point x="340" y="154"/>
      <point x="455" y="154" type="qcurve" smooth="yes"/>
      <point x="644" y="154" type="line"/>
      <point x="614" y="0" type="line"/>
      <point x="425" y="0" type="line" smooth="yes"/>
      <point x="212" y="0"/>
      <point x="147" y="80" type="qcurve" smooth="yes"/>
      <point x="81" y="159"/>
      <point x="122" y="369" type="qcurve" smooth="yes"/>
      <point x="167" y="602" type="line"/>
      <point x="32" y="602" type="line"/>
      <point x="60" y="744" type="line"/>
      <point x="195" y="744" type="line"/>
      <point x="240" y="977" type="line"/>
      <point x="105" y="977" type="line"/>
      <point x="133" y="1120" type="line"/>
      <point x="268" y="1120" type="line"/>
      <point x="330" y="1438" type="line"/>
    </contour>
  </outline>
</glyph>
<glyph name="longs" format="2">
  <advance width="721"/>
  <unicode hex="017F"/>
  <anchor x="232" y="0" name="below"/>
  <anchor x="627" y="1520" name="above"/>
  <anchor x="295" y="1520" name="half"/>
  <outline>
    <contour>
      <point x="139" y="0" type="line"/>
      <point x="324" y="0" type="line"/>
      <point x="561" y="1219" type="line" smooth="yes"/>
      <point x="576" y="1289"/>
      <point x="598" y="1337"/>
      <point x="628" y="1364" type="curve" smooth="yes"/>
      <point x="659" y="1390"/>
      <point x="707" y="1403"/>
      <point x="774" y="1403" type="curve" smooth="yes"/>
      <point x="950" y="1403" type="line"/>
      <point x="979" y="1556" type="line"/>
      <point x="805" y="1556" type="line" smooth="yes"/>
      <point x="668" y="1556"/>
      <point x="568" y="1529"/>
      <point x="504" y="1476" type="curve" smooth="yes"/>
      <point x="441" y="1423"/>
      <point x="396" y="1330"/>
      <point x="371" y="1198" type="curve" smooth="yes"/>
      <point x="356" y="1120" type="line"/>
      <point x="180" y="1120" type="line"/>
      <point x="154" y="977" type="line"/>
      <point x="330" y="977" type="line"/>
    </contour>
  </outline>
</glyph>
<glyph name="uni0180" format="2">
  <advance width="1300"/>
  <unicode hex="0180"/>
  <anchor x="425" y="1520" name="above"/>
  <outline>
    <contour>
      <point x="575" y="-29" type="curve" smooth="yes"/>
      <point x="711" y="-29"/>
      <point x="832" y="25"/>
      <point x="938" y="133" type="curve" smooth="yes"/>
      <point x="1044" y="241"/>
      <point x="1114" y="383"/>
      <point x="1148" y="559" type="curve" smooth="yes"/>
      <point x="1183" y="735"/>
      <point x="1168" y="877"/>
      <point x="1104" y="985" type="curve" smooth="yes"/>
      <point x="1040" y="1093"/>
      <point x="940" y="1147"/>
      <point x="804" y="1147" type="curve" smooth="yes"/>
      <point x="722" y="1147"/>
      <point x="648" y="1131"/>
      <point x="583" y="1098" type="curve" smooth="yes"/>
      <point x="518" y="1066"/>
      <point x="459" y="1017"/>
      <point x="407" y="950" type="curve"/>
      <point x="472" y="1284" type="line"/>
      <point x="797" y="1284" type="line"/>
      <point x="821" y="1409" type="line"/>
      <point x="496" y="1409" type="line"/>
      <point x="525" y="1556" type="line"/>
      <point x="340" y="1556" type="line"/>
      <point x="311" y="1409" type="line"/>
      <point x="157" y="1409" type="line"/>
      <point x="133" y="1284" type="line"/>
      <point x="287" y="1284" type="line"/>
      <point x="38" y="0" type="line"/>
      <point x="223" y="0" type="line"/>
      <point x="255" y="168" type="line"/>
      <point x="281" y="101"/>
      <point x="320" y="52"/>
      <point x="373" y="20" type="curve" smooth="yes"/>
      <point x="426" y="-13"/>
      <point x="493" y="-29"/>
    </contour>
    <contour>
      <point x="560" y="125" type="curve" smooth="yes"/>
      <point x="463" y="125"/>
      <point x="394" y="163"/>
      <point x="353" y="240" type="curve" smooth="yes"/>
      <point x="312" y="317"/>
      <point x="305" y="424"/>
      <point x="331" y="559" type="curve" smooth="yes"/>
      <point x="358" y="694"/>
      <point x="406" y="801"/>
      <point x="477" y="878" type="curve" smooth="yes"/>
      <point x="548" y="955"/>
      <point x="632" y="993"/>
      <point x="729" y="993" type="curve" smooth="yes"/>
      <point x="826" y="993"/>
      <point x="895" y="955"/>
      <point x="936" y="878" type="curve" smooth="yes"/>
      <point x="977" y="801"/>
      <point x="984" y="694"/>
      <point x="957" y="559" type="curve" smooth="yes"/>
      <point x="931" y="424"/>
      <point x="883" y="317"/>
      <point x="812" y="240" type="curve" smooth="yes"/>
      <point x="741" y="163"/>
      <point x="657" y="125"/>
    </contour>
  </outline>
</glyph>
<glyph name="uni0181" format="2">
  <advance width="1505"/>
  <unicode hex="0181"/>
  <outline>
    <contour>
      <point x="642" y="713" type="line"/>
      <point x="535" y="166" type="line"/>
      <point x="859" y="166" type="line" smooth="yes"/>
      <point x="1022" y="166"/>
      <point x="1114" y="234" type="qcurve" smooth="yes"/>
      <point x="1206" y="301"/>
      <point x="1233" y="440" type="qcurve" smooth="yes"/>
      <point x="1260" y="580"/>
      <point x="1194" y="646" type="qcurve" smooth="yes"/>
      <point x="1129" y="713"/>
      <point x="966" y="713" type="qcurve" smooth="yes"/>
    </contour>
    <contour>
      <point x="1107" y="1493" type="line" smooth="yes"/>
      <point x="1338" y="1493"/>
      <point x="1445" y="1397" type="qcurve" smooth="yes"/>
      <point x="1551" y="1301"/>
      <point x="1516" y="1124" type="qcurve" smooth="yes"/>
      <point x="1490" y="987"/>
      <point x="1330" y="825"/>
      <point x="1202" y="805" type="qcurve"/>
      <point x="1345" y="773"/>
      <point x="1408" y="672" type="qcurve" smooth="yes"/>
      <point x="1471" y="570"/>
      <point x="1441" y="418" type="qcurve" smooth="yes"/>
      <point x="1402" y="218"/>
      <point x="1088" y="0"/>
      <point x="837" y="0" type="qcurve" smooth="yes"/>
      <point x="301" y="0" type="line"/>
      <point x="559" y="1327" type="line"/>
      <point x="417" y="1327"/>
      <point x="348" y="1280" type="qcurve" smooth="yes"/>
      <point x="292" y="1242"/>
      <point x="270" y="1128" type="qcurve" smooth="yes"/>
      <point x="261" y="1079" type="line"/>
      <point x="105" y="1079" type="line"/>
      <point x="118" y="1149" type="line" smooth="yes"/>
      <point x="154" y="1330"/>
      <point x="265" y="1412" type="qcurve" smooth="yes"/>
      <point x="377" y="1493"/>
      <point x="591" y="1493" type="qcurve" smooth="yes"/>
    </contour>
    <contour>
      <point x="761" y="1327" type="line"/>
      <point x="673" y="877" type="line"/>
      <point x="972" y="877" type="line" smooth="yes"/>
      <point x="1120" y="877"/>
      <point x="1204" y="932" type="qcurve" smooth="yes"/>
      <point x="1287" y="988"/>
      <point x="1309" y="1102" type="qcurve" smooth="yes"/>
      <point x="1331" y="1215"/>
      <point x="1270" y="1271" type="qcurve" smooth="yes"/>
      <point x="1208" y="1327"/>
      <point x="1060" y="1327" type="qcurve" smooth="yes"/>
    </contour>
  </outline>
</glyph>
<glyph name="uni0183" format="2">
  <advance width="1300"/>
  <unicode hex="0183"/>
  <outline>
    <contour>
      <point x="575" y="-29" type="curve" smooth="yes"/>
      <point x="711" y="-29"/>
      <point x="832" y="25"/>
      <point x="938" y="133" type="curve" smooth="yes"/>
      <point x="1044" y="241"/>
      <point x="1114" y="383"/>
      <point x="1148" y="559" type="curve" smooth="yes"/>
      <point x="1183" y="735"/>
      <point x="1168" y="877"/>
      <point x="1104" y="985" type="curve" smooth="yes"/>
      <point x="1040" y="1093"/>
      <point x="940" y="1147"/>
      <point x="804" y="1147" type="curve" smooth="yes"/>
      <point x="722" y="1147"/>
      <point x="648" y="1131"/>
      <point x="583" y="1098" type="curve" smooth="yes"/>
      <point x="518" y="1066"/>
      <point x="459" y="1017"/>
      <point x="407" y="950" type="curve"/>
      <point x="493" y="1391" type="line"/>
      <point x="1154" y="1390" type="line"/>
      <point x="1186" y="1556" type="line"/>
      <point x="340" y="1556" type="line"/>
      <point x="38" y="0" type="line"/>
      <point x="223" y="0" type="line"/>
      <point x="255" y="168" type="line"/>
      <point x="281" y="101"/>
      <point x="320" y="52"/>
      <point x="373" y="20" type="curve" smooth="yes"/>
      <point x="426" y="-13"/>
      <point x="493" y="-29"/>
    </contour>
    <contour>
      <point x="560" y="125" type="curve" smooth="yes"/>
      <point x="463" y="125"/>
      <point x="394" y="163"/>
      <point x="353" y="240" type="curve" smooth="yes"/>
      <point x="312" y="317"/>
      <point x="305" y="424"/>
      <point x="331" y="559" type="curve" smooth="yes"/>
      <point x="358" y="694"/>
      <point x="406" y="801"/>
      <point x="477" y="878" type="curve" smooth="yes"/>
      <point x="548" y="955"/>
      <point x="632" y="993"/>
      <point x="729" y="993" type="curve" smooth="yes"/>
      <point x="826" y="993"/>
      <point x="895" y="955"/>
      <point x="936" y="878" type="curve" smooth="yes"/>
      <point x="977" y="801"/>
      <point x="984" y="694"/>
      <point x="957" y="559" type="curve" smooth="yes"/>
      <point x="931" y="424"/>
      <point x="883" y="317"/>
      <point x="812" y="240" type="curve" smooth="yes"/>
      <point x="741" y="163"/>
      <point x="657" y="125"/>
    </contour>
  </outline>
</glyph>
<glyph name="uni0184" format="2">
  <advance width="1405"/>
  <unicode hex="0184"/>
  <outline>
    <contour>
      <point x="87" y="0" type="line"/>
      <point x="623" y="0" type="line" smooth="yes"/>
      <point x="958" y="0"/>
      <point x="1174" y="144"/>
      <point x="1231" y="439" type="curve" smooth="yes"/>
      <point x="1260" y="587"/>
      <point x="1236" y="697"/>
      <point x="1160" y="770" type="curve" smooth="yes"/>
      <point x="1083" y="843"/>
      <point x="961" y="879"/>
      <point x="794" y="879" type="curve" smooth="yes"/>
      <point x="460" y="879" type="line"/>
      <point x="579" y="1493" type="line"/>
      <point x="488" y="1493" type="line"/>
      <point x="98" y="1092" type="line"/>
      <point x="299" y="1092" type="line"/>
    </contour>
    <contour>
      <point x="321" y="166" type="line"/>
      <point x="428" y="713" type="line"/>
      <point x="752" y="713" type="line" smooth="yes"/>
      <point x="861" y="713"/>
      <point x="937" y="691"/>
      <point x="980" y="646" type="curve" smooth="yes"/>
      <point x="1023" y="601"/>
      <point x="1036" y="532"/>
      <point x="1018" y="439" type="curve" smooth="yes"/>
      <point x="1001" y="347"/>
      <point x="961" y="279"/>
      <point x="899" y="234" type="curve" smooth="yes"/>
      <point x="838" y="189"/>
      <point x="754" y="166"/>
      <point x="645" y="166" type="curve" smooth="yes"/>
    </contour>
  </outline>
</glyph>
<glyph name="uni0185" format="2">
  <advance width="1300"/>
  <unicode hex="0185"/>
  <outline>
    <contour>
      <point x="609" y="-29" type="curve" smooth="yes"/>
      <point x="881" y="-29"/>
      <point x="1114" y="207"/>
      <point x="1183" y="559" type="curve" smooth="yes"/>
      <point x="1251" y="911"/>
      <point x="1110" y="1147"/>
      <point x="838" y="1147" type="curve" smooth="yes"/>
      <point x="756" y="1147"/>
      <point x="682" y="1131"/>
      <point x="617" y="1098" type="curve" smooth="yes"/>
      <point x="552" y="1066"/>
      <point x="493" y="1017"/>
      <point x="442" y="950" type="curve"/>
      <point x="560" y="1557" type="line"/>
      <point x="479" y="1557" type="line"/>
      <point x="98" y="1092" type="line"/>
      <point x="284" y="1092" type="line"/>
      <point x="72" y="0" type="line"/>
      <point x="257" y="0" type="line"/>
      <point x="290" y="168" type="line"/>
      <point x="315" y="101"/>
      <point x="354" y="52"/>
      <point x="407" y="20" type="curve" smooth="yes"/>
      <point x="460" y="-13"/>
      <point x="527" y="-29"/>
    </contour>
    <contour>
      <point x="594" y="125" type="curve" smooth="yes"/>
      <point x="497" y="125"/>
      <point x="428" y="163"/>
      <point x="387" y="240" type="curve" smooth="yes"/>
      <point x="346" y="317"/>
      <point x="339" y="424"/>
      <point x="366" y="559" type="curve" smooth="yes"/>
      <point x="392" y="694"/>
      <point x="440" y="801"/>
      <point x="511" y="878" type="curve" smooth="yes"/>
      <point x="582" y="955"/>
      <point x="666" y="993"/>
      <point x="763" y="993" type="curve" smooth="yes"/>
      <point x="860" y="993"/>
      <point x="929" y="955"/>
      <point x="970" y="878" type="curve" smooth="yes"/>
      <point x="1011" y="801"/>
      <point x="1018" y="694"/>
      <point x="992" y="559" type="curve" smooth="yes"/>
      <point x="965" y="424"/>
      <point x="917" y="317"/>
      <point x="846" y="240" type="curve" smooth="yes"/>
      <point x="775" y="163"/>
      <point x="691" y="125"/>
    </contour>
  </outline>
</glyph>
<glyph name="uni0186" format="2">
  <advance width="1440"/>
  <unicode hex="0186"/>
  <anchor x="620" y="0" name="cedilla"/>
  <anchor x="620" y="0" name="below"/>
  <anchor x="295" y="1520" name="half"/>
  <anchor x="899" y="1520" name="above"/>
  <outline>
    <contour>
      <point x="584" y="-29" type="curve" smooth="yes"/>
      <point x="861" y="-29"/>
      <point x="1064" y="65"/>
      <point x="1227" y="266" type="curve" smooth="yes"/>
      <point x="1380" y="455"/>
      <point x="1465" y="693"/>
      <point x="1465" y="930" type="curve" smooth="yes"/>
      <point x="1465" y="1301"/>
      <point x="1238" y="1520"/>
      <point x="855" y="1520" type="curve" smooth="yes"/>
      <point x="692" y="1520"/>
      <point x="530" y="1485"/>
      <point x="371" y="1417" type="curve"/>
      <point x="324" y="1178" type="line"/>
      <point x="485" y="1297"/>
      <point x="655" y="1356"/>
      <point x="840" y="1356" type="curve" smooth="yes"/>
      <point x="1108" y="1356"/>
      <point x="1252" y="1210"/>
      <point x="1252" y="938" type="curve" smooth="yes"/>
      <point x="1252" y="775"/>
      <point x="1209" y="611"/>
      <point x="1129" y="467" type="curve" smooth="yes"/>
      <point x="1004" y="243"/>
      <point x="833" y="135"/>
      <point x="605" y="135" type="curve" smooth="yes"/>
      <point x="438" y="135"/>
      <point x="297" y="197"/>
      <point x="169" y="326" type="curve"/>
      <point x="128" y="113" type="line"/>
      <point x="260" y="18"/>
      <point x="413" y="-29"/>
    </contour>
  </outline>
</glyph>
<glyph name="uni0187" format="2">
  <advance width="1430"/>
  <unicode hex="0187"/>
  <anchor x="958" y="1520" name="above"/>
  <outline>
    <contour>
      <point x="1227" y="1477" type="qcurve"/>
      <point x="1281" y="1672"/>
      <point x="1382" y="1770" type="qcurve" smooth="yes"/>
      <point x="1509" y="1892"/>
      <point x="1736" y="1892" type="qcurve" smooth="yes"/>
      <point x="1813" y="1892" type="line"/>
      <point x="1780" y="1722" type="line"/>
      <point x="1717" y="1722" type="line" smooth="yes"/>
      <point x="1583" y="1722"/>
      <point x="1513" y="1647" type="qcurve" smooth="yes"/>
      <point x="1444" y="1572"/>
      <point x="1406" y="1378" type="qcurve" smooth="yes"/>
      <point x="1364" y="1165" type="line"/>
      <point x="1281" y="1260"/>
      <point x="1174" y="1307" type="qcurve" smooth="yes"/>
      <point x="1068" y="1354"/>
      <point x="938" y="1354" type="qcurve" smooth="yes"/>
      <point x="708" y="1354"/>
      <point x="550" y="1227" type="qcurve" smooth="yes"/>
      <point x="549" y="1226" type="line"/>
      <point x="548" y="1225" type="line"/>
      <point x="547" y="1225" type="line"/>
      <point x="546" y="1224" type="line"/>
      <point x="545" y="1223" type="line"/>
      <point x="544" y="1222" type="line"/>
      <point x="543" y="1221" type="line"/>
      <point x="542" y="1220" type="line"/>
      <point x="540" y="1220" type="line"/>
      <point x="539" y="1219" type="line"/>
      <point x="538" y="1218" type="line"/>
      <point x="537" y="1217" type="line"/>
      <point x="536" y="1216" type="line"/>
      <point x="535" y="1215" type="line"/>
      <point x="534" y="1214" type="line"/>
      <point x="533" y="1213" type="line"/>
      <point x="532" y="1213" type="line"/>
      <point x="531" y="1212" type="line"/>
      <point x="530" y="1211" type="line"/>
      <point x="529" y="1210" type="line"/>
      <point x="528" y="1209" type="line"/>
      <point x="527" y="1208" type="line"/>
      <point x="526" y="1207" type="line"/>
      <point x="525" y="1206" type="line"/>
      <point x="524" y="1205" type="line"/>
      <point x="523" y="1204" type="line"/>
      <point x="522" y="1204" type="line"/>
      <point x="521" y="1203" type="line"/>
      <point x="520" y="1202" type="line"/>
      <point x="519" y="1201" type="line"/>
      <point x="518" y="1200" type="line"/>
      <point x="517" y="1199" type="line"/>
      <point x="516" y="1198" type="line" smooth="yes"/>
      <point x="349" y="1041"/>
      <point x="292" y="745" type="qcurve" smooth="yes"/>
      <point x="234" y="450"/>
      <point x="340" y="294" type="qcurve" smooth="yes"/>
      <point x="446" y="137"/>
      <point x="702" y="137" type="qcurve" smooth="yes"/>
      <point x="832" y="137"/>
      <point x="956" y="184" type="qcurve" smooth="yes"/>
      <point x="1081" y="231"/>
      <point x="1201" y="326" type="qcurve"/>
      <point x="1160" y="115" type="line"/>
      <point x="1040" y="43"/>
      <point x="915" y="7" type="qcurve" smooth="yes"/>
      <point x="789" y="-29"/>
      <point x="657" y="-29" type="qcurve" smooth="yes"/>
      <point x="318" y="-29"/>
      <point x="164" y="178" type="qcurve" smooth="yes"/>
      <point x="9" y="386"/>
      <point x="79" y="745" type="qcurve" smooth="yes"/>
      <point x="149" y="1105"/>
      <point x="384" y="1312" type="qcurve" smooth="yes"/>
      <point x="619" y="1520"/>
      <point x="958" y="1520" type="qcurve" smooth="yes"/>
      <point x="1092" y="1520"/>
      <point x="1204" y="1484" type="qcurve" smooth="yes"/>
      <point x="1216" y="1481"/>
    </contour>
  </outline>
</glyph>
<glyph name="uni0188" format="2">
  <advance width="1126"/>
  <unicode hex="0188"/>
  <outline>
    <contour>
      <point x="517" y="-29" type="curve" smooth="yes"/>
      <point x="579" y="-29"/>
      <point x="639" y="-23"/>
      <point x="696" y="-11" type="curve" smooth="yes"/>
      <point x="753" y="1"/>
      <point x="810" y="19"/>
      <point x="866" y="43" type="curve"/>
      <point x="899" y="213" type="line"/>
      <point x="842" y="184"/>
      <point x="785" y="163"/>
      <point x="730" y="148" type="curve" smooth="yes"/>
      <point x="675" y="134"/>
      <point x="620" y="127"/>
      <point x="567" y="127" type="curve" smooth="yes"/>
      <point x="448" y="127"/>
      <point x="362" y="165"/>
      <point x="311" y="240" type="curve" smooth="yes"/>
      <point x="260" y="316"/>
      <point x="247" y="422"/>
      <point x="274" y="559" type="curve" smooth="yes"/>
      <point x="301" y="696"/>
      <point x="354" y="802"/>
      <point x="435" y="878" type="curve" smooth="yes"/>
      <point x="516" y="953"/>
      <point x="616" y="991"/>
      <point x="735" y="991" type="curve" smooth="yes"/>
      <point x="788" y="991"/>
      <point x="840" y="984"/>
      <point x="890" y="970" type="curve" smooth="yes"/>
      <point x="939" y="955"/>
      <point x="987" y="934"/>
      <point x="1034" y="905" type="curve"/>
      <point x="1067" y="1077" type="line" smooth="yes"/>
      <point x="1087" y="1179"/>
      <point x="1113" y="1246"/>
      <point x="1144" y="1278" type="curve" smooth="yes"/>
      <point x="1176" y="1311"/>
      <point x="1227" y="1327"/>
      <point x="1297" y="1327" type="curve" smooth="yes"/>
      <point x="1346" y="1327" type="line"/>
      <point x="1376" y="1483" type="line"/>
      <point x="1306" y="1483" type="line" smooth="yes"/>
      <point x="1185" y="1483"/>
      <point x="1092" y="1451"/>
      <point x="1025" y="1387" type="curve" smooth="yes"/>
      <point x="968" y="1332"/>
      <point x="925" y="1248"/>
      <point x="896" y="1135" type="curve"/>
      <point x="851" y="1143"/>
      <point x="805" y="1147"/>
      <point x="758" y="1147" type="curve" smooth="yes"/>
      <point x="583" y="1147"/>
      <point x="436" y="1095"/>
      <point x="315" y="990" type="curve" smooth="yes"/>
      <point x="194" y="885"/>
      <point x="116" y="742"/>
      <point x="80" y="559" type="curve" smooth="yes"/>
      <point x="45" y="379"/>
      <point x="67" y="236"/>
      <point x="146" y="130" type="curve" smooth="yes"/>
      <point x="225" y="24"/>
      <point x="348" y="-29"/>
    </contour>
  </outline>
</glyph>
<glyph name="uni018A" format="2">
  <advance width="1677"/>
  <unicode hex="018A"/>
  <outline>
    <contour>
      <point x="301" y="0" type="line"/>
      <point x="716" y="0" type="line" smooth="yes"/>
      <point x="1292" y="0"/>
      <point x="1601" y="233"/>
      <point x="1701" y="748" type="curve" smooth="yes"/>
      <point x="1751" y="1004"/>
      <point x="1720" y="1192"/>
      <point x="1608" y="1312" type="curve" smooth="yes"/>
      <point x="1496" y="1433"/>
      <point x="1295" y="1493"/>
      <point x="1006" y="1493" type="curve" smooth="yes"/>
      <point x="591" y="1493" type="line" smooth="yes"/>
      <point x="448" y="1493"/>
      <point x="340" y="1466"/>
      <point x="265" y="1412" type="curve" smooth="yes"/>
      <point x="191" y="1357"/>
      <point x="142" y="1270"/>
      <point x="118" y="1149" type="curve" smooth="yes"/>
      <point x="105" y="1079" type="line"/>
      <point x="261" y="1079" type="line"/>
      <point x="270" y="1128" type="line" smooth="yes"/>
      <point x="285" y="1204"/>
      <point x="311" y="1255"/>
      <point x="348" y="1280" type="curve" smooth="yes"/>
      <point x="394" y="1311"/>
      <point x="464" y="1327"/>
      <point x="559" y="1327" type="curve"/>
    </contour>
    <contour>
      <point x="535" y="166" type="line"/>
      <point x="761" y="1327" type="line"/>
      <point x="1005" y="1327" type="line" smooth="yes"/>
      <point x="1211" y="1327"/>
      <point x="1353" y="1281"/>
      <point x="1430" y="1188" type="curve" smooth="yes"/>
      <point x="1508" y="1095"/>
      <point x="1527" y="948"/>
      <point x="1488" y="748" type="curve" smooth="yes"/>
      <point x="1411" y="345"/>
      <point x="1191" y="166"/>
      <point x="779" y="166" type="curve" smooth="yes"/>
    </contour>
  </outline>
</glyph>
<glyph name="uni018B" format="2">
  <advance width="1405"/>
  <unicode hex="018B"/>
  <outline>
    <contour>
      <point x="354" y="439" type="qcurve" smooth="yes"/>
      <point x="327" y="301"/>
      <point x="393" y="234" type="qcurve" smooth="yes"/>
      <point x="458" y="166"/>
      <point x="621" y="166" type="qcurve" smooth="yes"/>
      <point x="945" y="166" type="line"/>
      <point x="1051" y="713" type="line"/>
      <point x="727" y="713" type="line" smooth="yes"/>
      <point x="564" y="713"/>
      <point x="473" y="646" type="qcurve" smooth="yes"/>
      <point x="381" y="578"/>
    </contour>
    <contour>
      <point x="559" y="1493" type="line"/>
      <point x="1405" y="1493" type="line"/>
      <point x="1115" y="0" type="line"/>
      <point x="579" y="0" type="line" smooth="yes"/>
      <point x="328" y="0"/>
      <point x="213" y="109" type="qcurve" smooth="yes"/>
      <point x="98" y="218"/>
      <point x="141" y="439" type="qcurve" smooth="yes"/>
      <point x="184" y="661"/>
      <point x="342" y="770" type="qcurve" smooth="yes"/>
      <point x="499" y="879"/>
      <point x="750" y="879" type="qcurve" smooth="yes"/>
      <point x="1084" y="879" type="line"/>
      <point x="1171" y="1327" type="line"/>
      <point x="527" y="1327" type="line"/>
    </contour>
  </outline>
</glyph>
<glyph name="uni018C" format="2">
  <advance width="1300"/>
  <unicode hex="018C"/>
  <outline>
    <contour>
      <point x="418" y="-29" type="curve" smooth="yes"/>
      <point x="500" y="-29"/>
      <point x="574" y="-13"/>
      <point x="639" y="20" type="curve" smooth="yes"/>
      <point x="704" y="52"/>
      <point x="763" y="101"/>
      <point x="814" y="168" type="curve"/>
      <point x="782" y="0" type="line"/>
      <point x="966" y="0" type="line"/>
      <point x="1268" y="1556" type="line"/>
      <point x="423" y="1556" type="line"/>
      <point x="391" y="1390" type="line"/>
      <point x="1052" y="1391" type="line"/>
      <point x="966" y="950" type="line"/>
      <point x="941" y="1017"/>
      <point x="902" y="1066"/>
      <point x="849" y="1098" type="curve" smooth="yes"/>
      <point x="796" y="1131"/>
      <point x="729" y="1147"/>
      <point x="647" y="1147" type="curve" smooth="yes"/>
      <point x="511" y="1147"/>
      <point x="390" y="1093"/>
      <point x="284" y="985" type="curve" smooth="yes"/>
      <point x="178" y="877"/>
      <point x="108" y="735"/>
      <point x="73" y="559" type="curve" smooth="yes"/>
      <point x="39" y="383"/>
      <point x="54" y="241"/>
      <point x="118" y="133" type="curve" smooth="yes"/>
      <point x="182" y="25"/>
      <point x="282" y="-29"/>
    </contour>
    <contour>
      <point x="493" y="125" type="curve" smooth="yes"/>
      <point x="396" y="125"/>
      <point x="327" y="163"/>
      <point x="286" y="240" type="curve" smooth="yes"/>
      <point x="245" y="317"/>
      <point x="238" y="424"/>
      <point x="264" y="559" type="curve" smooth="yes"/>
      <point x="291" y="694"/>
      <point x="339" y="801"/>
      <point x="410" y="878" type="curve" smooth="yes"/>
      <point x="481" y="955"/>
      <point x="565" y="993"/>
      <point x="662" y="993" type="curve" smooth="yes"/>
      <point x="759" y="993"/>
      <point x="828" y="955"/>
      <point x="869" y="878" type="curve" smooth="yes"/>
      <point x="910" y="801"/>
      <point x="917" y="694"/>
      <point x="890" y="559" type="curve" smooth="yes"/>
      <point x="864" y="424"/>
      <point x="816" y="317"/>
      <point x="745" y="240" type="curve" smooth="yes"/>
      <point x="674" y="163"/>
      <point x="590" y="125"/>
    </contour>
  </outline>
</glyph>
<glyph name="uni018D" format="2">
  <advance width="1253"/>
  <unicode hex="018D"/>
  <outline>
    <contour>
      <point x="440" y="-426" type="curve" smooth="yes"/>
      <point x="734" y="-426"/>
      <point x="899" y="-335"/>
      <point x="934" y="-154" type="curve" smooth="yes"/>
      <point x="953" y="-60"/>
      <point x="915" y="13"/>
      <point x="821" y="66" type="curve"/>
      <point x="876" y="90"/>
      <point x="925" y="123"/>
      <point x="969" y="166" type="curve" smooth="yes"/>
      <point x="1082" y="276"/>
      <point x="1151" y="399"/>
      <point x="1177" y="535" type="curve" smooth="yes"/>
      <point x="1213" y="718"/>
      <point x="1195" y="862"/>
      <point x="1124" y="966" type="curve" smooth="yes"/>
      <point x="1053" y="1071"/>
      <point x="937" y="1123"/>
      <point x="778" y="1123" type="curve" smooth="yes"/>
      <point x="618" y="1123"/>
      <point x="482" y="1071"/>
      <point x="370" y="966" type="curve" smooth="yes"/>
      <point x="259" y="862"/>
      <point x="186" y="722"/>
      <point x="151" y="545" type="curve" smooth="yes"/>
      <point x="115" y="360"/>
      <point x="136" y="223"/>
      <point x="213" y="133" type="curve" smooth="yes"/>
      <point x="277" y="58"/>
      <point x="376" y="9"/>
      <point x="509" y="-16" type="curve" smooth="yes"/>
      <point x="679" y="-48"/>
      <point x="758" y="-95"/>
      <point x="746" y="-156" type="curve" smooth="yes"/>
      <point x="731" y="-234"/>
      <point x="639" y="-273"/>
      <point x="470" y="-273" type="curve" smooth="yes"/>
      <point x="311" y="-273"/>
      <point x="202" y="-250"/>
      <point x="143" y="-203" type="curve"/>
      <point x="113" y="-356" type="line"/>
      <point x="184" y="-403"/>
      <point x="293" y="-426"/>
    </contour>
    <contour>
      <point x="693" y="116" type="curve"/>
      <point x="660" y="125"/>
      <point x="623" y="132"/>
      <point x="581" y="136" type="curve" smooth="yes"/>
      <point x="498" y="143"/>
      <point x="431" y="181"/>
      <point x="380" y="250" type="curve" smooth="yes"/>
      <point x="332" y="314"/>
      <point x="321" y="412"/>
      <point x="346" y="545" type="curve" smooth="yes"/>
      <point x="371" y="672"/>
      <point x="419" y="774"/>
      <point x="492" y="851" type="curve" smooth="yes"/>
      <point x="564" y="928"/>
      <point x="649" y="967"/>
      <point x="747" y="967" type="curve" smooth="yes"/>
      <point x="846" y="967"/>
      <point x="917" y="929"/>
      <point x="960" y="852" type="curve" smooth="yes"/>
      <point x="1002" y="776"/>
      <point x="1010" y="670"/>
      <point x="983" y="535" type="curve" smooth="yes"/>
      <point x="957" y="399"/>
      <point x="908" y="293"/>
      <point x="836" y="218" type="curve" smooth="yes"/>
      <point x="789" y="169"/>
      <point x="742" y="135"/>
    </contour>
  </outline>
</glyph>
<glyph name="uni018E" format="2">
  <advance width="1294"/>
  <unicode hex="018E"/>
  <anchor x="895" y="1520" name="above"/>
  <outline>
    <contour>
      <point x="1383" y="1493" type="line"/>
      <point x="1093" y="0" type="line"/>
      <point x="131" y="0" type="line"/>
      <point x="164" y="170" type="line"/>
      <point x="924" y="170" type="line"/>
      <point x="1029" y="711" type="line"/>
      <point x="318" y="711" type="line"/>
      <point x="351" y="881" type="line"/>
      <point x="1062" y="881" type="line"/>
      <point x="1148" y="1323" type="line"/>
      <point x="406" y="1323" type="line"/>
      <point x="439" y="1493" type="line"/>
    </contour>
  </outline>
</glyph>
